<svg width="328" height="234" viewBox="0 0 328 234" fill="none" xmlns="http://www.w3.org/2000/svg">
<path d="M249.229 50.9128C253.273 87.6932 232.533 139.932 232.533 139.932C232.533 139.932 260.877 113.237 260.26 81.6215L251.194 81.4652C251.194 81.4652 255.865 78.4186 259.832 75.9345C258.74 67.7091 255.527 59.2479 249.229 50.9128Z" fill="#07085B"/>
<path d="M216.706 93.4622L222.433 90.0777L217.487 89.3552C218.963 83.194 221.643 77.7327 224.842 73.0027C228.578 74.1364 232.853 75.3242 232.853 75.3242L228.128 68.5893C237.579 57.0047 249.228 50.9141 249.228 50.9141C253.272 87.6944 232.531 139.933 232.531 139.933C218.367 121.858 214.875 106.293 216.706 93.4622Z" fill="#55769F"/>
<path d="M263.526 87.2392C257.318 89.9087 252.331 93.5807 248.325 97.7659C248.892 100.331 249.508 103.416 249.508 103.416L245.689 100.758C231.768 117.926 231.959 141.16 231.959 141.16C245.631 135.526 253.804 128.038 258.592 120.441C257.617 119.024 256.139 116.943 256.139 116.943L260.043 117.95C262.095 114.121 263.347 110.313 264.068 106.748C262.033 106.238 259.751 105.597 259.751 105.597L264.617 103.329C265.714 94.1078 263.526 87.2392 263.526 87.2392Z" fill="#FF5B7E"/>
<path d="M258.592 120.44C257.617 119.022 256.139 116.942 256.139 116.942L260.043 117.949C262.095 114.12 263.347 110.311 264.068 106.747C262.033 106.237 259.751 105.595 259.751 105.595L264.617 103.328C265.714 94.1078 263.526 87.2392 263.526 87.2392C245.955 106.206 231.958 141.159 231.958 141.159C245.631 135.525 253.804 128.037 258.592 120.44Z" fill="#E03268"/>
<path d="M254.283 103.579L207.595 185.756L249.355 209.482L296.044 127.305L254.283 103.579Z" fill="#8FD0D6"/>
<path d="M292.535 128.848L248.875 205.695L211.084 184.224L254.745 107.377L292.535 128.848ZM247.803 201.801L288.642 129.92L255.818 111.271L214.978 183.152L247.803 201.801Z" fill="#CBEFEF"/>
<path d="M268.929 166.214C273.795 157.65 270.112 146.374 260.704 141.029C251.296 135.684 239.725 138.293 234.859 146.857C229.993 155.421 233.676 166.697 243.084 172.042C252.492 177.388 264.063 174.778 268.929 166.214Z" fill="#CBEFEF"/>
<path d="M248.13 150.955C247.077 150.678 246.104 150.635 245.157 151.307C245.289 151.416 245.377 151.511 245.485 151.573C246.944 152.414 248.411 153.242 249.862 154.095C250.18 154.282 250.359 154.243 250.63 153.994C251.264 153.416 251.925 152.862 252.619 152.356C255.054 150.583 257.59 150.901 259.857 152.58C262.587 154.601 263.352 157.172 262.331 160.433C262.144 161.028 262.283 161.309 262.802 161.545C263.181 161.718 263.53 161.954 263.927 162.183C263.564 162.816 263.221 163.413 262.845 164.067C262.273 163.738 261.708 163.414 261.153 163.095C258.13 166.821 254.469 166.361 252.17 165.269C252.688 164.085 253.206 162.899 253.737 161.684C255.148 162.07 256.471 162.048 257.912 161.244C257.1 160.777 256.4 160.375 255.702 159.974C254.746 159.425 253.78 158.892 252.838 158.32C252.491 158.109 252.261 158.115 251.952 158.396C250.967 159.293 249.885 160.047 248.58 160.409C245.936 161.143 243.71 160.244 241.921 158.388C240.25 156.655 240.008 154.494 240.793 152.226C240.846 152.075 240.9 151.925 240.95 151.773C240.967 151.716 240.971 151.655 240.991 151.543C240.542 151.286 240.081 151.02 239.578 150.731C239.946 150.09 240.289 149.493 240.676 148.818C241.013 149.011 241.368 149.186 241.691 149.409C242.033 149.646 242.235 149.558 242.484 149.254C243.594 147.895 244.985 147.02 246.779 146.904C247.727 146.842 248.642 146.996 249.596 147.382C249.103 148.58 248.628 149.739 248.13 150.955ZM254.07 156.465C255.79 157.453 257.461 158.413 259.133 159.374C259.69 158.143 259.196 156.612 257.988 155.774C256.806 154.953 255.301 155.194 254.07 156.465ZM243.967 153.291C243.789 154.621 244.352 155.827 245.306 156.302C246.362 156.827 247.69 156.635 248.441 155.862C246.975 155.018 245.504 154.173 243.967 153.291Z" fill="#8FD0D6"/>
<path d="M237.414 181.876C236.163 181.166 234.574 181.604 233.864 182.853C233.154 184.103 233.592 185.693 234.841 186.403C236.092 187.113 237.681 186.675 238.391 185.426C239.101 184.176 238.663 182.586 237.414 181.876Z" fill="#CBEFEF"/>
<path d="M268.923 126.414C267.673 125.704 266.084 126.142 265.374 127.391C264.664 128.641 265.101 130.231 266.351 130.941C267.602 131.651 269.191 131.213 269.901 129.964C270.612 128.714 270.174 127.124 268.923 126.414Z" fill="#CBEFEF"/>
<path d="M285.438 145.959C285.293 145.841 288.769 140.094 288.769 140.094L243.677 157.516L244.274 161.072L285.438 145.959Z" fill="#8FD0D6"/>
<path d="M310.566 136.527L221.934 169.341L238.609 214.382L327.241 181.568L310.566 136.527Z" fill="#8FD0D6"/>
<path d="M323.57 180.498L240.685 211.182L225.595 170.422L308.48 139.738L323.57 180.498ZM242.371 207.513L319.901 178.81L306.794 143.406L229.264 172.108L242.371 207.513Z" fill="#CBEFEF"/>
<path d="M281.444 193.878C290.681 190.458 295.123 179.46 291.367 169.313C287.61 159.165 277.076 153.712 267.84 157.131C258.603 160.551 254.16 171.549 257.917 181.697C261.674 191.844 272.207 197.298 281.444 193.878Z" fill="#CBEFEF"/>
<path d="M275.359 168.82C274.733 167.929 274.016 167.271 272.859 167.175C272.89 167.343 272.895 167.473 272.938 167.59C273.513 169.173 274.102 170.75 274.662 172.338C274.784 172.686 274.947 172.77 275.315 172.755C276.173 172.721 277.035 172.722 277.891 172.783C280.896 172.994 282.633 174.87 283.286 177.614C284.074 180.919 283.003 183.379 280.122 185.215C279.596 185.55 279.522 185.854 279.766 186.37C279.944 186.746 280.059 187.151 280.217 187.582C279.531 187.832 278.884 188.067 278.176 188.326C277.951 187.705 277.727 187.093 277.508 186.492C272.796 187.398 270.29 184.687 269.235 182.371C270.393 181.799 271.554 181.225 272.743 180.638C273.574 181.842 274.6 182.677 276.22 182.989C275.9 182.109 275.624 181.351 275.347 180.594C274.968 179.558 274.574 178.528 274.222 177.484C274.092 177.099 273.912 176.957 273.494 176.973C272.164 177.025 270.85 176.905 269.618 176.341C267.123 175.202 265.999 173.079 265.824 170.507C265.661 168.105 266.868 166.296 268.928 165.066C269.066 164.984 269.204 164.903 269.341 164.819C269.391 164.787 269.433 164.743 269.52 164.67C269.342 164.184 269.16 163.684 268.961 163.139C269.655 162.886 270.303 162.65 271.033 162.384C271.165 162.748 271.325 163.111 271.429 163.49C271.537 163.891 271.749 163.954 272.135 163.882C273.86 163.556 275.487 163.783 276.934 164.848C277.7 165.41 278.3 166.117 278.782 167.028C277.634 167.629 276.524 168.209 275.359 168.82ZM276.357 176.86C277.036 178.723 277.696 180.533 278.358 182.346C279.576 181.764 280.184 180.273 279.8 178.853C279.425 177.465 278.117 176.681 276.357 176.86ZM270.671 167.927C269.679 168.831 269.332 170.115 269.758 171.093C270.227 172.174 271.367 172.883 272.439 172.774C271.86 171.185 271.279 169.593 270.671 167.927Z" fill="#8FD0D6"/>
<path d="M247.251 185.578C246.751 184.23 245.253 183.542 243.905 184.041C242.557 184.54 241.869 186.038 242.368 187.386C242.868 188.734 244.366 189.423 245.714 188.924C247.062 188.424 247.75 186.926 247.251 185.578Z" fill="#CBEFEF"/>
<path d="M307.07 163.433C306.571 162.085 305.073 161.396 303.725 161.894C302.377 162.393 301.688 163.892 302.186 165.24C302.686 166.588 304.184 167.276 305.532 166.778C306.881 166.279 307.57 164.781 307.07 163.433Z" fill="#CBEFEF"/>
<path d="M311.965 171.047L217.454 171.338L217.602 219.366L312.113 219.075L311.965 171.047Z" fill="#8FD0D6"/>
<path d="M309.041 216.801L220.658 217.074L220.524 173.61L308.907 173.338L309.041 216.801ZM223.505 214.209L306.176 213.954L306.06 176.201L223.389 176.456L223.505 214.209Z" fill="#CBEFEF"/>
<path d="M264.877 214.868C274.727 214.837 282.684 206.041 282.65 195.221C282.617 184.4 274.605 175.654 264.755 175.684C254.906 175.715 246.949 184.511 246.982 195.331C247.016 206.152 255.028 214.899 264.877 214.868Z" fill="#CBEFEF"/>
<path d="M267.798 189.239C267.517 188.187 267.071 187.322 266.016 186.833C265.987 187.001 265.948 187.125 265.948 187.249C265.943 188.932 265.953 190.617 265.933 192.3C265.928 192.669 266.052 192.805 266.402 192.917C267.219 193.179 268.029 193.478 268.812 193.83C271.561 195.063 272.545 197.421 272.214 200.223C271.816 203.598 269.963 205.538 266.627 206.271C266.018 206.405 265.842 206.664 265.895 207.233C265.933 207.647 265.902 208.068 265.9 208.526C265.17 208.524 264.482 208.523 263.728 208.522C263.729 207.862 263.73 207.209 263.732 206.57C258.997 205.797 257.577 202.39 257.384 199.852C258.669 199.714 259.955 199.575 261.274 199.433C261.64 200.849 262.315 201.986 263.729 202.838C263.73 201.902 263.733 201.096 263.734 200.289C263.735 199.187 263.719 198.083 263.748 196.981C263.759 196.575 263.638 196.378 263.241 196.251C261.974 195.841 260.782 195.276 259.819 194.324C257.868 192.394 257.544 190.016 258.265 187.54C258.939 185.229 260.695 183.946 263.053 183.501C263.211 183.471 263.368 183.445 263.525 183.411C263.583 183.398 263.637 183.371 263.744 183.332C263.745 182.815 263.747 182.282 263.747 181.702C264.486 181.703 265.174 181.704 265.952 181.706C265.951 182.094 265.977 182.49 265.943 182.881C265.907 183.295 266.085 183.427 266.472 183.492C268.203 183.781 269.653 184.554 270.646 186.052C271.17 186.844 271.49 187.714 271.629 188.736C270.344 188.905 269.102 189.067 267.798 189.239ZM265.966 197.131C265.962 199.115 265.958 201.042 265.956 202.971C267.3 202.844 268.385 201.653 268.512 200.189C268.638 198.755 267.681 197.569 265.966 197.131ZM263.704 186.787C262.461 187.294 261.694 188.38 261.756 189.446C261.825 190.622 262.651 191.68 263.694 191.947C263.698 190.255 263.701 188.56 263.704 186.787Z" fill="#8FD0D6"/>
<path d="M235.639 195.295C235.634 193.858 234.465 192.695 233.027 192.7C231.59 192.705 230.427 193.874 230.432 195.312C230.437 196.749 231.606 197.912 233.044 197.907C234.481 197.903 235.644 196.734 235.639 195.295Z" fill="#CBEFEF"/>
<path d="M299.426 195.099C299.421 193.661 298.252 192.498 296.815 192.503C295.377 192.508 294.215 193.677 294.22 195.115C294.225 196.552 295.394 197.715 296.831 197.71C298.269 197.706 299.43 196.537 299.426 195.099Z" fill="#CBEFEF"/>
<path d="M312.014 187.188L311.963 171.047L245.973 171.185L245.332 167.362L315.58 167.139L315.62 185.874L312.014 187.188Z" fill="#8FD0D6"/>
<path d="M80.8808 85.235L61.3765 90.1016L66.4219 110.323L85.9262 105.456L80.8808 85.235Z" fill="#CFE8EA"/>
<path d="M19.5087 100.548L0.00439453 105.415L5.04982 125.636L24.5541 120.77L19.5087 100.548Z" fill="#CFE8EA"/>
<path d="M99.837 161.244L85.9183 105.454L66.4147 110.32L80.5112 166.824L80.6108 167.111C80.7117 167.438 81.7268 170.81 82.0269 175.278C82.2841 179.114 82.0559 184.646 79.5112 189.214C77.0334 193.661 72.6629 196.686 66.1663 198.449C65.5925 198.58 65.0301 198.694 64.4766 198.792L69.349 218.323C69.6479 218.263 69.948 218.2 70.2481 218.134L70.2531 218.157C70.5141 218.091 70.7739 218.024 71.0311 217.956C71.2909 217.896 71.5519 217.833 71.813 217.767L71.8079 217.745C77.587 216.129 82.6561 213.721 86.8905 210.57C91.1728 207.383 94.6304 203.432 97.1637 198.827C99.4133 194.739 100.93 190.139 101.674 185.153C102.24 181.356 102.359 177.329 102.027 173.179C101.551 167.227 100.281 162.689 99.837 161.244Z" fill="#74BDC1"/>
<path d="M50.0459 196.565C45.6539 193.728 42.8532 188.951 41.2783 185.444C39.4435 181.359 38.755 177.905 38.6907 177.57L38.6428 177.27L24.5463 120.766L5.04395 125.632L18.9627 181.423C19.2502 182.906 20.259 187.51 22.6346 192.988C24.2916 196.806 26.2877 200.308 28.5713 203.393C31.57 207.446 35.0704 210.795 38.977 213.348C43.3778 216.223 48.2843 218.086 53.5627 218.887C58.5134 219.639 63.8133 219.448 69.349 218.326L64.4765 198.795C58.6874 199.82 53.9486 199.086 50.0459 196.565Z" fill="#FF5B7E"/>
<path d="M265.228 209.661C278.576 196.313 278.576 174.673 265.228 161.325C251.881 147.977 230.24 147.977 216.893 161.325C203.545 174.673 203.545 196.313 216.893 209.661C230.24 223.008 251.881 223.008 265.228 209.661Z" fill="#F4A640"/>
<path d="M262.797 207.229C274.801 195.225 274.801 175.761 262.797 163.757C250.792 151.752 231.328 151.752 219.324 163.757C207.319 175.761 207.319 195.225 219.324 207.229C231.328 219.234 250.792 219.234 262.797 207.229Z" fill="#F9CC4B"/>
<path d="M241.371 214.269C225.503 214.438 212.455 201.667 212.286 185.799C212.117 169.931 224.889 156.883 240.757 156.714C256.625 156.545 269.672 169.317 269.841 185.185C270.01 201.053 257.239 214.1 241.371 214.269ZM240.767 157.772C225.482 157.935 213.179 170.503 213.343 185.789C213.506 201.073 226.074 213.377 241.36 213.213C256.644 213.049 268.947 200.482 268.783 185.196C268.621 169.912 256.052 157.608 240.767 157.772Z" fill="#F4A640"/>
<path opacity="0.5" d="M245.746 176.389C245.295 174.782 244.592 173.464 242.967 172.735C242.927 172.994 242.869 173.184 242.87 173.376C242.894 175.958 242.942 178.541 242.943 181.123C242.943 181.689 243.135 181.894 243.674 182.06C244.932 182.447 246.18 182.89 247.387 183.414C251.626 185.253 253.18 188.852 252.727 193.153C252.181 198.335 249.378 201.348 244.273 202.536C243.343 202.753 243.079 203.155 243.17 204.025C243.237 204.659 243.195 205.304 243.203 206.009C242.083 206.02 241.028 206.031 239.871 206.044C239.86 205.031 239.85 204.031 239.84 203.05C232.561 201.957 230.321 196.757 229.975 192.869C231.942 192.632 233.913 192.394 235.934 192.15C236.523 194.315 237.581 196.047 239.767 197.327C239.751 195.89 239.738 194.653 239.725 193.416C239.706 191.725 239.659 190.034 239.683 188.345C239.692 187.722 239.503 187.423 238.891 187.234C236.941 186.63 235.102 185.786 233.607 184.344C230.578 181.421 230.034 177.779 231.094 173.97C232.082 170.412 234.752 168.411 238.359 167.682C238.6 167.633 238.842 167.589 239.081 167.535C239.169 167.515 239.253 167.472 239.416 167.411C239.407 166.618 239.398 165.801 239.39 164.911C240.523 164.898 241.58 164.887 242.773 164.874C242.779 165.469 242.826 166.076 242.782 166.676C242.734 167.312 243.007 167.511 243.604 167.603C246.264 168.011 248.504 169.169 250.054 171.449C250.873 172.653 251.38 173.982 251.615 175.545C249.644 175.828 247.742 176.102 245.746 176.389ZM243.088 188.529C243.121 191.57 243.152 194.526 243.184 197.486C245.243 197.264 246.882 195.419 247.051 193.169C247.217 190.969 245.726 189.167 243.088 188.529ZM239.42 172.707C237.523 173.509 236.367 175.189 236.483 176.822C236.612 178.625 237.899 180.232 239.504 180.622C239.477 178.027 239.449 175.426 239.42 172.707Z" fill="#FFF9FF"/>
<path d="M77.1458 202.513C77.1458 202.513 92.1615 181.755 84.3661 177.914C84.3661 177.914 82.974 175.711 77.3677 183.587C77.3677 183.587 73.9038 184.726 73.7071 180.709C73.5104 176.692 79.1974 170.58 75.5708 167.097C71.9442 163.614 70.0717 169.881 67.5157 171.072C64.9596 172.262 66.1702 156.245 62.6256 154.528C59.0809 152.809 58.1163 159.128 56.1315 159.865C54.1467 160.603 48.2844 141.939 38.8006 145.408C29.3167 148.877 40.1511 155.864 44.7007 160.19C49.2516 164.515 39.8573 162.1 38.8775 167.629C37.8965 173.159 54.6587 168.705 53.1405 174.082C51.6222 179.459 46.8179 176.394 45.9226 180.411C44.475 186.903 61.0834 180.663 60.7089 185.133C60.41 188.698 54.3876 186.354 53.7457 189.109C53.1039 191.864 63.531 201.743 77.1458 202.513Z" fill="#07085B"/>
<path opacity="0.1" d="M84.8934 178.224C84.8253 178.176 84.7535 178.131 84.6803 178.087C84.3954 178.94 84.0435 179.872 83.6123 180.841C82.0272 184.402 79.011 189.21 73.6404 191.965C72.2697 188.995 70.575 185.887 68.5625 182.654C69.9874 174.538 72.8334 170.004 74.9708 167.629C75.1561 167.424 75.339 167.231 75.5193 167.049C75.4575 166.991 75.397 166.937 75.3352 166.884C75.1599 167.062 74.9821 167.248 74.8018 167.448C72.6619 169.82 69.8209 174.324 68.3683 182.341C68.3594 182.327 68.3519 182.315 68.3431 182.301C66.2637 178.988 63.8514 175.542 61.1302 171.995C61.0798 171.637 60.6132 168.217 60.641 164.115C60.6612 161.168 60.9461 157.417 62.0167 154.302C61.9347 154.282 61.8528 154.265 61.7733 154.254C60.7015 157.395 60.414 161.157 60.3951 164.112C60.3724 167.546 60.6939 170.507 60.8301 171.605C58.7482 168.907 56.4898 166.15 54.0624 163.35C47.2948 155.538 40.7906 149.203 37.3998 146.017C37.3216 146.059 37.246 146.099 37.1729 146.142C40.5422 149.305 47.0753 155.661 53.8771 163.511C55.0208 164.831 56.2023 166.23 57.399 167.691C56.4734 167.53 53.7131 167.092 50.1282 166.931C47.1069 166.796 43.0238 166.842 38.884 167.586C38.8815 167.6 38.879 167.613 38.8764 167.627C38.8638 167.701 38.8537 167.773 38.8474 167.844C42.991 167.09 47.0867 167.042 50.113 167.177C54.2163 167.359 57.2325 167.908 57.6386 167.985C60.2841 171.232 62.9978 174.787 65.5386 178.504C59.7041 177.776 50.4132 179.788 45.8434 180.92C45.8358 181.008 45.8333 181.094 45.8333 181.176C50.4195 180.036 59.9159 177.972 65.7253 178.778C69.3279 184.078 72.5699 189.698 74.7665 195.223C69.884 196.017 64.0885 193.85 60.0672 191.878C57.5793 190.657 55.4495 189.362 54.0574 188.459C54.0057 188.522 53.959 188.591 53.9187 188.662C55.3159 189.569 57.4557 190.872 59.955 192.097C64.0242 194.094 69.9004 196.288 74.8598 195.458C75.7929 197.837 76.5306 200.197 77.0173 202.504C77.0602 202.507 77.1031 202.511 77.146 202.513C77.146 202.513 77.18 202.466 77.2418 202.378C76.5672 199.209 75.397 195.803 73.7451 192.189C74.0957 192.01 74.4399 191.821 74.7791 191.619C76.7538 190.451 78.533 188.923 80.0803 187.066C81.5506 185.302 82.8153 183.239 83.8405 180.933C84.2642 179.982 84.611 179.066 84.8934 178.224Z" fill="white"/>
<path d="M86.8451 207.823C86.8451 207.823 73.5922 192.941 48.8189 193.952L53.1151 199.883L46.1923 194.448C46.1923 194.448 31.8285 195.64 22.042 199.145C22.042 199.145 43.0764 210.225 48.3877 211.198L55.4769 209.09L51.6372 214.388C51.6372 214.388 63.2105 220.823 75.1142 219.505C87.0191 218.191 86.8451 207.823 86.8451 207.823Z" fill="#8FD0D6"/>
<path d="M150.289 95.1241H227.485C230.846 95.1241 233.57 97.8491 233.57 101.21V214.059C233.57 217.42 230.845 220.144 227.485 220.144H150.289C146.928 220.144 144.203 217.419 144.203 214.059V101.21C144.202 97.8479 146.927 95.1241 150.289 95.1241Z" fill="#333333"/>
<path d="M226.366 105.406H152.25V124.479H226.366V105.406Z" fill="#3CB4C5"/>
<path opacity="0.5" d="M154.215 108.153H226.366V105.406H152.25V124.479H154.215V108.153Z" fill="#3CB4C5"/>
<path d="M170.854 136.791H154.913C153.443 136.791 152.251 135.599 152.251 134.129V132.583C152.251 131.113 153.443 129.921 154.913 129.921H170.854C172.325 129.921 173.516 131.113 173.516 132.583V134.129C173.516 135.598 172.325 136.791 170.854 136.791Z" fill="#E87B50"/>
<path d="M197.28 136.791H181.338C179.868 136.791 178.676 135.599 178.676 134.129V132.583C178.676 131.113 179.868 129.921 181.338 129.921H197.28C198.75 129.921 199.941 131.113 199.941 132.583V134.129C199.941 135.598 198.75 136.791 197.28 136.791Z" fill="#E87B50"/>
<path d="M223.705 136.791H207.763C206.293 136.791 205.1 135.599 205.1 134.129V132.583C205.1 131.113 206.292 129.921 207.763 129.921H223.705C225.175 129.921 226.367 131.113 226.367 132.583V134.129C226.367 135.598 225.175 136.791 223.705 136.791Z" fill="#E87B50"/>
<path d="M164.98 157.634H155.976C153.918 157.634 152.248 155.965 152.248 153.906V145.957C152.248 143.899 153.916 142.231 155.976 142.231H164.98C167.038 142.231 168.708 143.899 168.708 145.957V153.906C168.708 155.965 167.039 157.634 164.98 157.634Z" fill="#CFE4FF"/>
<path d="M184.2 157.634H175.196C173.138 157.634 171.468 155.965 171.468 153.906V145.957C171.468 143.899 173.137 142.231 175.196 142.231H184.2C186.258 142.231 187.928 143.899 187.928 145.957V153.906C187.927 155.965 186.258 157.634 184.2 157.634Z" fill="#CFE4FF"/>
<path d="M203.42 157.634H194.415C192.358 157.634 190.688 155.965 190.688 153.906V145.957C190.688 143.899 192.356 142.231 194.415 142.231H203.42C205.478 142.231 207.148 143.899 207.148 145.957V153.906C207.146 155.965 205.478 157.634 203.42 157.634Z" fill="#CFE4FF"/>
<path d="M164.98 176.624H155.976C153.918 176.624 152.248 174.956 152.248 172.896V164.947C152.248 162.889 153.916 161.22 155.976 161.22H164.98C167.038 161.22 168.708 162.888 168.708 164.947V172.896C168.708 174.956 167.039 176.624 164.98 176.624Z" fill="#CFE4FF"/>
<path d="M184.2 176.624H175.196C173.138 176.624 171.468 174.956 171.468 172.896V164.947C171.468 162.889 173.137 161.22 175.196 161.22H184.2C186.258 161.22 187.928 162.888 187.928 164.947V172.896C187.927 174.956 186.258 176.624 184.2 176.624Z" fill="#CFE4FF"/>
<path d="M203.42 176.624H194.415C192.358 176.624 190.688 174.956 190.688 172.896V164.947C190.688 162.889 192.356 161.22 194.415 161.22H203.42C205.478 161.22 207.148 162.888 207.148 164.947V172.896C207.146 174.956 205.478 176.624 203.42 176.624Z" fill="#CFE4FF"/>
<path d="M223.014 142.231H213.261C211.41 142.231 209.908 143.731 209.908 145.584V150.351V154.282V173.271C209.908 175.123 211.41 176.624 213.261 176.624H223.014C224.866 176.624 226.367 175.123 226.367 173.271V154.282V150.351V145.584C226.367 143.732 224.866 142.231 223.014 142.231Z" fill="#FDB137"/>
<path d="M164.98 195.613H155.976C153.918 195.613 152.248 193.945 152.248 191.886V183.936C152.248 181.878 153.916 180.209 155.976 180.209H164.98C167.038 180.209 168.708 181.877 168.708 183.936V191.886C168.708 193.945 167.039 195.613 164.98 195.613Z" fill="#CFE4FF"/>
<path d="M184.2 195.613H175.196C173.138 195.613 171.468 193.945 171.468 191.886V183.936C171.468 181.878 173.137 180.209 175.196 180.209H184.2C186.258 180.209 187.928 181.877 187.928 183.936V191.886C187.927 193.945 186.258 195.613 184.2 195.613Z" fill="#CFE4FF"/>
<path d="M203.42 195.613H194.415C192.358 195.613 190.688 193.945 190.688 191.886V183.936C190.688 181.878 192.356 180.209 194.415 180.209H203.42C205.478 180.209 207.148 181.877 207.148 183.936V191.886C207.146 193.945 205.478 195.613 203.42 195.613Z" fill="#CFE4FF"/>
<path d="M222.639 195.613H213.634C211.576 195.613 209.907 193.945 209.907 191.886V183.936C209.907 181.878 211.575 180.209 213.634 180.209H222.639C224.697 180.209 226.366 181.877 226.366 183.936V191.886C226.366 193.945 224.698 195.613 222.639 195.613Z" fill="#FDB137"/>
<path d="M164.98 214.602H155.976C153.918 214.602 152.248 212.934 152.248 210.876V202.927C152.248 200.869 153.916 199.199 155.976 199.199H164.98C167.038 199.199 168.708 200.868 168.708 202.927V210.876C168.708 212.934 167.039 214.602 164.98 214.602Z" fill="#CFE4FF"/>
<path d="M184.2 214.602H175.196C173.138 214.602 171.468 212.934 171.468 210.876V202.927C171.468 200.869 173.137 199.199 175.196 199.199H184.2C186.258 199.199 187.928 200.868 187.928 202.927V210.876C187.927 212.934 186.258 214.602 184.2 214.602Z" fill="#CFE4FF"/>
<path d="M203.42 214.602H194.415C192.358 214.602 190.688 212.934 190.688 210.876V202.927C190.688 200.869 192.356 199.199 194.415 199.199H203.42C205.478 199.199 207.148 200.868 207.148 202.927V210.876C207.146 212.934 205.478 214.602 203.42 214.602Z" fill="#FDB137"/>
<path d="M222.639 214.602H213.634C211.576 214.602 209.907 212.934 209.907 210.876V202.927C209.907 200.869 211.575 199.199 213.634 199.199H222.639C224.697 199.199 226.366 200.868 226.366 202.927V210.876C226.366 212.934 224.698 214.602 222.639 214.602Z" fill="#E87B50"/>
<path d="M163.296 183.865V184.644L159.496 192.592H158.274L162.061 184.872V184.846H157.792V183.866H163.296V183.865Z" fill="white"/>
<path d="M176.817 190.376C176.817 189.275 177.476 188.496 178.549 188.04L178.535 187.999C177.568 187.543 177.152 186.791 177.152 186.04C177.152 184.656 178.319 183.717 179.85 183.717C181.542 183.717 182.387 184.777 182.387 185.866C182.387 186.605 182.024 187.396 180.951 187.906V187.946C182.038 188.376 182.71 189.142 182.71 190.202C182.71 191.719 181.407 192.739 179.743 192.739C177.918 192.739 176.817 191.651 176.817 190.376ZM181.516 190.322C181.516 189.261 180.777 188.751 179.595 188.415C178.575 188.71 178.024 189.383 178.024 190.215C177.984 191.101 178.655 191.879 179.769 191.879C180.831 191.879 181.516 191.221 181.516 190.322ZM178.266 185.959C178.266 186.832 178.924 187.302 179.931 187.57C180.682 187.316 181.26 186.779 181.26 185.987C181.26 185.288 180.844 184.563 179.783 184.563C178.803 184.562 178.266 185.207 178.266 185.959Z" fill="white"/>
<path d="M182.724 206.89C182.724 209.857 181.623 211.495 179.69 211.495C177.985 211.495 176.83 209.897 176.804 207.011C176.804 204.084 178.066 202.473 179.838 202.473C181.677 202.473 182.724 204.111 182.724 206.89ZM177.985 207.024C177.985 209.292 178.684 210.581 179.757 210.581C180.965 210.581 181.542 209.171 181.542 206.943C181.542 204.794 180.991 203.386 179.771 203.386C178.737 203.386 177.985 204.648 177.985 207.024Z" fill="white"/>
<path d="M197.104 191.758C197.359 191.785 197.655 191.758 198.058 191.718C198.742 191.623 199.387 191.342 199.884 190.872C200.461 190.348 200.877 189.583 201.039 188.549H200.998C200.515 189.139 199.817 189.488 198.944 189.488C197.373 189.488 196.367 188.307 196.367 186.816C196.367 185.165 197.562 183.716 199.348 183.716C201.133 183.716 202.234 185.166 202.234 187.394C202.234 189.314 201.59 190.656 200.731 191.488C200.06 192.147 199.133 192.549 198.194 192.656C197.764 192.723 197.388 192.737 197.107 192.723V191.758H197.104ZM197.534 186.737C197.534 187.824 198.193 188.589 199.213 188.589C200.005 188.589 200.623 188.2 200.931 187.676C200.998 187.569 201.039 187.434 201.039 187.246C201.039 185.756 200.488 184.615 199.253 184.615C198.246 184.616 197.534 185.503 197.534 186.737Z" fill="white"/>
<path d="M161.282 173.229V170.854H157.228V170.074L161.122 164.502H162.397V169.926H163.619V170.852H162.397V173.228H161.282V173.229ZM161.282 169.927V167.014C161.282 166.557 161.296 166.101 161.322 165.645H161.282C161.013 166.155 160.799 166.531 160.557 166.933L158.422 169.9V169.927H161.282V169.927Z" fill="white"/>
<path d="M182.134 165.497H178.805L178.469 167.739C178.671 167.713 178.859 167.686 179.181 167.686C179.851 167.686 180.523 167.834 181.061 168.156C181.745 168.546 182.309 169.298 182.309 170.398C182.309 172.103 180.953 173.379 179.059 173.379C178.106 173.379 177.3 173.111 176.884 172.842L177.179 171.943C177.543 172.157 178.254 172.426 179.046 172.426C180.16 172.426 181.114 171.701 181.114 170.533C181.1 169.406 180.348 168.6 178.603 168.6C178.106 168.6 177.717 168.654 177.395 168.695L177.959 164.506H182.134V165.497Z" fill="white"/>
<path d="M201.4 165.336C201.158 165.322 200.849 165.336 200.514 165.39C198.661 165.699 197.68 167.054 197.48 168.491H197.52C197.936 167.94 198.661 167.483 199.627 167.483C201.172 167.483 202.259 168.598 202.259 170.303C202.259 171.9 201.172 173.377 199.359 173.377C197.492 173.377 196.271 171.927 196.271 169.658C196.271 167.94 196.888 166.584 197.747 165.724C198.472 165.013 199.439 164.569 200.54 164.435C200.889 164.381 201.185 164.368 201.399 164.368V165.336H201.4ZM201.065 170.369C201.065 169.121 200.354 168.37 199.265 168.37C198.554 168.37 197.896 168.812 197.573 169.444C197.492 169.578 197.439 169.753 197.439 169.967C197.466 171.403 198.124 172.464 199.36 172.464C200.38 172.464 201.065 171.619 201.065 170.369Z" fill="white"/>
<path d="M160.195 147.05H160.169L158.652 147.87L158.423 146.971L160.33 145.951H161.337V154.678H160.196V147.05H160.195Z" fill="white"/>
<path d="M176.925 154.675V153.95L177.852 153.051C180.08 150.93 181.087 149.802 181.101 148.486C181.101 147.6 180.671 146.782 179.37 146.782C178.578 146.782 177.92 147.184 177.517 147.52L177.142 146.688C177.746 146.178 178.606 145.802 179.612 145.802C181.492 145.802 182.284 147.09 182.284 148.339C182.284 149.95 181.116 151.252 179.277 153.025L178.578 153.669V153.696H182.498V154.675H176.925V154.675Z" fill="white"/>
<path d="M196.702 153.32C197.037 153.534 197.816 153.871 198.635 153.871C200.152 153.871 200.622 152.904 200.608 152.179C200.594 150.957 199.494 150.433 198.352 150.433H197.694V149.547H198.352C199.211 149.547 200.299 149.104 200.299 148.07C200.299 147.372 199.857 146.755 198.768 146.755C198.07 146.755 197.399 147.064 197.023 147.333L196.714 146.474C197.171 146.138 198.057 145.803 198.997 145.803C200.715 145.803 201.493 146.823 201.493 147.884C201.493 148.783 200.956 149.548 199.882 149.938V149.964C200.956 150.179 201.829 150.984 201.829 152.206C201.829 153.602 200.742 154.824 198.647 154.824C197.668 154.824 196.808 154.515 196.379 154.234L196.702 153.32Z" fill="white"/>
<path d="M161.53 210.196C161.53 210.778 161.059 211.249 160.477 211.249C159.896 211.249 159.424 210.778 159.424 210.196C159.424 209.615 159.896 209.143 160.477 209.143C161.06 209.143 161.53 209.615 161.53 210.196Z" fill="white"/>
<path d="M224.389 159.983H218.85V154.443H217.425V159.983H211.885V161.408H217.425V166.947H218.85V161.408H224.389V159.983Z" fill="white"/>
<path d="M202.604 210.18L199.671 207.247L202.604 204.314L201.85 203.56L198.917 206.493L195.984 203.56L195.23 204.314L198.163 207.247L195.23 210.18L195.984 210.934L198.917 208.001L201.85 210.934L202.604 210.18Z" fill="white"/>
<path d="M222.433 187.608H213.156V189.029H222.433V187.608Z" fill="white"/>
<path d="M222.775 204.029H213.498V205.45H222.775V204.029Z" fill="white"/>
<path d="M222.775 207.605H213.498V209.026H222.775V207.605Z" fill="white"/>
<path d="M164.952 153.582H133.691V166.81H164.952V153.582Z" fill="#F4A640"/>
<path d="M133.692 153.582H102.431V166.81H133.692V153.582Z" fill="#FEB546"/>
<path d="M102.431 153.582H71.1699V166.81H102.431V153.582Z" fill="#F9C27A"/>
<path d="M165.198 167.198H70.9253V153.192H165.198V167.198ZM71.4146 166.421H164.707V153.97H71.4146V166.421Z" fill="#E2881E"/>
<path d="M160.163 180.039H128.902V193.266H160.163V180.039Z" fill="#F4A640"/>
<path d="M128.903 180.039H97.6416V193.266H128.903V180.039Z" fill="#FEB546"/>
<path d="M97.6419 180.039H66.3809V193.266H97.6419V180.039Z" fill="#F9C27A"/>
<path d="M160.408 193.655H66.1362V179.649H160.408V193.655ZM66.6255 192.878H159.918V180.427H66.6255V192.878Z" fill="#E2881E"/>
<path d="M164.952 193.266H133.691V206.494H164.952V193.266Z" fill="#F4A640"/>
<path d="M133.692 193.266H102.431V206.494H133.692V193.266Z" fill="#FEB546"/>
<path d="M102.431 193.266H71.1699V206.494H102.431V193.266Z" fill="#F9C27A"/>
<path d="M165.198 206.884H70.9253V192.878H165.198V206.884ZM71.4146 206.106H164.707V193.655H71.4146V206.106Z" fill="#E2881E"/>
<path d="M172.499 206.495H141.238V219.723H172.499V206.495Z" fill="#F4A640"/>
<path d="M141.238 206.495H109.977V219.723H141.238V206.495Z" fill="#FEB546"/>
<path d="M109.976 206.495H78.7153V219.723H109.976V206.495Z" fill="#F9C27A"/>
<path d="M172.743 220.113H78.4707V206.107H172.743V220.113ZM78.9612 219.335H172.254V206.884H78.9612V219.335Z" fill="#E2881E"/>
<path d="M170.104 166.81H138.843V180.037H170.104V166.81Z" fill="#F4A640"/>
<path d="M138.843 166.81H107.582V180.037H138.843V166.81Z" fill="#FEB546"/>
<path d="M107.582 166.81H76.3208V180.037H107.582V166.81Z" fill="#F9C27A"/>
<path d="M170.348 180.427H76.0762V166.421H170.348V180.427ZM76.5667 179.649H169.859V167.198H76.5667V179.649Z" fill="#E2881E"/>
<path d="M92.1778 65.8921L93.121 72.9977L88.0733 69.3119L72.625 61.4194L84.5741 62.5139C84.5741 62.5139 90.6608 63.993 90.9912 64.2906C91.3203 64.5895 92.1778 65.8921 92.1778 65.8921Z" fill="#6DB1B5"/>
<path d="M187.653 111.49V112.705L190.397 113.422L190.474 110.744L187.653 111.49Z" fill="#FFC0BB"/>
<path d="M193.881 111.238V112.686C193.881 112.686 196.518 113.476 196.507 113.483C196.497 113.489 196.722 111.107 196.722 111.107L193.881 111.238Z" fill="#FFC0BB"/>
<path d="M97.4689 61.6022L72.625 61.4206L92.1778 65.892L97.4689 61.6022Z" fill="#8FD0D6"/>
<path d="M84.1907 73.0405L90.7012 67.8125L72.625 61.4206L84.1907 73.0405Z" fill="#8FD0D6"/>
<path d="M122.904 104.298L122.576 103.814C123.078 103.474 123.538 103.057 123.943 102.577L124.391 102.954C123.951 103.474 123.451 103.927 122.904 104.298Z" fill="#6DB1B5"/>
<path d="M126.192 99.5288L125.633 99.3535C125.972 98.2741 126.195 97.0484 126.299 95.7118L126.883 95.7572C126.775 97.1379 126.543 98.4077 126.192 99.5288ZM126.862 91.9326L126.28 91.9919C126.264 91.8317 126.245 91.6716 126.223 91.5114C126.151 90.9667 126.047 90.4169 125.913 89.8759C125.791 89.3779 125.639 88.876 125.465 88.3842L126.016 88.1888C126.197 88.6982 126.353 89.219 126.48 89.7347C126.619 90.2959 126.728 90.8671 126.802 91.432C126.826 91.5959 126.846 91.7636 126.862 91.9326ZM123.861 85.0426C123.236 84.0212 122.489 83.0162 121.643 82.0541L122.082 81.667C122.951 82.653 123.716 83.6858 124.359 84.7362L123.861 85.0426ZM105.582 83.658C105.184 83.7564 104.169 83.7791 103.518 83.3907C103.031 83.1007 102.625 82.6442 102.345 82.0717L102.871 81.8145C103.104 82.2911 103.423 82.6518 103.818 82.8876C104.288 83.1675 105.126 83.1675 105.443 83.0893C105.486 83.0793 105.503 83.0704 105.503 83.0704C105.528 83.054 105.557 83.0351 105.586 83.0162L105.911 83.5029C105.877 83.5256 105.844 83.5471 105.81 83.5685C105.75 83.6063 105.677 83.6353 105.582 83.658ZM118.978 79.4438C118.047 78.6519 117.038 77.8991 115.981 77.2069L116.302 76.7176C117.379 77.4225 118.408 78.1904 119.357 78.9987L118.978 79.4438ZM108.017 80.2168L107.445 80.097C107.52 79.7364 107.559 79.3694 107.559 79.0038C107.561 78.4905 107.495 77.9597 107.364 77.4275C107.292 77.1388 107.201 76.8437 107.092 76.5512L107.639 76.3456C107.756 76.6596 107.856 76.9761 107.933 77.2876C108.075 77.8664 108.147 78.4439 108.146 79.005C108.143 79.4098 108.1 79.8171 108.017 80.2168ZM102.874 78.4161L102.345 78.1639C102.875 77.0555 103.871 76.0846 105.079 75.4995L105.16 75.4604L105.408 75.99L105.334 76.0253C104.244 76.5537 103.348 77.425 102.874 78.4161ZM112.579 75.7933C111.519 75.4692 110.677 75.2725 110.268 75.2523C109.8 75.2296 109.373 75.2259 108.96 75.2372L108.943 74.6521C109.37 74.6395 109.813 74.6446 110.296 74.6672C110.917 74.6963 112.1 75.0342 112.75 75.2322L112.579 75.7933ZM105.194 73.4252C104.396 72.4908 103.462 71.6787 102.42 71.0117L102.735 70.5186C103.827 71.2172 104.803 72.0671 105.639 73.0456L105.194 73.4252Z" fill="#6DB1B5"/>
<path d="M99.0641 69.5123C98.4488 69.3434 97.8271 69.2261 97.2168 69.1643L97.2761 68.5817C97.9192 68.6473 98.5724 68.7696 99.2192 68.9487L99.0641 69.5123Z" fill="#6DB1B5"/>
<path d="M177.717 55.059L177.213 58.2165L176.15 54.0061C176.15 54.0061 177.641 53.2823 177.706 53.5458C177.772 53.8093 177.717 55.059 177.717 55.059Z" fill="#07085B"/>
<path d="M169.255 61.8544L168.795 67.3132L173.612 67.0825L173.057 62.2491L169.255 61.8544Z" fill="#FFC0BB"/>
<path d="M173.321 64.5479L173.057 62.2491L169.257 61.8544L169.098 63.7446C169.852 64.4974 171.211 65.278 173.321 64.5479Z" fill="#F99893"/>
<path d="M176.274 58.1761C175.984 58.7751 176.138 59.4484 176.617 59.6805C177.096 59.9125 177.719 59.6149 178.009 59.0159C178.299 58.4169 178.145 57.7436 177.666 57.5116C177.187 57.2795 176.564 57.5771 176.274 58.1761Z" fill="#F99893"/>
<path d="M175.87 61.7624C176.041 61.5064 176.187 61.234 176.309 60.9452C176.654 60.1735 176.855 59.3425 176.974 58.615C176.999 58.4586 177.033 58.3048 177.071 58.1509C177.221 57.5292 177.26 56.8635 177.157 56.1699C176.821 53.9367 175.024 52.1562 172.787 51.846C169.774 51.4299 167.118 53.6606 166.931 56.6163C166.621 56.4171 166.263 56.3528 165.936 56.4751C165.31 56.7084 165.039 57.533 165.33 58.3174C165.622 59.1004 166.366 59.5468 166.993 59.3135C167.08 59.2808 167.16 59.2366 167.233 59.1824C167.33 61.7132 169.267 63.785 171.741 63.901C172.95 63.9577 174.076 63.5353 174.95 62.7976C175.008 62.7548 175.07 62.7043 175.134 62.6463C175.418 62.3866 175.66 62.0864 175.87 61.7624Z" fill="#FFC0BB"/>
<path d="M173.221 56.9643C173.232 57.2594 173.234 57.5469 173.249 57.8293C173.268 58.1055 173.297 58.3993 173.408 58.5947L173.431 58.6263C173.44 58.6376 173.441 58.6439 173.458 58.6654C173.485 58.7019 173.516 58.7335 173.537 58.7763C173.581 58.857 173.612 58.9503 173.614 59.0462C173.62 59.2416 173.518 59.4156 173.389 59.5228C173.126 59.7435 172.785 59.7649 172.504 59.6956C172.791 59.6451 173.068 59.5455 173.228 59.3576C173.302 59.2643 173.351 59.1597 173.334 59.0626C173.329 59.0147 173.312 58.9667 173.283 58.9226C173.273 58.8986 173.25 58.8797 173.235 58.857L173.199 58.8078L173.157 58.7511C173.065 58.5935 173.035 58.4346 173.018 58.2808C173.005 58.1257 173.006 57.9756 173.021 57.8268C173.047 57.5292 173.11 57.2392 173.221 56.9643Z" fill="#F99893"/>
<path d="M171.514 57.3539C171.503 57.6024 171.292 57.7928 171.044 57.7814C170.795 57.7701 170.605 57.5595 170.616 57.3111C170.628 57.0627 170.838 56.8723 171.087 56.8836C171.335 56.8962 171.525 57.1068 171.514 57.3539Z" fill="#333333"/>
<path d="M175.356 57.7877C175.344 58.0361 175.134 58.2265 174.885 58.2152C174.637 58.2038 174.447 57.9933 174.458 57.7449C174.469 57.4964 174.68 57.306 174.928 57.3174C175.175 57.33 175.367 57.5393 175.356 57.7877Z" fill="#333333"/>
<path d="M170.761 60.3967C170.879 60.4988 171.002 60.5946 171.131 60.6791C171.26 60.7661 171.392 60.8443 171.531 60.9112C171.807 61.0448 172.101 61.1419 172.403 61.1785C172.705 61.2163 173.012 61.1898 173.308 61.1116C173.603 61.0284 173.884 60.8935 174.15 60.7296C174.03 60.8304 173.902 60.9212 173.767 61.0019C173.631 61.0826 173.484 61.1444 173.336 61.1987C173.184 61.2491 173.028 61.2844 172.869 61.3008C172.71 61.3159 172.549 61.3134 172.39 61.2957C172.072 61.2541 171.766 61.1482 171.491 60.9906C171.215 60.833 170.962 60.6363 170.761 60.3967Z" fill="#F99893"/>
<path d="M172.077 56.3401C171.849 56.2695 171.633 56.2153 171.42 56.1825C171.207 56.1497 170.999 56.1434 170.796 56.1686C170.594 56.1951 170.391 56.2392 170.196 56.3275C170.092 56.3603 170.002 56.4208 169.897 56.465C169.796 56.5154 169.702 56.5797 169.589 56.6289C169.646 56.5242 169.712 56.4233 169.789 56.3288C169.873 56.2443 169.955 56.1484 170.06 56.0841C170.258 55.9341 170.506 55.8471 170.756 55.8168C171.008 55.7865 171.265 55.8231 171.493 55.9152C171.723 56.0085 171.931 56.1472 172.077 56.3401Z" fill="#07085B"/>
<path d="M174.057 56.5633C174.239 56.4032 174.469 56.3074 174.712 56.2594C174.954 56.214 175.213 56.2279 175.454 56.3061C175.694 56.3855 175.921 56.5179 176.085 56.7046C176.176 56.7878 176.237 56.8975 176.304 56.9971C176.361 57.1043 176.406 57.2165 176.442 57.33C176.341 57.2594 176.261 57.1787 176.172 57.1093C176.077 57.0463 176 56.9681 175.906 56.9164C175.732 56.7916 175.54 56.7096 175.348 56.644C175.154 56.581 174.949 56.5457 174.733 56.5369C174.516 56.5268 174.295 56.5381 174.057 56.5633Z" fill="#07085B"/>
<path d="M171.908 87.4599C171.908 87.4599 170.903 94.2742 177.488 95.4608C184.072 96.6486 192.264 96.2943 192.264 96.2943L193.404 111.947L196.842 112.122C196.842 112.122 205.693 90.374 193.442 86.9744L182.434 87.0286L177.901 86.7045C177.901 86.7045 173.313 85.5709 173.26 85.7866C173.204 86.0022 172.016 87.5683 171.908 87.4599Z" fill="#E03268"/>
<path d="M165.857 87.4964C165.857 87.4964 164.852 94.3108 171.437 95.4974C178.021 96.6852 186.212 96.3309 186.212 96.3309L187.352 111.983L190.789 112.159C190.789 112.159 199.64 90.4106 187.39 87.011L176.381 87.0652L171.848 86.7411C171.848 86.7411 167.261 85.6075 167.208 85.8231C167.153 86.0387 165.966 87.6036 165.857 87.4964Z" fill="#FF5B7E"/>
<path d="M174.15 65.1367C174.15 65.1367 178.684 65.7118 179.835 66.6474C180.986 67.583 186.527 81.3265 186.527 81.3265L181.922 86.7235L172.137 86.7954C172.137 86.7954 164.798 90.7523 160.193 87.011C155.588 83.2697 157.962 70.2462 160.624 67.4393C163.286 64.6336 168.035 64.7055 168.035 64.7055C168.035 64.7055 172.351 67.7268 174.15 65.1367Z" fill="#333333"/>
<path d="M165.371 71.9713C165.534 72.7203 165.632 73.4806 165.703 74.2435C165.742 74.6244 165.759 75.0077 165.781 75.391C165.793 75.7744 165.801 76.1577 165.796 76.5423C165.781 77.309 165.74 78.0794 165.607 78.8386C165.479 79.5951 165.291 80.3543 164.939 81.0377C165.176 80.3089 165.293 79.5586 165.378 78.807C165.461 78.0542 165.49 77.2964 165.5 76.5373C165.515 75.7782 165.498 75.019 165.474 74.2574C165.447 73.497 165.412 72.7367 165.371 71.9713Z" fill="white"/>
<path d="M178.935 71.4681C179.141 72.5828 179.361 73.6938 179.584 74.8022C179.812 75.9093 180.047 77.0152 180.315 78.1123C180.58 79.2093 180.875 80.3001 181.231 81.3681C181.41 81.9028 181.609 82.4299 181.842 82.9406C182.073 83.4538 182.346 83.9493 182.712 84.3831C182.296 83.9947 181.99 83.5017 181.713 83.0049C181.444 82.5017 181.213 81.9784 181.014 81.445C180.81 80.9129 180.636 80.3707 180.47 79.8272C180.31 79.2812 180.165 78.7327 180.028 78.1804C179.898 77.628 179.773 77.0732 179.661 76.5171C179.552 75.9598 179.447 75.4024 179.357 74.8425C179.173 73.724 179.029 72.598 178.935 71.4681Z" fill="white"/>
<path d="M181.213 83.6126C181.184 83.3844 179.455 83.131 178.82 83.0982C178.338 83.0729 175.145 82.967 174.06 82.9178L174.139 83.1965L174.123 84.4298L173.945 85.2469C174.897 85.3074 177.227 85.3982 177.711 85.494C178.36 85.6227 179.483 86.1107 179.483 86.1107C179.483 86.1107 179.951 86.0047 179.357 85.7487C178.88 85.5432 178.545 85.2242 178.404 85.0653C178.322 84.9745 178.41 84.8118 178.469 84.827C180.086 85.2507 180.252 85.3213 180.252 85.3213C180.252 85.3213 182.153 85.3112 180.262 84.8837C179.13 84.6277 178.724 84.4789 178.623 84.3516C178.58 84.2974 178.657 84.1133 178.726 84.1095C179.708 84.0489 181.469 84.397 180.986 84.1687C180.593 83.9821 179.353 83.7791 178.871 83.7022C178.842 83.6971 178.795 83.5181 178.926 83.5067C179.86 83.4273 181.24 83.8232 181.213 83.6126Z" fill="#FFC0BB"/>
<path d="M164.266 80.8486C164.664 80.9457 165.056 81.0567 165.456 81.1399C165.853 81.2345 166.255 81.3038 166.654 81.3871C167.456 81.5333 168.26 81.6607 169.067 81.7742C169.876 81.8801 170.684 81.9785 171.496 82.0567C172.304 82.1374 173.127 82.2054 173.926 82.2508L174.033 82.2572L174.057 82.3505C174.125 82.6216 174.171 82.8864 174.205 83.1575C174.239 83.4273 174.253 83.6997 174.253 83.9721C174.25 84.2445 174.227 84.5181 174.182 84.7879C174.133 85.0578 174.052 85.3213 173.945 85.5748L173.936 85.5962L173.918 85.6076L173.029 86.204C172.733 86.4033 172.436 86.6 172.137 86.7942C172.415 86.571 172.697 86.3516 172.979 86.1334L173.826 85.479L173.8 85.513C173.889 85.2684 173.952 85.0149 173.987 84.7564C174.018 84.4979 174.032 84.2356 174.024 83.9733C174.016 83.7111 173.99 83.45 173.954 83.1903C173.916 82.9318 173.864 82.6695 173.796 82.4236L173.927 82.5232C173.505 82.5119 173.104 82.4854 172.693 82.4551C172.284 82.4249 171.876 82.3921 171.468 82.3492C170.654 82.2647 169.84 82.1638 169.031 82.034C168.221 81.9028 167.417 81.7452 166.62 81.5573C166.223 81.4552 165.824 81.3581 165.433 81.2345C165.037 81.1235 164.65 80.9861 164.266 80.8486Z" fill="white"/>
<path d="M201.684 74.4542H183.983L178.965 86.7046H172.855C172.617 86.7046 172.416 86.9379 172.424 87.1358C172.432 87.3742 172.617 87.5671 172.855 87.5671H195.803L201.684 74.4542Z" fill="#8FD0D6"/>
<path d="M192.906 81.445C192.802 81.9671 192.347 82.3164 191.89 82.2243C191.434 82.1323 191.147 81.6354 191.252 81.1134C191.357 80.5914 191.812 80.2421 192.268 80.3341C192.726 80.4249 193.011 80.923 192.906 81.445Z" fill="#DAEEF7"/>
<path d="M177.813 52.0717C177.813 52.0717 179.324 52.1209 177.739 50.8422C176.153 49.5649 171.896 48.0655 169.166 49.5068C169.166 49.5068 168.62 48.3467 167.832 48.6242C167.042 48.9016 168.345 49.6998 168.345 49.6998C168.345 49.6998 167.337 49.667 167.03 50.1613C166.803 50.527 167.419 50.5421 167.756 50.5257C167.182 50.6228 164.984 52.0124 166.088 56.4448C166.48 56.359 168.716 53.117 168.716 53.117C168.716 53.117 173.826 55.9568 173.322 53.6983C173.322 53.6983 178.617 57.0034 177.866 54.2734C177.865 54.2746 179.913 54.4247 177.813 52.0717Z" fill="#07085B"/>
<path d="M166.083 56.4713C166.083 56.4713 166.506 56.3225 166.961 56.6831C167.417 57.0438 167.366 58.3136 167.366 58.3136C167.366 58.3136 169.539 59.7145 169.309 53.7854C169.066 47.4779 167.497 54.291 167.497 54.291L166.083 56.4713Z" fill="#07085B"/>
<path d="M68.3314 48.4691L55.1037 66.4104L59.8828 68.694L54.0898 83.1486L68.3591 66.5705L62.7515 64.355L68.3314 48.4691Z" fill="#FEB546"/>
<path d="M102.201 152.013L104.954 150.316L107.331 151.752L106.5 152.344L103.617 152.75C103.617 152.75 102.492 152.606 102.443 152.572C102.393 152.538 102.201 152.013 102.201 152.013Z" fill="#FFC0BB"/>
<path d="M102.201 152.013L101.504 152.462C101.181 152.667 101.324 153.166 101.706 153.167L106.987 153.192C107.173 153.194 107.325 153.044 107.326 152.857L107.331 151.752C103.808 152.854 102.595 152.509 102.201 152.013Z" fill="#FF5B7E"/>
<path d="M113.785 152.113L116.537 150.416L118.914 151.852L118.083 152.443L115.201 152.849C115.201 152.849 114.076 152.706 114.027 152.672C113.976 152.637 113.785 152.113 113.785 152.113Z" fill="#FFC0BB"/>
<path d="M113.785 152.113L113.088 152.562C112.765 152.766 112.907 153.266 113.289 153.267L118.57 153.292C118.757 153.293 118.908 153.143 118.909 152.957L118.915 151.852C115.391 152.954 114.178 152.607 113.785 152.113Z" fill="#FF5B7E"/>
<path d="M0 77.8865L9.97437 91.9931L12.8204 89.0349L22.042 96.8202L13.3235 82.2798L10.3274 85.866L0 77.8865Z" fill="#FEB546"/>
<path d="M31.3127 57.0009L29.7163 69.7557L32.7641 69.5578L33.9255 78.4628L36.4298 66.1002L32.9848 66.5667L31.3127 57.0009Z" fill="#FEB546"/>
<path d="M140.761 105.333C140.761 105.333 142.459 104.221 144.392 105.333C146.325 106.445 146.325 110.195 145.564 111.092C144.802 111.989 145.603 113.204 144.08 114.376C142.556 115.547 140.131 115.977 138.747 114.609C137.362 113.241 138.377 110.187 138.377 110.187L140.761 105.333Z" fill="#FF5B7E"/>
<path d="M119.371 117.823C119.339 117.901 119.232 117.914 119.184 117.845C118.811 117.304 117.624 115.606 117.464 115.671C117.275 115.746 118.298 117.288 118.184 117.44C118.071 117.591 117.11 116.063 116.921 116.176C116.732 116.29 117.653 117.654 117.59 117.73C117.527 117.805 116.503 116.592 116.352 116.592C116.201 116.592 117.135 118.02 117.085 118.133C117.034 118.247 116.061 117.476 115.985 117.552C115.909 117.628 115.846 117.665 117.539 120.029C117.539 120.029 118.275 120.773 118.325 121.075L119.218 121.355L120.127 120.459C120.127 120.459 120.216 116.718 120.09 116.63C119.971 116.546 119.863 116.611 119.371 117.823Z" fill="#FFC0BB"/>
<path d="M122.567 140.214L119.11 152.03L114.932 150.861L116.324 140.939L120.644 137.976L122.567 140.214Z" fill="#191919"/>
<path d="M136.062 115.968C136.062 115.968 128.81 124.891 127.581 126.311L120.234 119.059C120.234 119.059 118.753 119.879 117.996 120.761C117.996 120.761 120.959 127.603 123.514 129.4L128.622 132.836L127.645 135.169L129.474 136.588L130.436 134.286L133.069 128.453L135.559 120.697L136.032 116.851L136.062 115.968Z" fill="#07085B"/>
<path d="M136.031 116.851C136.031 116.851 132.973 121.833 132.341 123.756C131.709 125.679 132.215 125.837 131.931 128.171C131.648 130.503 129.504 136.747 129.504 136.747L133.067 139.142C133.067 139.142 134.99 132.994 134.99 132.742C134.99 132.49 136.787 121.233 136.787 121.233L138.269 117.039L136.031 116.851Z" fill="white"/>
<path d="M132.721 138.89C132.721 138.89 126.604 133.404 121.874 132.3C117.144 131.197 104.423 150.384 104.423 150.384L107.465 152.575C107.465 152.575 118.469 144.661 120.55 141.129C120.55 141.129 129.49 152.918 132.485 153.201C135.48 153.485 138.859 152.852 142.842 148.065C147.357 142.639 132.721 138.89 132.721 138.89Z" fill="#333333"/>
<path d="M138.806 111.995L140.162 115.653C140.162 115.653 139.181 117.887 135.893 117.06C135.893 117.06 136.236 116.28 135.68 114.719C135.113 113.123 138.806 111.995 138.806 111.995Z" fill="#FFC0BB"/>
<path opacity="0.6" d="M138.806 111.995L139.442 113.703C139.148 114.98 138.072 115.881 135.994 116.225C135.982 115.85 135.905 115.349 135.68 114.719C135.113 113.123 138.806 111.995 138.806 111.995Z" fill="#FC8D84"/>
<path d="M120.014 137.55C119.953 137.85 119.926 138.156 119.927 138.463C119.928 138.769 119.953 139.077 120 139.38C120.048 139.683 120.116 139.982 120.198 140.279C120.28 140.575 120.381 140.864 120.504 141.149L120.576 141.087C120.412 140.978 120.256 140.847 120.107 140.712C119.958 140.577 119.813 140.436 119.675 140.29C119.537 140.142 119.406 139.989 119.277 139.831C119.149 139.675 119.03 139.511 118.909 139.347C119.014 139.521 119.125 139.691 119.243 139.856C119.359 140.024 119.49 140.18 119.622 140.335C119.757 140.488 119.895 140.639 120.044 140.778C120.195 140.917 120.348 141.05 120.522 141.168L120.659 141.261L120.594 141.106C120.477 140.828 120.383 140.538 120.296 140.248C120.212 139.957 120.141 139.662 120.089 139.363C120.037 139.064 119.996 138.763 119.985 138.459C119.97 138.159 119.98 137.854 120.014 137.55Z" fill="white"/>
<path d="M131.265 109.557C131.552 110.149 131.399 110.813 130.926 111.043C130.453 111.271 129.838 110.977 129.552 110.386C129.265 109.794 129.418 109.13 129.891 108.9C130.364 108.672 130.979 108.966 131.265 109.557Z" fill="#F99893"/>
<path d="M131.665 113.099C131.498 112.847 131.353 112.577 131.232 112.294C130.891 111.531 130.692 110.711 130.576 109.992C130.551 109.839 130.517 109.686 130.48 109.533C130.332 108.919 130.292 108.262 130.396 107.576C130.726 105.371 132.5 103.612 134.711 103.307C137.687 102.896 140.309 105.099 140.493 108.018C140.8 107.821 141.153 107.758 141.476 107.878C142.095 108.108 142.362 108.923 142.075 109.696C141.786 110.47 141.051 110.91 140.432 110.68C140.346 110.648 140.268 110.604 140.196 110.551C140.1 113.05 138.187 115.097 135.743 115.212C134.548 115.267 133.437 114.851 132.574 114.122C132.518 114.08 132.457 114.03 132.393 113.972C132.112 113.715 131.872 113.418 131.665 113.099Z" fill="#FFC0BB"/>
<path d="M134.28 108.361C134.292 108.648 134.301 108.933 134.293 109.214C134.285 109.354 134.282 109.494 134.256 109.629C134.234 109.762 134.202 109.897 134.139 109.997L134.114 110.033C134.105 110.045 134.1 110.054 134.085 110.073C134.061 110.107 134.032 110.136 134.014 110.175C133.994 110.213 133.974 110.25 133.964 110.292C133.949 110.333 133.944 110.376 133.942 110.42C133.934 110.595 134.027 110.755 134.144 110.859C134.263 110.966 134.408 111.026 134.554 111.055C134.7 111.083 134.849 111.083 134.992 111.058C134.848 111.042 134.709 111.016 134.581 110.967C134.452 110.919 134.335 110.847 134.249 110.754C134.166 110.659 134.108 110.545 134.123 110.431C134.127 110.403 134.129 110.376 134.14 110.348C134.147 110.32 134.162 110.295 134.176 110.27C134.187 110.243 134.212 110.222 134.229 110.198C134.248 110.174 134.278 110.132 134.302 110.1C134.385 109.955 134.415 109.803 134.436 109.656C134.452 109.507 134.451 109.361 134.442 109.214C134.42 108.922 134.369 108.636 134.28 108.361Z" fill="#F99893"/>
<path d="M135.966 108.745C135.978 108.99 136.186 109.179 136.43 109.168C136.675 109.156 136.864 108.948 136.853 108.704C136.841 108.459 136.633 108.27 136.389 108.281C136.144 108.294 135.955 108.501 135.966 108.745Z" fill="#333333"/>
<path d="M132.172 109.174C132.184 109.419 132.392 109.608 132.636 109.596C132.881 109.585 133.07 109.377 133.059 109.132C133.047 108.888 132.839 108.699 132.595 108.71C132.35 108.721 132.161 108.929 132.172 109.174Z" fill="#333333"/>
<path opacity="0.3" d="M136.168 112.115C136.168 112.115 135.525 111.91 134.944 112.324C134.944 112.324 134.284 111.944 133.79 112.348C133.79 112.348 134.061 113.3 135.119 113.197C136.176 113.092 136.168 112.115 136.168 112.115Z" fill="#F99893"/>
<path d="M136.71 111.75C136.594 111.851 136.472 111.946 136.343 112.029C136.217 112.115 136.085 112.192 135.949 112.257C135.675 112.389 135.386 112.485 135.087 112.522C134.788 112.56 134.486 112.533 134.193 112.456C133.902 112.374 133.625 112.241 133.362 112.078C133.481 112.178 133.607 112.268 133.742 112.347C133.876 112.426 134.021 112.487 134.168 112.541C134.317 112.59 134.472 112.625 134.63 112.642C134.787 112.657 134.946 112.654 135.102 112.637C135.416 112.596 135.719 112.49 135.991 112.335C136.261 112.181 136.511 111.987 136.71 111.75Z" fill="#F99893"/>
<path d="M135.409 107.744C135.635 107.675 135.848 107.621 136.059 107.588C136.269 107.555 136.475 107.55 136.675 107.574C136.874 107.6 137.075 107.643 137.268 107.731C137.37 107.763 137.46 107.824 137.563 107.868C137.663 107.917 137.756 107.981 137.867 108.03C137.811 107.927 137.746 107.826 137.67 107.734C137.587 107.651 137.506 107.556 137.402 107.492C137.206 107.343 136.961 107.259 136.714 107.227C136.466 107.197 136.211 107.233 135.985 107.324C135.76 107.416 135.554 107.554 135.409 107.744Z" fill="#FF5B7E"/>
<path d="M133.455 107.963C133.276 107.805 133.047 107.71 132.809 107.663C132.569 107.618 132.313 107.632 132.075 107.71C131.838 107.788 131.615 107.919 131.452 108.103C131.361 108.187 131.302 108.294 131.235 108.392C131.179 108.498 131.134 108.609 131.099 108.721C131.199 108.652 131.278 108.571 131.366 108.503C131.46 108.44 131.535 108.364 131.63 108.313C131.801 108.189 131.991 108.109 132.181 108.043C132.373 107.98 132.576 107.946 132.788 107.937C133.001 107.928 133.22 107.94 133.455 107.963Z" fill="#FF5B7E"/>
<path d="M126.339 135.741C132.42 129.659 132.42 119.8 126.339 113.719C120.258 107.638 110.398 107.638 104.317 113.719C98.2359 119.8 98.2359 129.659 104.317 135.741C110.398 141.822 120.258 141.822 126.339 135.741Z" fill="#F4A640"/>
<path d="M129.33 125.367C129.684 117.64 123.706 111.089 115.978 110.735C108.251 110.382 101.7 116.359 101.347 124.087C100.993 131.814 106.971 138.365 114.698 138.719C122.426 139.072 128.977 133.094 129.33 125.367Z" fill="#F9CC4B"/>
<path d="M120.232 136.89C113.526 139.593 105.872 136.337 103.169 129.631C100.465 122.925 103.722 115.271 110.428 112.567C117.134 109.864 124.788 113.121 127.492 119.827C130.194 126.533 126.938 134.187 120.232 136.89ZM110.608 113.015C104.15 115.619 101.012 122.992 103.616 129.451C106.22 135.909 113.593 139.047 120.052 136.443C126.511 133.839 129.648 126.466 127.044 120.007C124.44 113.548 117.067 110.411 110.608 113.015Z" fill="#F4A640"/>
<path opacity="0.5" d="M115.809 120.09C115.351 119.484 114.834 119.04 114.023 119C114.048 119.116 114.056 119.206 114.089 119.287C114.528 120.379 114.975 121.467 115.404 122.563C115.497 122.803 115.613 122.858 115.869 122.839C116.467 122.795 117.07 122.776 117.669 122.798C119.772 122.875 121.029 124.144 121.55 126.045C122.178 128.335 121.487 130.077 119.519 131.428C119.159 131.674 119.114 131.889 119.298 132.242C119.432 132.501 119.521 132.781 119.641 133.079C119.168 133.269 118.722 133.449 118.232 133.646C118.06 133.218 117.889 132.796 117.723 132.381C114.453 133.124 112.64 131.289 111.848 129.697C112.644 129.269 113.441 128.842 114.258 128.404C114.867 129.225 115.602 129.785 116.742 129.965C116.497 129.359 116.287 128.835 116.076 128.312C115.787 127.597 115.487 126.887 115.217 126.167C115.118 125.901 114.988 125.806 114.698 125.827C113.77 125.893 112.849 125.84 111.975 125.476C110.205 124.738 109.371 123.282 109.189 121.49C109.018 119.817 109.819 118.524 111.229 117.618C111.323 117.557 111.418 117.498 111.511 117.435C111.545 117.412 111.574 117.379 111.632 117.326C111.498 116.991 111.358 116.645 111.206 116.27C111.685 116.077 112.132 115.896 112.636 115.693C112.737 115.944 112.858 116.194 112.939 116.456C113.025 116.734 113.173 116.773 113.442 116.714C114.639 116.446 115.781 116.566 116.816 117.276C117.364 117.652 117.8 118.131 118.158 118.755C117.369 119.205 116.607 119.636 115.809 120.09ZM116.693 125.683C117.211 126.968 117.714 128.217 118.219 129.468C119.056 129.033 119.445 127.978 119.144 126.996C118.849 126.033 117.918 125.516 116.693 125.683ZM112.513 119.576C111.84 120.23 111.629 121.136 111.949 121.809C112.302 122.553 113.115 123.021 113.861 122.921C113.419 121.824 112.977 120.726 112.513 119.576Z" fill="#FFF9FF"/>
<path d="M120.846 127.574C120.88 127.661 120.804 127.752 120.712 127.733C120.004 127.583 117.769 127.125 117.69 127.298C117.595 127.502 119.583 127.96 119.607 128.167C119.63 128.375 117.704 127.879 117.638 128.114C117.573 128.349 119.344 128.741 119.352 128.849C119.359 128.958 117.622 128.763 117.499 128.878C117.378 128.993 119.208 129.427 119.253 129.555C119.299 129.684 117.937 129.805 117.934 129.923C117.932 130.042 117.909 130.12 121.054 130.727L122.302 130.912L123.403 130.514L123.451 129.106C123.451 129.106 120.688 126.048 120.521 126.074C120.359 126.098 120.321 126.233 120.846 127.574Z" fill="#FFC0BB"/>
<path d="M140.068 115.038C140.068 115.038 146.311 122.558 145.46 135.801C144.608 149.044 144.466 149.138 144.466 149.138C144.466 149.138 140.635 148.729 137.798 146.459C134.961 144.189 131.492 142.643 131.492 142.643L133.793 135.17C133.793 135.17 130.798 135.265 128.622 134.351C126.447 133.437 121.906 131.009 121.906 131.009C121.906 131.009 122.284 128.771 122.757 128.077C122.757 128.077 128.527 129.843 131.427 129.874C131.429 129.873 134.802 119.467 140.068 115.038Z" fill="#55769F"/>
<path d="M139.618 117.45C138.669 118.271 137.791 119.176 136.968 120.124C136.143 121.074 135.381 122.078 134.676 123.119L134.415 123.513C134.328 123.644 134.24 123.774 134.161 123.91L133.67 124.717C133.587 124.851 133.515 124.991 133.439 125.128L133.214 125.543L132.989 125.958C132.916 126.096 132.853 126.241 132.784 126.383L132.379 127.235L132.024 128.109L131.85 128.546L131.703 128.994C131.603 129.292 131.507 129.591 131.412 129.889C131.529 129.598 131.644 129.306 131.756 129.014L131.925 128.577L132.12 128.149L132.506 127.294L132.932 126.458C133.004 126.32 133.071 126.178 133.148 126.042L133.379 125.634L133.61 125.225C133.688 125.089 133.76 124.951 133.845 124.82L134.337 124.022C134.417 123.887 134.505 123.759 134.592 123.629L134.853 123.239C135.55 122.201 136.299 121.199 137.094 120.232L137.699 119.514C137.907 119.28 138.11 119.042 138.321 118.81C138.738 118.343 139.172 117.891 139.618 117.45Z" fill="#07085B"/>
<path d="M142.313 122.699C141.799 123.856 141.25 124.996 140.684 126.124C140.398 126.688 140.108 127.248 139.805 127.802C139.505 128.359 139.196 128.908 138.872 129.449C138.553 129.993 138.218 130.529 137.866 131.051C137.694 131.316 137.51 131.57 137.33 131.829C137.142 132.081 136.957 132.337 136.76 132.583C136.368 133.076 135.955 133.553 135.503 133.989C135.051 134.426 134.552 134.819 133.991 135.114C134.573 134.861 135.094 134.481 135.573 134.066C136.049 133.642 136.482 133.176 136.89 132.688C137.3 132.202 137.674 131.688 138.033 131.164C138.393 130.641 138.731 130.104 139.055 129.558C139.702 128.466 140.289 127.341 140.833 126.197C141.376 125.052 141.876 123.887 142.313 122.699Z" fill="#07085B"/>
<path d="M130.205 103.718C130.935 102.129 132.357 101.232 133.584 100.733C135.093 100.12 136.786 100.074 138.311 100.646C142.611 102.261 141.753 107.004 141.552 107.89C141.346 107.842 141.064 107.849 140.719 108.035C140.574 108.114 140.458 108.197 140.363 108.28C139.527 108.025 139.273 106.636 138.839 105.967C138.252 105.059 135.973 105.924 134.991 105.28C134.008 104.636 133.841 103.966 133.841 103.966C130.053 104.566 130.336 108.83 130.336 108.83C130.173 108.793 129.794 108.179 129.794 108.179C129.794 108.179 128.862 106.639 130.205 103.718Z" fill="#FF5B7E"/>
<path d="M270.797 163.891L262.707 168.976L262.102 216.77L263.714 217.877L265.297 217.525L269.887 186.101L273.633 165.817L270.797 163.891Z" fill="#FFC0BB"/>
<path d="M287.228 210.745C283.606 201.019 277.309 194.397 277.309 194.397C277.309 194.397 278.493 191.206 279.707 180.675C280.921 170.145 275.792 163.53 275.792 163.53L266.718 166.243C266.718 166.243 271.337 193.838 272.079 195.593C272.661 196.967 280.045 206.848 283.22 211.069L283.225 211.143L284.656 212.973L286.012 214.706L287.615 213.98L287.898 211.979L287.228 210.745Z" fill="#FFC0BB"/>
<path d="M262.7 168.301C262.7 168.301 260.575 184.525 260.814 196.645C260.814 196.645 269.023 197.941 275.05 197.487L275.31 190.551L276.606 197.097C276.606 197.097 279.587 196.967 280.949 195.865C280.949 195.865 280.119 188.939 280.366 183.616C280.614 178.293 280.39 171.595 278.638 167.151C276.885 162.708 267.144 167.575 267.144 167.575L262.7 168.301Z" fill="#333333"/>
<path d="M273.664 127.441C273.664 127.441 275.529 128.868 276.091 130.888C276.568 132.612 278.702 132.31 280.036 134.614C281.518 137.173 283.624 141.001 278.793 143.582C275.792 145.185 271.014 146.42 269.931 145.338C268.847 144.256 266.265 144.688 266.845 133.317C266.845 133.317 273.909 129.326 273.98 129.302C274.05 129.278 273.664 127.441 273.664 127.441Z" fill="#333333"/>
<path d="M264.26 160L265.124 156.283L262.973 150.509C262.973 150.509 261.794 155.091 260.03 159.177L253.548 159.965L252.18 160.224C252.18 160.224 261.051 165.281 263.46 161.559C263.712 161.621 263.873 161.66 263.873 161.66L264.103 160.671C264.231 160.453 264.337 160.229 264.408 160.002L264.26 160Z" fill="#E03268"/>
<path d="M272.508 139.859L272.334 142.59L268.612 143.364H267.954L268.091 140.092L272.04 138.697L272.508 139.859Z" fill="#FFC0BB"/>
<path d="M266.669 144.233C266.5 146.068 267.259 146.41 267.259 146.41L272.881 142.237C269.392 142.579 267.135 142.953 267.135 142.953C267.135 142.953 266.845 144.282 266.669 144.233Z" fill="#FFC0BB"/>
<path d="M275.996 133.918C275.996 133.918 277.144 129.209 274.41 127.444C271.676 125.68 268.777 125.877 266.804 126.934C264.83 127.99 263.647 131.675 264.533 133.781L271.085 131.771L275.996 133.918Z" fill="#333333"/>
<path d="M272.587 139.145C272.587 139.145 272.508 139.938 272.44 140.926C271.024 142.477 268.369 141.944 268.02 141.794C268.041 141.298 268.02 140.293 268.02 140.293L272.587 139.145Z" fill="#F99893"/>
<path d="M265.385 134.613C265.618 135.247 265.396 135.912 264.889 136.098C264.382 136.285 263.782 135.923 263.549 135.289C263.316 134.655 263.537 133.99 264.044 133.803C264.551 133.617 265.152 133.98 265.385 134.613Z" fill="#F99893"/>
<path d="M265.438 138.276C265.292 138.001 265.171 137.711 265.075 137.407C264.804 136.593 264.682 135.734 264.635 134.988C264.625 134.827 264.606 134.667 264.583 134.508C264.494 133.867 264.519 133.189 264.693 132.498C265.253 130.275 267.244 128.655 269.534 128.564C272.619 128.442 275.08 130.959 274.978 133.962C275.31 133.792 275.679 133.763 275.996 133.918C276.607 134.216 276.798 135.076 276.426 135.839C276.054 136.602 275.257 136.977 274.647 136.68C274.563 136.638 274.487 136.585 274.419 136.523C274.071 139.071 271.908 140.971 269.398 140.844C268.169 140.78 267.075 140.243 266.265 139.411C266.211 139.362 266.154 139.305 266.095 139.24C265.833 138.951 265.617 138.623 265.438 138.276Z" fill="#FFC0BB"/>
<path d="M270.136 134.68C270.123 134.951 270.331 135.182 270.602 135.194C270.873 135.208 271.104 135 271.116 134.729C271.129 134.458 270.922 134.227 270.651 134.215C270.38 134.202 270.149 134.41 270.136 134.68Z" fill="#333333"/>
<path d="M265.778 134.68C265.765 134.951 265.973 135.182 266.244 135.194C266.515 135.208 266.744 135 266.758 134.729C266.772 134.458 266.564 134.227 266.293 134.215C266.023 134.201 265.792 134.41 265.778 134.68Z" fill="#333333"/>
<path d="M269.723 133.862C269.946 133.743 270.178 133.656 270.414 133.597C270.651 133.54 270.892 133.52 271.129 133.542C271.247 133.553 271.364 133.577 271.48 133.609C271.538 133.624 271.595 133.646 271.652 133.665C271.681 133.675 271.707 133.688 271.735 133.699C271.763 133.71 271.792 133.722 271.818 133.735C272.038 133.84 272.245 133.978 272.446 134.13C272.296 133.926 272.105 133.751 271.884 133.616C271.773 133.548 271.654 133.491 271.531 133.45C271.407 133.409 271.277 133.38 271.146 133.368C270.885 133.345 270.619 133.38 270.376 133.467C270.254 133.51 270.138 133.566 270.027 133.631C269.917 133.696 269.812 133.772 269.723 133.862Z" fill="#333333"/>
<path d="M267.745 133.862C267.656 133.771 267.551 133.696 267.443 133.629C267.332 133.565 267.216 133.508 267.093 133.466C266.85 133.377 266.584 133.342 266.323 133.367C266.192 133.379 266.063 133.408 265.938 133.449C265.814 133.49 265.695 133.546 265.585 133.614C265.363 133.749 265.173 133.926 265.023 134.129C265.225 133.976 265.432 133.839 265.651 133.734C265.677 133.72 265.706 133.709 265.734 133.698C265.762 133.686 265.79 133.672 265.817 133.664C265.874 133.643 265.931 133.622 265.989 133.608C266.104 133.575 266.221 133.551 266.341 133.541C266.578 133.519 266.82 133.54 267.056 133.595C267.29 133.656 267.522 133.744 267.745 133.862Z" fill="#333333"/>
<path d="M278.958 150.356C278.84 150.233 278.727 150.094 278.625 149.953C278.523 149.81 278.426 149.663 278.341 149.508C278.254 149.355 278.176 149.196 278.109 149.032C278.039 148.87 277.987 148.701 277.933 148.529C277.956 148.707 277.99 148.884 278.045 149.055C278.07 149.142 278.103 149.225 278.135 149.31C278.171 149.392 278.205 149.476 278.247 149.557C278.329 149.718 278.42 149.876 278.524 150.023C278.608 150.143 278.697 150.257 278.797 150.365C278.706 150.383 278.611 150.395 278.519 150.399C278.391 150.406 278.261 150.4 278.132 150.382C278.068 150.374 278.005 150.359 277.94 150.345C277.879 150.326 277.814 150.311 277.754 150.287C277.629 150.245 277.513 150.182 277.397 150.115C277.5 150.2 277.61 150.279 277.732 150.336C277.853 150.398 277.983 150.441 278.116 150.469C278.248 150.496 278.386 150.513 278.522 150.509C278.659 150.506 278.793 150.494 278.932 150.457L279.03 150.431L278.958 150.356Z" fill="white"/>
<path d="M268.32 134.454C268.183 134.677 268.065 134.911 267.957 135.149C267.85 135.387 267.757 135.633 267.684 135.888C267.65 136.017 267.619 136.146 267.611 136.286C267.609 136.322 267.609 136.358 267.614 136.396C267.617 136.415 267.622 136.435 267.626 136.455C267.635 136.477 267.64 136.497 267.655 136.518C267.662 136.53 267.671 136.54 267.679 136.55L267.699 136.568C267.713 136.579 267.725 136.592 267.739 136.602C267.768 136.622 267.796 136.642 267.825 136.658C267.941 136.73 268.065 136.781 268.189 136.825C268.314 136.866 268.44 136.903 268.57 136.924C268.334 136.812 268.097 136.701 267.896 136.555C267.87 136.537 267.848 136.517 267.825 136.497L267.793 136.467L267.778 136.452C267.777 136.448 267.776 136.445 267.774 136.443C267.759 136.418 267.757 136.352 267.763 136.295C267.776 136.175 267.805 136.052 267.84 135.93C267.907 135.684 267.993 135.439 268.076 135.194C268.158 134.95 268.244 134.704 268.32 134.454Z" fill="#F99893"/>
<path d="M278.069 158.146C278.737 154.423 279.025 150.43 279.025 150.43C279.063 149.509 277.972 148.238 277.923 147.517C276.991 146.758 276.77 146.139 276.77 146.139L275.146 142.767C275.146 142.767 274.066 142.238 274.066 142.237C273.221 142.158 272.808 142.235 272.808 142.235L270.023 144.332C268.858 145.208 267.188 144.412 267.135 142.955C267.134 142.955 267.134 142.955 267.133 142.953C264.689 144.913 263.045 145.797 262.705 148.944C262.468 151.141 263.662 153.001 263.795 155.093L262.7 168.302C262.7 168.302 271.921 168.406 278.637 167.154C278.637 167.153 278.007 163.423 278.069 158.146Z" fill="#FF5B7E"/>
<path d="M261.937 167.719L252.316 168.299C251.708 168.336 251.035 167.946 250.81 167.429L245.748 155.717C245.525 155.2 245.837 154.751 246.445 154.714L256.066 154.134C256.674 154.098 257.347 154.487 257.571 155.004L262.633 166.716C262.856 167.233 262.545 167.682 261.937 167.719Z" fill="#333333"/>
<path d="M253.217 154.893L249.942 155.091C249.68 155.108 249.389 154.939 249.292 154.716L249.201 154.505C249.104 154.282 249.239 154.088 249.501 154.071L252.776 153.873C253.038 153.857 253.329 154.026 253.426 154.249L253.517 154.458C253.614 154.684 253.479 154.878 253.217 154.893Z" fill="#C8EEF1"/>
<path d="M249.636 164.727L249.595 164.744C249.352 164.851 249.067 164.758 248.936 164.529L247.428 161.911C247.353 161.785 247.356 161.626 247.438 161.504C247.693 161.123 248.243 160.34 248.431 160.367C248.678 160.405 247.923 161.707 248.026 161.733C248.129 161.759 249.199 160.892 249.289 161.033C249.37 161.159 248.429 162.168 248.472 162.247C248.515 162.326 249.603 161.694 249.721 161.807C249.827 161.91 248.803 162.725 248.817 162.782L249.636 164.727Z" fill="#FFC0BB"/>
<path d="M248.743 162.814C248.743 162.814 249.831 162.483 249.927 162.606C250.023 162.728 248.736 163.421 248.743 163.39C248.748 163.357 248.743 162.814 248.743 162.814Z" fill="#FFC0BB"/>
<path d="M275.639 133.269L275.516 133.254L275.434 132.232L274.977 131.288C274.977 131.288 273.188 128.747 273.125 128.684C273.062 128.621 271.697 127.802 271.613 127.76C271.529 127.717 269.618 128.033 269.618 128.033C269.618 128.033 266.256 127.309 266.825 129.188C267.394 131.067 269.849 132.044 269.975 131.96C269.577 131.54 269.534 130.343 269.534 130.343C271.424 132.527 274.977 133.964 274.977 133.964C274.977 133.964 275.349 133.68 275.996 133.92L275.639 133.269Z" fill="#333333"/>
<path d="M267.232 137.699C267.364 138.279 267.925 138.709 268.592 138.697C269.259 138.686 269.804 138.236 269.913 137.652L267.232 137.699Z" fill="white"/>
<path d="M279.741 151.351C279.741 151.351 278.374 143.84 274.179 142.275C273.043 141.851 271.831 142.685 271.825 143.899C271.816 145.626 277.131 158.424 276.585 159.081C275.841 159.975 262.205 163.197 261.748 163.304L260.124 163.149C258.786 163.056 257.368 162.874 257.289 162.974C257.18 163.114 257.25 163.249 258.675 163.92C258.767 163.964 258.776 164.092 258.688 164.145C258.011 164.559 255.891 165.875 255.957 166.072C256.035 166.305 257.958 165.174 258.133 165.322C258.307 165.468 256.404 166.523 256.528 166.759C256.651 166.995 258.355 165.975 258.442 166.056C258.529 166.136 257.001 167.289 256.991 167.47C256.98 167.653 258.761 166.622 258.895 166.69C259.028 166.758 258.035 167.878 258.122 167.975C258.207 168.071 257.876 168.214 260.833 166.333C260.833 166.333 261.562 165.843 261.829 165.637C261.829 165.637 278.765 163.246 279.818 161.907C281.769 159.419 279.741 151.351 279.741 151.351Z" fill="#FFC0BB"/>
<path d="M279.741 151.351C279.741 151.351 278.374 143.84 274.179 142.275C273.043 141.851 271.831 142.685 271.825 143.899C271.816 145.626 277.131 158.424 276.585 159.081C275.841 159.975 262.205 163.197 261.748 163.304L261.718 163.302C261.875 164.046 262.077 164.839 262.324 165.564C265.121 165.158 278.871 163.107 279.817 161.904C281.769 159.419 279.741 151.351 279.741 151.351Z" fill="#E03268"/>
<path d="M246.401 15.932C245.745 13.0784 243.192 10.9498 240.14 10.9498C239.58 10.9498 239.037 11.0217 238.519 11.1566C237.012 7.93483 233.743 5.70289 229.952 5.70289C228.972 5.70289 228.026 5.85168 227.137 6.1291C225.096 2.74967 221.388 0.48999 217.153 0.48999C212.112 0.48999 207.82 3.6891 206.193 8.16685C205.042 7.52501 203.717 7.15806 202.305 7.15806C197.887 7.15806 194.306 10.7392 194.306 15.1565C194.306 15.4188 194.32 15.6773 194.344 15.932H246.401V15.932Z" fill="white"/>
<path d="M149.841 41.7531C150.188 40.2437 151.539 39.1176 153.153 39.1176C153.449 39.1176 153.736 39.1555 154.01 39.2273C154.807 37.5238 156.536 36.3435 158.541 36.3435C159.059 36.3435 159.56 36.4229 160.029 36.5692C161.108 34.7811 163.069 33.587 165.31 33.587C167.975 33.587 170.245 35.2792 171.105 37.6473C171.714 37.3081 172.415 37.1139 173.162 37.1139C175.498 37.1139 177.392 39.0079 177.392 41.3445C177.392 41.4832 177.385 41.6194 177.372 41.7556H149.841V41.7531Z" fill="white"/>
<path d="M235.977 38.5717C236.323 37.0623 237.674 35.9362 239.288 35.9362C239.584 35.9362 239.872 35.9741 240.145 36.0459C240.942 34.3423 242.671 33.1608 244.676 33.1608C245.194 33.1608 245.695 33.2402 246.164 33.3865C247.243 31.5984 249.204 30.4043 251.445 30.4043C254.111 30.4043 256.381 32.0965 257.241 34.4647C257.85 34.1255 258.551 33.9313 259.297 33.9313C261.634 33.9313 263.528 35.8253 263.528 38.1619C263.528 38.3006 263.52 38.4368 263.508 38.5729H235.977V38.5717Z" fill="white"/>
<path d="M274.706 80.8486C275.126 79.0202 276.763 77.6558 278.718 77.6558C279.078 77.6558 279.426 77.7024 279.758 77.7882C280.723 75.724 282.818 74.294 285.248 74.294C285.876 74.294 286.482 74.3898 287.051 74.5676C288.359 72.4025 290.734 70.9537 293.449 70.9537C296.679 70.9537 299.429 73.0028 300.472 75.8728C301.209 75.4617 302.059 75.2259 302.963 75.2259C305.794 75.2259 308.089 77.5209 308.089 80.3518C308.089 80.5195 308.08 80.6859 308.065 80.8486H274.706V80.8486Z" fill="white"/>
<path d="M259.069 217.888L262.414 215.824L265.303 217.569L264.294 218.288L260.791 218.782C260.791 218.782 259.424 218.607 259.364 218.567C259.302 218.526 259.069 217.888 259.069 217.888Z" fill="#FFC0BB"/>
<path d="M259.069 217.888L258.221 218.433C257.828 218.681 258.002 219.288 258.467 219.29L264.886 219.321C265.111 219.322 265.297 219.139 265.298 218.912L265.304 217.569C261.022 218.91 259.548 218.49 259.069 217.888Z" fill="#07085B"/>
<path d="M285.133 217.576L285.042 213.467L287.899 211.979L288.032 213.211L286.754 216.51C286.754 216.51 285.934 217.618 285.868 217.651C285.804 217.683 285.133 217.576 285.133 217.576Z" fill="#FFC0BB"/>
<path d="M285.133 217.576L285.195 218.582C285.22 219.046 285.834 219.19 286.063 218.786L289.221 213.199C289.332 213.002 289.263 212.751 289.066 212.64L287.897 211.979C286.979 216.37 285.892 217.451 285.133 217.576Z" fill="#07085B"/>
<path d="M198.249 117.257L192.515 115.041C192.373 114.986 192.301 114.826 192.356 114.682L192.399 114.571C192.455 114.428 192.615 114.357 192.758 114.412L198.492 116.628C198.635 116.683 198.706 116.843 198.651 116.987L198.608 117.098C198.554 117.24 198.392 117.312 198.249 117.257Z" fill="white"/>
<path d="M193.524 112.511L192.64 114.18C192.531 114.386 192.575 114.629 192.734 114.689L198.244 116.818C198.387 116.874 198.563 116.838 198.703 116.7C198.846 116.557 198.962 116.304 198.85 115.86C198.627 114.972 197.071 114.175 196.508 113.273L193.942 112.281C193.8 112.228 193.623 112.324 193.524 112.511Z" fill="#333333"/>
<path d="M195.728 114.141C195.698 114.101 195.709 114.029 195.752 113.986C195.952 113.788 196.516 113.335 197.158 113.721C197.194 113.744 197.202 113.807 197.173 113.859L197.172 113.86C197.145 113.91 197.096 113.93 197.06 113.909C196.483 113.566 195.998 113.969 195.833 114.136C195.799 114.173 195.753 114.174 195.728 114.141Z" fill="white"/>
<path d="M196.214 114.587C196.184 114.547 196.195 114.475 196.238 114.432C196.438 114.234 197.002 113.782 197.644 114.167C197.68 114.19 197.688 114.253 197.659 114.305L197.658 114.306C197.631 114.357 197.582 114.377 197.545 114.355C196.969 114.012 196.484 114.415 196.318 114.582C196.283 114.619 196.239 114.62 196.214 114.587Z" fill="white"/>
<path d="M196.664 115.003C196.633 114.963 196.645 114.891 196.687 114.848C196.888 114.65 197.452 114.198 198.093 114.584C198.13 114.606 198.138 114.669 198.109 114.721L198.107 114.722C198.081 114.773 198.032 114.793 197.995 114.771C197.419 114.428 196.933 114.832 196.768 114.998C196.734 115.034 196.689 115.036 196.664 115.003Z" fill="white"/>
<path opacity="0.3" d="M194.206 115.258C194.318 113.677 193.63 113.232 193.208 113.106L192.64 114.18C192.531 114.386 192.575 114.629 192.734 114.689L194.206 115.258Z" fill="#E87B50"/>
<path d="M192.41 117.272L186.535 115.461C186.389 115.416 186.307 115.261 186.351 115.115L186.386 115.001C186.431 114.855 186.587 114.773 186.733 114.817L192.608 116.628C192.754 116.673 192.836 116.828 192.792 116.974L192.757 117.088C192.712 117.235 192.557 117.317 192.41 117.272Z" fill="white"/>
<path d="M187.366 112.867L186.6 114.595C186.506 114.808 186.567 115.046 186.73 115.097L192.374 116.837C192.521 116.882 192.695 116.836 192.824 116.687C192.958 116.534 193.055 116.275 192.913 115.84C192.628 114.97 191.021 114.284 190.397 113.424L187.768 112.613C187.622 112.566 187.451 112.675 187.366 112.867Z" fill="#333333"/>
<path d="M189.677 114.34C189.645 114.302 189.651 114.229 189.69 114.184C189.877 113.972 190.407 113.482 191.075 113.821C191.114 113.841 191.124 113.903 191.1 113.957L191.098 113.958C191.075 114.01 191.028 114.034 190.99 114.015C190.391 113.712 189.935 114.149 189.782 114.326C189.75 114.366 189.705 114.371 189.677 114.34Z" fill="white"/>
<path d="M190.193 114.751C190.16 114.714 190.167 114.64 190.206 114.595C190.392 114.383 190.923 113.893 191.59 114.232C191.629 114.252 191.639 114.314 191.615 114.368L191.614 114.369C191.59 114.421 191.544 114.445 191.506 114.426C190.907 114.123 190.45 114.56 190.298 114.738C190.265 114.778 190.221 114.783 190.193 114.751Z" fill="white"/>
<path d="M190.672 115.135C190.639 115.097 190.646 115.024 190.685 114.978C190.871 114.767 191.402 114.276 192.069 114.615C192.108 114.635 192.118 114.697 192.094 114.751L192.093 114.753C192.069 114.804 192.023 114.828 191.985 114.809C191.386 114.507 190.929 114.943 190.777 115.122C190.744 115.161 190.698 115.166 190.672 115.135Z" fill="white"/>
<path opacity="0.3" d="M188.237 115.561C188.238 113.976 187.522 113.58 187.092 113.484L186.6 114.595C186.506 114.808 186.567 115.046 186.73 115.097L188.237 115.561Z" fill="#E87B50"/>
</svg>
