<svg width="456" height="304" viewBox="0 0 456 304" fill="none" xmlns="http://www.w3.org/2000/svg">
<path d="M456 0H0V304H456V0Z" fill="#FFE7CC"/>
<path d="M91.4248 77.8848H350.706" stroke="white" stroke-width="1.4363" stroke-miterlimit="10"/>
<path d="M347.32 221.306H94.8114C92.9387 221.306 91.4248 219.792 91.4248 217.92V64.2718C91.4248 62.3992 92.9387 60.8853 94.8114 60.8853H347.32C349.193 60.8853 350.706 62.3992 350.706 64.2718V217.92C350.706 219.792 349.186 221.306 347.32 221.306Z" stroke="white" stroke-width="1.4363" stroke-miterlimit="10"/>
<path d="M108.509 69.5553C108.509 70.8625 107.445 71.9265 106.138 71.9265C104.831 71.9265 103.767 70.8625 103.767 69.5553C103.767 68.2481 104.831 67.1841 106.138 67.1841C107.452 67.1841 108.509 68.2481 108.509 69.5553Z" stroke="white" stroke-width="1.4363" stroke-miterlimit="10"/>
<path d="M117.727 69.5553C117.727 70.8625 116.663 71.9265 115.356 71.9265C114.048 71.9265 112.984 70.8625 112.984 69.5553C112.984 68.2481 114.048 67.1841 115.356 67.1841C116.669 67.1841 117.727 68.2481 117.727 69.5553Z" stroke="white" stroke-width="1.4363" stroke-miterlimit="10"/>
<path d="M126.944 69.5553C126.944 70.8625 125.88 71.9265 124.573 71.9265C123.266 71.9265 122.202 70.8625 122.202 69.5553C122.202 68.2481 123.266 67.1841 124.573 67.1841C125.886 67.1841 126.944 68.2481 126.944 69.5553Z" stroke="white" stroke-width="1.4363" stroke-miterlimit="10"/>
<path d="M96.9394 169.827H45.8492C44.2562 169.827 42.9673 168.538 42.9673 166.945V138.12C42.9673 136.527 44.2562 135.238 45.8492 135.238H96.9394C98.5324 135.238 99.8214 136.527 99.8214 138.12V166.945C99.8214 168.538 98.5324 169.827 96.9394 169.827Z" fill="#FADFE1"/>
<path d="M96.9394 169.827H45.8492C44.2562 169.827 42.9673 168.538 42.9673 166.945V138.12C42.9673 136.527 44.2562 135.238 45.8492 135.238H96.9394C98.5324 135.238 99.8214 136.527 99.8214 138.12V166.945C99.8214 168.538 98.5324 169.827 96.9394 169.827Z" stroke="white" stroke-width="1.4363" stroke-miterlimit="10"/>
<path d="M397.851 159.564H328.052C326.332 159.564 324.939 158.171 324.939 156.451V107.525C324.939 105.804 326.332 104.412 328.052 104.412H397.851C399.571 104.412 400.964 105.804 400.964 107.525V156.451C400.958 158.171 399.565 159.564 397.851 159.564Z" fill="#FADFE1"/>
<path d="M397.851 159.564H328.052C326.332 159.564 324.939 158.171 324.939 156.451V107.525C324.939 105.804 326.332 104.412 328.052 104.412H397.851C399.571 104.412 400.964 105.804 400.964 107.525V156.451C400.958 158.171 399.565 159.564 397.851 159.564Z" stroke="white" stroke-width="1.4363" stroke-miterlimit="10"/>
<path d="M283.206 100.588H242.227C241.534 100.588 240.968 100.022 240.968 99.3292V89.1331C240.968 88.44 241.534 87.8745 242.227 87.8745H283.212C283.905 87.8745 284.471 88.44 284.471 89.1331V99.3292C284.465 100.022 283.905 100.588 283.206 100.588Z" fill="#F36867"/>
<path d="M247 92.4043H276.25" stroke="white" stroke-width="0.8101" stroke-miterlimit="10"/>
<path d="M247 95.4565H259.099" stroke="white" stroke-width="0.8101" stroke-miterlimit="10"/>
<path d="M245.79 99.147V104.102L252.022 99.147H245.79Z" fill="#F36867"/>
<path d="M104.108 46.2507H49.0897C47.9527 46.2507 47.0347 45.3265 47.0347 44.1957C47.0347 43.0587 47.9588 42.1406 49.0897 42.1406H104.108C105.245 42.1406 106.163 43.0648 106.163 44.1957C106.163 45.3265 105.239 46.2507 104.108 46.2507Z" fill="#FF4848"/>
<path d="M418.675 205.717H375.562C374.425 205.717 373.507 204.793 373.507 203.662C373.507 202.525 374.431 201.607 375.562 201.607H418.675C419.812 201.607 420.73 202.531 420.73 203.662C420.73 204.799 419.812 205.717 418.675 205.717Z" fill="#FCEEEF"/>
<path d="M230.329 34.413H225.513C224.249 34.413 223.221 33.3855 223.221 32.1209V27.5973C223.221 26.3327 224.249 25.3052 225.513 25.3052H230.329C231.593 25.3052 232.621 26.3327 232.621 27.5973V32.1209C232.621 33.3855 231.599 34.413 230.329 34.413Z" fill="#FF4848"/>
<path d="M47.2964 207.851H40.961C39.2951 207.851 37.9453 206.501 37.9453 204.835V198.889C37.9453 197.223 39.2951 195.874 40.961 195.874H47.2964C48.9623 195.874 50.312 197.223 50.312 198.889V204.835C50.312 206.501 48.9623 207.851 47.2964 207.851Z" fill="#FCEEEF"/>
<path d="M378.298 75.4288H373.762C372.57 75.4288 371.604 74.462 371.604 73.2704V69.0144C371.604 67.8227 372.57 66.856 373.762 66.856H378.298C379.489 66.856 380.456 67.8227 380.456 69.0144V73.2704C380.456 74.462 379.489 75.4288 378.298 75.4288Z" fill="#FCEEEF"/>
<path d="M331.153 146.011C331.336 140.904 327.566 136.521 322.489 135.937C317.011 135.311 312.099 139.33 311.637 144.826C311.302 148.76 311.685 155.533 312.159 162.731L332.157 160.324L331.153 146.011Z" fill="#F8F2DA"/>
<path d="M332.15 160.324L312.153 162.731C312.786 172.259 313.582 177.719 313.138 183.148C312.634 189.277 317.467 194.524 323.614 194.536C329.287 194.548 333.95 190.055 334.157 184.388L332.15 160.324Z" fill="#FCA0A0"/>
<path d="M280.361 156.554L326.295 179.537C331.39 182.364 332.825 187.963 330.174 192.213C327.493 196.506 321.741 197.649 317.625 194.7L276.099 164.793L280.361 156.554Z" fill="#FCA0A0"/>
<path d="M273.18 167.504C277.898 169.097 283.012 166.568 284.605 161.85C286.198 157.132 283.668 152.018 278.95 150.425C274.232 148.832 269.119 151.362 267.526 156.08C265.933 160.792 268.462 165.905 273.18 167.504Z" fill="#FCA0A0"/>
<path d="M274.014 150.699C274.014 150.699 273.558 147.173 278.142 148.34C282.726 149.507 286.824 153.058 284.599 161.85L274.014 150.699Z" fill="#FCA0A0"/>
<path d="M281.036 133.633L271.326 131.365C270.785 131.237 270.28 131.614 270.189 132.198L266.462 157.418C266.377 158.007 266.742 158.585 267.283 158.713L276.993 160.98C277.534 161.108 278.038 160.731 278.13 160.147L281.857 134.928C281.942 134.338 281.577 133.754 281.036 133.633Z" fill="#37305E"/>
<path d="M281.972 133.833L272.262 131.565C271.721 131.438 271.216 131.815 271.125 132.398L267.398 157.618C267.313 158.208 267.678 158.786 268.219 158.913L277.929 161.181C278.47 161.309 278.974 160.932 279.066 160.348L282.793 135.128C282.884 134.539 282.513 133.955 281.972 133.833Z" fill="#261C42"/>
<path d="M281.437 136.284L272.907 134.295L269.867 154.852L278.397 156.84L281.437 136.284Z" fill="#E7E7E7"/>
<path d="M272.907 134.295L278.397 156.84L281.437 136.284L272.907 134.295Z" fill="white"/>
<path d="M280.695 149.3C280.695 149.3 278.823 148.407 276.725 148.145C275.801 148.03 274.913 148.534 274.555 149.392C274.226 150.176 274.415 151.076 275.029 151.666L278.488 154.979C278.488 154.979 277.935 159.892 280.251 162.208L282.337 154.408L280.695 149.3Z" fill="#FCA0A0"/>
<path d="M338.242 177.579L317.066 182.236C317.066 182.236 311.423 194.785 302.036 250.788C301.89 251.651 301.75 252.509 301.61 253.36C311.727 253.5 321.851 253.779 331.968 254.126L345.447 188.091L338.242 177.579Z" fill="#785AFC"/>
<path d="M363.037 222.437C362.319 195.338 348.591 180.691 348.591 180.691L322.52 181.506L329.469 254.041C340.705 254.405 351.941 254.855 363.177 255.263C363.268 242.409 363.256 230.663 363.037 222.437Z" fill="#785AFC"/>
<path d="M317.826 205.236L325.827 211.851L329.463 254.034" stroke="#121E35" stroke-width="1.1396" stroke-miterlimit="10" stroke-linecap="round" stroke-linejoin="round"/>
<path d="M324.344 133.948L316.95 137.068C315.765 137.578 315.017 138.77 315.078 140.059L317.066 182.23L350.737 181.822L352.725 138.229C352.786 135.906 350.925 133.122 348.609 132.939L334.911 132.69L324.344 133.948Z" fill="#F8F2DA"/>
<path d="M316.105 149.3C316.105 149.3 312.652 153.684 316.123 162.251" stroke="#121E35" stroke-width="1.1396" stroke-miterlimit="10" stroke-linecap="round" stroke-linejoin="round"/>
<path d="M365.864 152.371L348.171 161.99C352.275 170.611 356.811 179.859 358.404 185.075C360.198 190.955 366.63 194.05 372.345 191.788C377.623 189.702 380.298 183.811 378.395 178.46L365.864 152.371Z" fill="#FCA0A0"/>
<path d="M359.65 139.439C357.936 134.629 352.81 131.942 347.879 133.28C342.559 134.721 342.693 147.1 344.292 152.377C345.435 156.159 345.07 155.484 348.171 161.996L365.864 152.377L359.65 139.439Z" fill="#F8F2DA"/>
<path d="M347.995 161.99L344.116 152.371" stroke="#121E35" stroke-width="1.1396" stroke-miterlimit="10" stroke-linecap="round" stroke-linejoin="round"/>
<path d="M322.435 173.875L369.548 174.897C374.546 175.158 378.316 179.542 377.823 184.522C377.325 189.562 372.674 193.131 367.676 192.31L322.884 184.576L322.435 173.875Z" fill="#FCA0A0"/>
<path d="M323.219 187.446C328.15 186.783 331.615 182.248 330.953 177.317C330.29 172.386 325.754 168.92 320.823 169.583C315.892 170.246 312.427 174.782 313.09 179.712C313.752 184.643 318.288 188.109 323.219 187.446Z" fill="#FCA0A0"/>
<path d="M316.519 172.015C316.519 172.015 314.549 169.054 319.176 168.069C323.803 167.084 329.05 168.452 330.953 177.317L316.519 172.015Z" fill="#FCA0A0"/>
<path d="M351.912 118.921C351.992 113.002 347.259 108.138 341.34 108.057C335.42 107.977 330.556 112.71 330.476 118.63C330.395 124.549 335.129 129.413 341.048 129.493C346.967 129.574 351.831 124.841 351.912 118.921Z" fill="#121E35"/>
<path d="M307.921 92.2883C307.921 92.2883 325.231 82.0921 337.093 92.7078C344.316 99.1708 341.574 109.744 331.883 116.298C322.653 122.542 319.242 93.3887 319.242 93.3887L307.921 92.2883Z" fill="#121E35"/>
<path d="M317.412 89.6494C317.412 89.6494 300.571 90.5553 301.75 103.299C302.534 111.762 315.716 111.483 315.716 111.483L317.412 89.6494Z" fill="#121E35"/>
<path d="M314.408 112.735C315.132 115.07 313.831 117.551 311.496 118.274C309.161 118.998 306.681 117.697 305.957 115.362C305.234 113.027 306.535 110.547 308.87 109.823C311.198 109.1 313.679 110.401 314.408 112.735Z" fill="#EA8C8C"/>
<path d="M320.039 125.382L323.255 135.943C324.374 139.651 326.362 141.177 330.004 140.041C333.111 139.074 336.436 136.332 335.865 133.121L330.004 116.748L320.039 125.382Z" fill="#FCA0A0"/>
<path d="M324.587 133.614L320.842 135.244C320.842 135.244 315.017 144.978 326.137 145.342C339.556 145.78 340.65 138.028 342.79 132.836L335.932 132.179L324.587 133.614Z" fill="#FCA0A0"/>
<path d="M321.735 130.963C321.735 130.963 331.05 129.595 331.05 117.162L319.686 124.3L321.735 130.963Z" fill="#121E35"/>
<path d="M323.711 126.342C317.382 127.856 310.973 124.105 309.563 118.979L306.304 106.862C304.535 100.435 308.183 93.7656 314.542 91.7835C321.06 89.7588 329.122 93.042 331.153 99.5537L333.67 109.324C335.609 116.888 331.165 124.02 323.711 126.342Z" fill="#FCA0A0"/>
<path d="M322.86 97.8393C322.903 105.597 330.271 109.732 330.271 109.732L335.512 99.1039C335.512 99.1039 322.823 91.4675 322.86 97.8393Z" fill="#121E35"/>
<path d="M325.006 99.2135C325.006 99.2135 309.599 97.809 304.681 105.184C304.681 105.184 304.255 90.1118 320.787 89.2302C337.318 88.3486 332.521 100.022 332.521 100.022L325.006 99.2135Z" fill="#121E35"/>
<path d="M315.272 113.872L315.539 116.231L317.114 115.915" stroke="#121E35" stroke-width="1.1013" stroke-miterlimit="10" stroke-linecap="round" stroke-linejoin="round"/>
<path d="M312.566 112.51C312.73 113.124 312.372 113.756 311.757 113.921C311.143 114.085 310.511 113.726 310.347 113.112C310.183 112.498 310.541 111.866 311.156 111.701C311.764 111.537 312.396 111.896 312.566 112.51Z" fill="#121E35"/>
<path d="M321.893 109.981C322.057 110.595 321.699 111.227 321.085 111.391C320.47 111.556 319.838 111.197 319.674 110.583C319.51 109.969 319.869 109.336 320.483 109.172C321.097 109.002 321.729 109.367 321.893 109.981Z" fill="#121E35"/>
<path d="M316.232 107.129L323.036 106.436C323.036 106.436 321.966 104.606 319.193 104.916C316.421 105.226 316.232 107.129 316.232 107.129Z" fill="#121E35"/>
<path d="M312.797 108.181L308.006 109.726C308.006 109.726 308.14 107.877 310.098 107.269C312.056 106.667 312.797 108.181 312.797 108.181Z" fill="#121E35"/>
<path d="M315.199 118.773L322.136 117.167C322.136 117.167 321.589 120.469 317.917 120.53C315.375 120.572 315.199 118.773 315.199 118.773Z" fill="white"/>
<path d="M336.929 108.127C337.087 110.382 335.384 112.34 333.129 112.498C330.873 112.656 328.915 110.954 328.757 108.698C328.599 106.442 330.302 104.485 332.557 104.327C334.813 104.169 336.771 105.871 336.929 108.127Z" fill="#FCA0A0"/>
<path d="M331.499 109.726C331.499 109.726 331.293 106.765 334.156 107.032" stroke="#121E35" stroke-width="0.981" stroke-miterlimit="10" stroke-linecap="round" stroke-linejoin="round"/>
<path d="M104.503 221.585V252.514L132.434 253.226V231.07L138.46 230.018L142.515 252.514L167.777 254.119L157.94 207.687L104.503 221.585Z" fill="#171D5F"/>
<path d="M81.6422 170.665L71.5615 238.573L82.463 239.753L100.502 170.088L81.6422 170.665Z" fill="#FFC8BD"/>
<path d="M71.5617 238.573C71.5617 238.573 53.5163 242.731 54.2337 247.541H76.2373C76.2373 247.541 84.5669 246.902 82.4632 239.752L71.5617 238.573Z" fill="#FFC8BD"/>
<path d="M108.449 140.898C108.449 140.898 86.0381 139.056 73.6045 172.52L101.256 182.455L108.449 140.898Z" fill="#F36867"/>
<path d="M187.659 117.003L177.828 149.86L189.301 162.841C189.301 162.841 196.438 133.869 196.663 117.101L187.659 117.003Z" fill="#FFC8BD"/>
<path d="M187.276 117.94C187.276 117.94 196.08 119.107 197.314 116.906C199.473 113.063 198.329 102.624 198.329 102.624C198.329 102.624 182.886 102.965 183.087 103.11C183.294 103.262 187.276 117.94 187.276 117.94Z" fill="#FFC8BD"/>
<path d="M187.276 117.94C187.112 117.168 181.19 110.498 179.062 107.962C178.545 107.348 178.721 106.382 179.427 105.932C179.889 105.634 180.697 105.378 181.36 105.944L187.039 110.34L187.276 117.94Z" fill="#FFC8BD"/>
<path d="M184.132 109.422L181.816 97.0003C181.646 96.1795 182.199 95.3465 183.026 95.1823C183.737 95.0425 184.412 95.4559 184.607 96.1551L187.045 105.117L184.132 109.422Z" fill="#FFC8BD"/>
<path d="M187.021 103.336L186.856 93.869C186.826 93.0482 187.477 92.3247 188.285 92.276C188.991 92.2335 189.586 92.7199 189.696 93.4191L191.185 103.834L187.021 103.336Z" fill="#FFC8BD"/>
<path d="M191.362 104.4L192.085 94.7386C192.146 93.8449 192.912 93.1335 193.788 93.1578C194.609 93.1822 195.235 93.8449 195.229 94.69L195.131 103.573L191.362 104.4Z" fill="#FFC8BD"/>
<path d="M198.329 102.624L199.454 96.4347C199.479 95.7477 198.98 95.1944 198.311 95.164C197.673 95.1336 197.083 95.5957 196.937 96.2402L195.131 103.567L198.329 102.624Z" fill="#FFC8BD"/>
<path d="M184.412 108.303C184.412 108.303 188.893 105.931 191.878 111.969" stroke="#282828" stroke-width="1.1831" stroke-miterlimit="10" stroke-linecap="round" stroke-linejoin="round"/>
<path d="M190.018 154.317C190.018 154.317 191.319 167.085 184.121 168.215C176.922 169.346 160.998 159.412 160.998 159.412L153.629 134.465L181.269 149.775L190.018 154.317Z" fill="#FFC8BD"/>
<path d="M134.368 136.277C134.368 136.277 149.672 126.123 173.469 142.041L159.503 164.129L145.604 162.846L134.368 136.277Z" fill="#F36867"/>
<path d="M98.2285 177.961L101.718 222.503L163.333 213.73L153.8 148.875L134.368 136.277L108.449 140.898L98.2285 177.961Z" fill="#F36867"/>
<path d="M98.5083 181.463L96.8667 166.476" stroke="#121E35" stroke-width="1.1396" stroke-miterlimit="10" stroke-linecap="round" stroke-linejoin="round"/>
<path d="M155.995 163.807L153.624 150.863" stroke="#121E35" stroke-width="1.1396" stroke-miterlimit="10" stroke-linecap="round" stroke-linejoin="round"/>
<path d="M113.21 137.518L110.359 120.129L126.385 117.496L129.237 134.885L134.362 136.277C134.362 136.277 134.423 143.664 122.616 145.768C110.808 147.872 108.443 140.892 108.443 140.892L113.21 137.518Z" fill="#FFC8BD"/>
<path d="M127.285 122.992C127.285 122.992 127.018 129.82 121.169 131.559C114.438 133.559 111.283 125.789 111.283 125.789C111.283 125.789 114.919 128.957 119.728 128.172C125.09 127.303 127.285 122.992 127.285 122.992Z" fill="#121E35"/>
<path d="M108.09 92.0268C108.09 92.0268 110.942 84.9618 120.536 86.1231C127.309 86.9439 129.571 92.4645 130.763 94.9756C131.219 95.9362 131.425 97.0002 131.346 98.0642L130.033 109.902L118.797 94.8175L109.543 96.4834L108.09 92.0268Z" fill="#121E35"/>
<path d="M130.033 109.902C130.033 109.902 131.055 107.847 133.657 108.546C136.259 109.245 135.73 115.453 132.046 116.602C132.046 116.602 130.726 117.028 129.577 116.213C129.583 116.219 130.057 111.629 130.033 109.902Z" fill="#FFC8BD"/>
<path d="M133.377 110.747C133.377 110.747 131.207 110.254 130.021 113.495" stroke="#131313" stroke-width="0.6978" stroke-miterlimit="10" stroke-linecap="round" stroke-linejoin="round"/>
<path d="M104.363 112.456C104.363 112.456 102.953 110.644 100.539 111.841C98.1253 113.039 99.8642 119.022 103.707 119.423C103.707 119.423 105.087 119.581 106.048 118.554C106.054 118.56 104.68 114.152 104.363 112.456Z" fill="#FFC8BD"/>
<path d="M101.256 113.945C101.256 113.945 103.287 113.033 105.087 115.982" stroke="#131313" stroke-width="0.6978" stroke-miterlimit="10" stroke-linecap="round" stroke-linejoin="round"/>
<path d="M129.711 104.102C130.076 107.774 130.483 115.489 128.677 120.274C126.981 124.768 124.312 126.968 119.727 127.558C115.143 128.154 110.942 127.175 107.647 121.892C104.351 116.608 103.506 106.777 103.506 106.777C103.506 106.777 102.199 93.6622 115.161 92.3733C128.817 91.0114 129.711 104.102 129.711 104.102Z" fill="#FFC8BD"/>
<path d="M104.363 112.456L100.892 101.165C100.667 100.241 100.703 99.268 101.013 98.3682C101.792 96.1186 104.175 91.0722 108.097 92.0207L109.55 96.4834C109.55 96.4834 104.832 97.9304 103.531 104.418L104.363 112.456Z" fill="#121E35"/>
<path d="M106.583 95.8753C106.583 95.8753 115.247 104.472 130.562 102.01C130.562 102.01 127.996 91.0417 120.798 90.9627C113.599 90.8836 107.963 94.6228 107.963 94.6228L106.583 95.8753Z" fill="#121E35"/>
<path d="M109.55 96.4895C109.55 96.4895 108.024 101.773 103.433 106.041C103.433 106.041 101.354 95.693 109.55 96.4895Z" fill="#121E35"/>
<path d="M121.515 109.671C121.612 110.303 122.208 110.735 122.841 110.637C123.473 110.54 123.905 109.944 123.807 109.312C123.71 108.68 123.114 108.248 122.482 108.345C121.85 108.443 121.418 109.038 121.515 109.671Z" fill="#121E35"/>
<path d="M110.778 111.355C110.875 111.988 111.471 112.419 112.103 112.322C112.736 112.225 113.167 111.629 113.07 110.997C112.973 110.364 112.377 109.933 111.745 110.03C111.112 110.133 110.681 110.723 110.778 111.355Z" fill="#121E35"/>
<path d="M113.332 105.646L105.944 108.844C105.944 108.844 105.956 106.631 108.984 105.348C112.006 104.071 113.332 105.646 113.332 105.646Z" fill="#121E35"/>
<path d="M118.743 104.898L126.756 105.676C126.756 105.676 126.069 103.573 122.792 103.281C119.521 102.989 118.743 104.898 118.743 104.898Z" fill="#121E35"/>
<path d="M116.736 113.24L117.071 114.869C117.156 115.283 117.581 115.514 117.958 115.35L118.785 114.991" stroke="#121E35" stroke-width="1.0257" stroke-miterlimit="10" stroke-linecap="round" stroke-linejoin="round"/>
<path d="M114.323 118.603L122.665 116.718C122.665 116.718 123.352 119.958 119.248 120.755C115.137 121.545 114.323 118.603 114.323 118.603Z" fill="white"/>
<path d="M401.536 246.806H36.8633V255.914H401.536V246.806Z" fill="#8C3737"/>
<path d="M197.351 229.501H179.147C174.369 229.501 170.496 233.374 170.496 238.153C170.496 242.932 174.369 246.805 179.147 246.805H200.561L197.351 229.501Z" fill="#FCA0A0"/>
<path d="M172.496 232.621L183.793 214.119L200.561 216.381L198.075 238.153L172.496 232.621Z" fill="#FCA0A0"/>
<path d="M192.846 229.501H179.147" stroke="#121E35" stroke-width="1.1396" stroke-miterlimit="10" stroke-linecap="round" stroke-linejoin="round"/>
<path d="M254.326 229.501H272.53C277.309 229.501 281.182 233.374 281.182 238.153C281.182 242.932 277.309 246.805 272.53 246.805H251.116L254.326 229.501Z" fill="#FCA0A0"/>
<path d="M278.993 232.395L264.766 210.477L251.116 216.381L253.603 238.153L278.993 232.395Z" fill="#FCA0A0"/>
<path d="M255.36 229.501H272.53" stroke="#121E35" stroke-width="1.1396" stroke-miterlimit="10" stroke-linecap="round" stroke-linejoin="round"/>
<path d="M224.31 181.664C224.31 181.664 206.185 181.664 192.846 194.785V231.55C192.846 231.55 256.692 232.523 256.692 231.55C256.692 230.578 256.71 192.353 256.71 192.353C256.71 192.353 243.65 181.664 224.31 181.664Z" fill="#4C417A"/>
<path d="M195.545 192.353C195.545 192.353 185.696 200.305 175.311 217.816C175.311 217.816 177.548 227.945 196.895 229.501L195.545 192.353Z" fill="#4C417A"/>
<path d="M256.71 192.353C256.71 192.353 266.56 200.305 276.944 217.816C276.944 217.816 274.707 227.945 255.36 229.501L256.71 192.353Z" fill="#4C417A"/>
<path d="M253.792 246.805H195.74C194.141 246.805 192.846 245.51 192.846 243.911V207.261C192.846 205.662 194.141 204.367 195.74 204.367H253.792C255.391 204.367 256.686 205.662 256.686 207.261V243.911C256.692 245.51 255.397 246.805 253.792 246.805Z" fill="#CEBEC0"/>
<path d="M224.772 229.501C226.934 229.501 228.687 227.748 228.687 225.586C228.687 223.423 226.934 221.67 224.772 221.67C222.609 221.67 220.856 223.423 220.856 225.586C220.856 227.748 222.609 229.501 224.772 229.501Z" fill="white"/>
<path d="M230.882 173.918H218.357V187.945H230.882V173.918Z" fill="#FCA0A0"/>
<path d="M217.743 173.164C217.743 173.164 218.85 180.132 224.097 180.259C230.991 180.424 230.876 173.474 230.876 173.474C230.876 173.474 229.934 175.517 224.607 175.529C218.661 175.535 217.743 173.164 217.743 173.164Z" fill="#121E35"/>
<path d="M224.644 168.246C234.264 168.246 242.063 160.248 242.063 150.383C242.063 140.517 234.264 132.52 224.644 132.52C215.023 132.52 207.225 140.517 207.225 150.383C207.225 160.248 215.023 168.246 224.644 168.246Z" fill="#121E35"/>
<path d="M239.698 156.9C239.698 156.9 240.951 154.906 243.541 155.885C246.125 156.864 244.957 163.145 241.078 163.947C241.078 163.947 239.686 164.251 238.598 163.297C238.592 163.303 239.546 158.664 239.698 156.9Z" fill="#FCA0A0"/>
<path d="M243.024 158.104C243.024 158.104 240.86 157.381 239.321 160.573" stroke="#131313" stroke-width="0.7753" stroke-miterlimit="10" stroke-linecap="round" stroke-linejoin="round"/>
<path d="M209.997 156.9C209.997 156.9 208.745 154.906 206.155 155.885C203.571 156.864 204.738 163.145 208.617 163.947C208.617 163.947 210.009 164.251 211.098 163.297C211.098 163.303 210.143 158.664 209.997 156.9Z" fill="#FCA0A0"/>
<path d="M206.666 158.104C206.666 158.104 208.83 157.381 210.368 160.573" stroke="#131313" stroke-width="0.7753" stroke-miterlimit="10" stroke-linecap="round" stroke-linejoin="round"/>
<path d="M239.941 151.489C239.941 155.514 239.528 163.935 236.919 168.932C234.469 173.626 230.42 176.149 225.106 176.301C219.792 176.453 215.834 174.508 212.666 168.422C209.499 162.336 209.645 151.562 209.645 151.562C209.645 151.562 209.645 137.183 224.632 137.183C240.409 137.183 239.941 151.489 239.941 151.489Z" fill="#FCA0A0"/>
<path d="M209.997 156.9C209.997 156.9 213.195 149.884 210.374 144.832C210.374 144.832 207.815 152.961 209.997 156.9Z" fill="#121E35"/>
<path d="M239.649 156.9C239.649 156.9 236.451 149.884 239.272 144.832C239.272 144.832 241.826 152.961 239.649 156.9Z" fill="#121E35"/>
<path d="M232.408 137.992C232.408 137.992 230.931 146.498 239.729 150.365C239.729 150.365 239.37 140.405 232.408 137.992Z" fill="#121E35"/>
<path d="M234.384 139.056C234.384 139.056 233.065 147.543 221.525 145.652C212.545 144.181 209.803 151.045 209.803 151.045C209.803 151.045 208.21 138.283 222.71 135.669C222.717 135.669 230.134 135.632 234.384 139.056Z" fill="#121E35"/>
<path d="M219.464 158.414C219.464 159.168 218.849 159.782 218.096 159.782C217.342 159.782 216.728 159.168 216.728 158.414C216.728 157.66 217.342 157.046 218.096 157.046C218.849 157.046 219.464 157.66 219.464 158.414Z" fill="#121E35"/>
<path d="M230.778 159.782C231.534 159.782 232.146 159.17 232.146 158.414C232.146 157.659 231.534 157.046 230.778 157.046C230.023 157.046 229.41 157.659 229.41 158.414C229.41 159.17 230.023 159.782 230.778 159.782Z" fill="#121E35"/>
<path d="M223.75 161.399V163.248C223.75 163.716 224.163 164.062 224.607 163.971L225.592 163.765" stroke="#121E35" stroke-width="1.1396" stroke-miterlimit="10" stroke-linecap="round" stroke-linejoin="round"/>
<path d="M222.163 154.17L213.858 155.168C213.858 155.168 214.527 152.967 217.919 152.59C221.312 152.207 222.163 154.17 222.163 154.17Z" fill="#121E35"/>
<path d="M226.954 154.17L235.259 155.168C235.259 155.168 234.591 152.967 231.198 152.59C227.805 152.207 226.954 154.17 226.954 154.17Z" fill="#121E35"/>
<path d="M220.749 162.38C222.962 160.167 222.962 156.58 220.749 154.367C218.537 152.154 214.949 152.154 212.736 154.367C210.523 156.58 210.523 160.167 212.736 162.38C214.949 164.593 218.537 164.593 220.749 162.38Z" stroke="white" stroke-width="1.2497" stroke-miterlimit="10"/>
<path d="M238.302 159.655C239.019 156.608 237.129 153.558 234.083 152.842C231.036 152.126 227.986 154.015 227.27 157.062C226.554 160.108 228.443 163.159 231.49 163.875C234.536 164.591 237.586 162.701 238.302 159.655Z" stroke="white" stroke-width="1.2497" stroke-miterlimit="10"/>
<path d="M222.413 158.846C222.413 158.846 224.413 155.769 227.125 158.846" stroke="white" stroke-width="1.2497" stroke-miterlimit="10"/>
<path d="M219.901 166.477C219.901 166.477 220.734 167.553 224.437 167.553C227.805 167.553 229.331 166.477 229.331 166.477" stroke="#121E35" stroke-width="1.1396" stroke-miterlimit="10" stroke-linecap="round" stroke-linejoin="round"/>
<path d="M224.309 181.664C224.309 181.664 216.661 181.251 206.665 185.671C206.665 185.671 206.458 194.292 223.701 194.292C240.95 194.292 242.482 184.844 242.482 184.844C242.482 184.844 231.532 180.934 224.309 181.664Z" fill="#FCA0A0"/>
<path d="M230.876 138.587C237.155 138.587 242.246 133.497 242.246 127.218C242.246 120.938 237.155 115.848 230.876 115.848C224.597 115.848 219.506 120.938 219.506 127.218C219.506 133.497 224.597 138.587 230.876 138.587Z" fill="#121E35"/>
</svg>
