<svg width="80" height="73" viewBox="0 0 80 73" fill="none" xmlns="http://www.w3.org/2000/svg">
<g clip-path="url(#clip0)">
<path d="M72.7699 52.29H6.33994C5.97994 52.29 5.68994 52 5.68994 51.64V12.74C5.68994 12.38 5.97994 12.09 6.33994 12.09H72.7699C73.1299 12.09 73.4199 12.38 73.4199 12.74V51.64C73.4199 52 73.1299 52.29 72.7699 52.29ZM6.98994 50.99H72.1199V13.39H6.98994V50.99Z" fill="black"/>
<path d="M78.46 13.39H0.65C0.29 13.39 0 13.1 0 12.74V7.13999C0 6.77999 0.29 6.48999 0.65 6.48999H78.46C78.82 6.48999 79.11 6.77999 79.11 7.13999V12.74C79.11 13.1 78.82 13.39 78.46 13.39ZM1.3 12.09H77.81V7.78999H1.3V12.09Z" fill="black"/>
<path d="M54.3001 72.36C54.1301 72.36 53.9701 72.3 53.8401 72.17L43.2201 61.55H36.2001L25.5801 72.17C25.3301 72.42 24.9201 72.42 24.6601 72.17L22.5801 70.1C22.4601 69.98 22.3901 69.81 22.3901 69.64C22.3901 69.47 22.4601 69.3 22.5801 69.18L32.9401 58.82V51.64C32.9401 51.28 33.2301 50.99 33.5901 50.99H45.5201C45.8801 50.99 46.1701 51.28 46.1701 51.64V58.51L56.8401 69.18C56.9601 69.3 57.0301 69.47 57.0301 69.64C57.0301 69.81 56.9601 69.98 56.8401 70.1L54.7701 72.17C54.6401 72.29 54.4701 72.36 54.3001 72.36ZM23.9601 69.63L25.1201 70.78L35.4801 60.43C35.6001 60.31 35.7701 60.24 35.9401 60.24H43.5001C43.6701 60.24 43.8401 60.31 43.9601 60.43L54.3001 70.79L55.4501 69.64L45.0501 59.24C44.9301 59.12 44.8601 58.95 44.8601 58.78V52.29H34.2301V59.09C34.2301 59.26 34.1601 59.43 34.0401 59.55L23.9601 69.63Z" fill="black"/>
<path d="M57.1501 46.31H52.4801C52.1201 46.31 51.8301 46.02 51.8301 45.66V21.97C51.8301 21.61 52.1201 21.32 52.4801 21.32H57.1501C57.5101 21.32 57.8001 21.61 57.8001 21.97V45.66C57.8001 46.02 57.5101 46.31 57.1501 46.31ZM53.1301 45.01H56.5001V22.62H53.1301V45.01Z" fill="black"/>
<path d="M49.52 46.31H44.86C44.5 46.31 44.21 46.02 44.21 45.66V24.92C44.21 24.56 44.5 24.27 44.86 24.27H49.52C49.88 24.27 50.17 24.56 50.17 24.92V45.67C50.17 46.02 49.88 46.31 49.52 46.31ZM45.51 45.01H48.87V25.57H45.51V45.01Z" fill="black"/>
<path d="M41.8901 46.31H37.2301C36.8701 46.31 36.5801 46.02 36.5801 45.66V27.76C36.5801 27.4 36.8701 27.11 37.2301 27.11H41.8901C42.2501 27.11 42.5401 27.4 42.5401 27.76V45.66C42.5401 46.02 42.2501 46.31 41.8901 46.31ZM37.8701 45.01H41.2301V28.42H37.8701V45.01Z" fill="black"/>
<path d="M34.2499 46.31H29.5899C29.2299 46.31 28.9399 46.02 28.9399 45.66V31.74C28.9399 31.38 29.2299 31.09 29.5899 31.09H34.2499C34.6099 31.09 34.8999 31.38 34.8999 31.74V45.66C34.8999 46.02 34.6099 46.31 34.2499 46.31ZM30.2399 45.01H33.5999V32.39H30.2399V45.01V45.01Z" fill="black"/>
<path d="M26.6198 46.31H21.9498C21.5898 46.31 21.2998 46.02 21.2998 45.66V35.89C21.2998 35.53 21.5898 35.24 21.9498 35.24H26.6198C26.9798 35.24 27.2698 35.53 27.2698 35.89V45.66C27.2698 46.02 26.9798 46.31 26.6198 46.31ZM22.5998 45.01H25.9698V36.54H22.5998V45.01Z" fill="black"/>
<path d="M60.3199 49.21H18.7799C18.4199 49.21 18.1299 48.92 18.1299 48.56C18.1299 48.2 18.4199 47.91 18.7799 47.91H60.3299C60.6899 47.91 60.9799 48.2 60.9799 48.56C60.9699 48.92 60.6799 49.21 60.3199 49.21Z" fill="black"/>
<path d="M21.9702 32.41C21.7002 32.41 21.4502 32.24 21.3602 31.98C21.2402 31.64 21.4102 31.27 21.7502 31.15C21.9202 31.09 39.3002 24.76 46.9202 15.89C47.1502 15.62 47.5602 15.59 47.8402 15.82C48.1102 16.05 48.1402 16.46 47.9102 16.74C40.0602 25.87 22.9202 32.12 22.1902 32.38C22.1102 32.4 22.0402 32.41 21.9702 32.41Z" fill="black"/>
<path d="M47.32 20.94C46.96 20.94 46.67 20.65 46.67 20.29V17.07L43.65 17.09C43.29 17.09 43 16.8 43 16.44C43 16.08 43.29 15.79 43.65 15.79L47.32 15.77C47.49 15.77 47.66 15.84 47.78 15.96C47.9 16.08 47.97 16.25 47.97 16.42V20.3C47.97 20.65 47.68 20.94 47.32 20.94Z" fill="black"/>
<path d="M42.0801 7.79H37.0201C36.6601 7.79 36.3701 7.5 36.3701 7.14V3.18C36.3701 1.43 37.8001 0 39.5501 0C41.3001 0 42.7301 1.43 42.7301 3.18V7.14C42.7301 7.5 42.4401 7.79 42.0801 7.79ZM37.6701 6.49H41.4301V3.18C41.4301 2.14 40.5901 1.3 39.5501 1.3C38.5101 1.3 37.6701 2.14 37.6701 3.18V6.49V6.49Z" fill="black"/>
</g>
<defs>
<clipPath id="clip0">
<rect width="79.11" height="72.36" fill="white"/>
</clipPath>
</defs>
</svg>
