<svg width="74" height="80" viewBox="0 0 74 80" fill="none" xmlns="http://www.w3.org/2000/svg">
<g clip-path="url(#clip0)">
<path d="M28.49 79.11H24.76C24.44 79.11 24.17 78.87 24.12 78.56L23.11 71.84C22.05 71.65 21 71.37 19.99 71.01L15.76 76.32C15.56 76.57 15.21 76.64 14.93 76.48L11.7 74.62C11.42 74.46 11.3 74.12 11.42 73.82L13.91 67.49C13.09 66.79 12.32 66.03 11.63 65.21L5.3 67.69C5 67.81 4.66 67.69 4.5 67.41L2.63 64.18C2.47 63.9 2.54 63.55 2.79 63.35L8.1 59.12C7.74 58.12 7.46 57.07 7.26 56L0.54 54.99C0.24 54.95 0 54.67 0 54.35V50.61C0 50.29 0.24 50.01 0.55 49.97L7.27 48.97C7.46 47.9 7.74 46.86 8.11 45.85L2.79 41.62C2.54 41.42 2.47 41.06 2.63 40.79L4.5 37.56C4.66 37.28 5 37.16 5.3 37.28L11.63 39.77C12.33 38.94 13.09 38.18 13.91 37.49L11.42 31.16C11.3 30.86 11.42 30.52 11.7 30.36L14.93 28.49C15.21 28.33 15.56 28.4 15.76 28.65L19.99 33.97C21 33.61 22.04 33.33 23.11 33.13L24.12 26.41C24.17 26.09 24.44 25.86 24.76 25.86H28.49C28.81 25.86 29.08 26.1 29.13 26.41L30.14 33.13C31.21 33.32 32.25 33.6 33.26 33.97L37.49 28.66C37.69 28.41 38.05 28.34 38.32 28.5L41.55 30.37C41.83 30.53 41.95 30.87 41.83 31.17L39.35 37.5C40.18 38.2 40.95 38.97 41.63 39.78L47.95 37.29C48.25 37.17 48.59 37.29 48.75 37.57L50.61 40.8C50.77 41.08 50.7 41.43 50.45 41.63L45.14 45.87C45.51 46.9 45.79 47.95 45.98 48.99L52.69 50C53.01 50.05 53.24 50.32 53.24 50.64V54.37C53.24 54.69 53 54.96 52.69 55.01L45.99 56C45.8 57.05 45.52 58.09 45.15 59.12L50.46 63.35C50.71 63.55 50.78 63.9 50.62 64.18L48.76 67.41C48.6 67.69 48.26 67.81 47.96 67.69L41.63 65.21C40.95 66.01 40.18 66.78 39.35 67.49L41.83 73.82C41.95 74.12 41.83 74.46 41.55 74.62L38.32 76.48C38.04 76.64 37.69 76.57 37.49 76.32L33.26 71.01C32.25 71.37 31.2 71.65 30.14 71.84L29.13 78.56C29.09 78.88 28.82 79.11 28.49 79.11ZM25.33 77.81H27.94L28.94 71.18C28.98 70.9 29.2 70.68 29.49 70.63C30.78 70.44 32.04 70.1 33.26 69.63C33.53 69.53 33.83 69.61 34 69.83L38.17 75.07L40.43 73.77L37.98 67.53C37.88 67.27 37.96 66.97 38.18 66.79C39.22 65.95 40.15 65.02 40.94 64.03C41.12 63.81 41.42 63.73 41.68 63.83L47.92 66.28L49.22 64.02L43.98 59.85C43.76 59.67 43.68 59.37 43.78 59.11C44.25 57.87 44.59 56.6 44.79 55.33C44.83 55.05 45.05 54.83 45.33 54.79L51.95 53.79V51.18L45.33 50.18C45.05 50.14 44.83 49.92 44.78 49.64C44.58 48.38 44.24 47.11 43.77 45.86C43.67 45.6 43.75 45.3 43.97 45.12L49.21 40.94L47.91 38.68L41.67 41.14C41.4 41.25 41.1 41.16 40.92 40.94C40.12 39.94 39.19 39.01 38.16 38.18C37.94 38 37.86 37.7 37.96 37.44L40.41 31.19L38.15 29.89L33.98 35.14C33.8 35.36 33.5 35.45 33.24 35.34C32.03 34.87 30.76 34.53 29.47 34.33C29.19 34.29 28.97 34.07 28.93 33.78L27.93 27.15H25.32L24.32 33.78C24.28 34.06 24.06 34.28 23.78 34.33C22.48 34.53 21.21 34.87 20.01 35.34C19.75 35.45 19.44 35.36 19.27 35.14L15.09 29.89L12.83 31.2L15.29 37.45C15.39 37.72 15.31 38.02 15.09 38.2C14.08 39 13.15 39.93 12.34 40.95C12.16 41.17 11.86 41.26 11.59 41.15L5.34 38.69L4.03 40.95L9.28 45.13C9.5 45.31 9.58 45.61 9.48 45.87C9.01 47.07 8.67 48.34 8.47 49.64C8.43 49.92 8.21 50.14 7.92 50.18L1.3 51.17V53.79L7.93 54.79C8.21 54.83 8.43 55.05 8.47 55.33C8.68 56.64 9.02 57.91 9.48 59.1C9.58 59.37 9.5 59.67 9.28 59.84L4.03 64.01L5.34 66.27L11.59 63.82C11.85 63.72 12.16 63.8 12.33 64.02C13.14 65.03 14.07 65.96 15.09 66.78C15.31 66.96 15.39 67.26 15.29 67.52L12.83 73.76L15.09 75.06L19.27 69.82C19.45 69.6 19.75 69.52 20.01 69.62C21.22 70.09 22.49 70.43 23.78 70.62C24.06 70.66 24.28 70.88 24.33 71.17L25.33 77.81ZM26.63 62.67C21.02 62.67 16.45 58.1 16.45 52.48C16.45 46.86 21.02 42.3 26.63 42.3C32.25 42.3 36.82 46.87 36.82 52.48C36.82 58.1 32.25 62.67 26.63 62.67ZM26.63 43.6C21.73 43.6 17.75 47.59 17.75 52.48C17.75 57.38 21.73 61.37 26.63 61.37C31.53 61.37 35.52 57.38 35.52 52.48C35.52 47.58 31.53 43.6 26.63 43.6Z" fill="black"/>
<path d="M26.63 39.72C25.73 39.72 25 38.99 25 38.09C25 37.19 25.73 36.47 26.63 36.47C27.53 36.47 28.25 37.2 28.25 38.09C28.25 38.99 27.52 39.72 26.63 39.72ZM26.63 37.77C26.46 37.77 26.3 37.92 26.3 38.09C26.3 38.27 26.45 38.42 26.63 38.42C26.81 38.42 26.95 38.28 26.95 38.09C26.95 37.92 26.8 37.77 26.63 37.77Z" fill="black"/>
<path d="M33.8198 41.65C33.5398 41.65 33.2598 41.57 33.0098 41.43C32.6298 41.21 32.3698 40.86 32.2598 40.44C32.1498 40.02 32.2098 39.58 32.4298 39.21C32.8598 38.47 33.8898 38.19 34.6498 38.63C35.0198 38.84 35.2898 39.18 35.4098 39.61C35.5298 40.03 35.4698 40.47 35.2498 40.85C34.9398 41.34 34.3998 41.65 33.8198 41.65ZM33.8198 39.7C33.7098 39.7 33.5998 39.76 33.5498 39.86C33.5098 39.94 33.4898 40.03 33.5198 40.11C33.5298 40.16 33.5698 40.25 33.6698 40.31C33.8198 40.4 34.0298 40.34 34.1198 40.19C34.1798 40.09 34.1598 39.99 34.1498 39.95C34.1398 39.9 34.0998 39.82 33.9998 39.76C33.9298 39.72 33.8798 39.7 33.8198 39.7Z" fill="black"/>
<path d="M39.0899 46.92C38.5099 46.92 37.9699 46.6 37.6799 46.1C37.4699 45.73 37.4099 45.29 37.5199 44.87C37.6299 44.45 37.8999 44.1 38.2699 43.89C39.0199 43.46 40.0599 43.74 40.4899 44.48C40.7099 44.85 40.7599 45.29 40.6499 45.71C40.5399 46.13 40.2699 46.49 39.8899 46.71C39.6499 46.84 39.3699 46.92 39.0899 46.92ZM39.0899 44.97C39.0299 44.97 38.9799 44.99 38.9199 45.02C38.8199 45.08 38.7899 45.16 38.7699 45.21C38.7599 45.26 38.7399 45.36 38.7999 45.46C38.9099 45.66 39.1099 45.66 39.2399 45.58C39.3199 45.53 39.3699 45.46 39.3999 45.38C39.4099 45.33 39.4299 45.24 39.3699 45.14C39.3099 45.03 39.2099 44.97 39.0899 44.97Z" fill="black"/>
<path d="M41.0196 54.11C40.1196 54.11 39.3896 53.38 39.3896 52.48C39.3896 51.58 40.1196 50.86 41.0196 50.86C41.9196 50.86 42.6396 51.59 42.6396 52.48C42.6396 53.38 41.9096 54.11 41.0196 54.11ZM41.0196 52.16C40.8396 52.16 40.6896 52.3 40.6896 52.48C40.6896 52.66 40.8396 52.81 41.0196 52.81C41.1996 52.81 41.3396 52.67 41.3396 52.48C41.3396 52.3 41.1996 52.16 41.0196 52.16Z" fill="black"/>
<path d="M39.0899 61.3C38.8099 61.3 38.5199 61.22 38.2799 61.08C37.5099 60.63 37.2399 59.63 37.6899 58.86C38.1099 58.12 39.1499 57.83 39.8999 58.27C40.2699 58.48 40.5399 58.83 40.6599 59.25C40.7799 59.67 40.7199 60.11 40.4999 60.49C40.2099 60.99 39.6699 61.3 39.0899 61.3ZM39.0799 59.36C38.9699 59.36 38.8699 59.42 38.8099 59.51C38.7199 59.67 38.7699 59.88 38.9199 59.96C39.0699 60.05 39.2799 59.99 39.3599 59.84C39.4199 59.74 39.4099 59.64 39.3899 59.59C39.3799 59.54 39.3399 59.46 39.2399 59.4C39.1999 59.37 39.1399 59.36 39.0799 59.36Z" fill="black"/>
<path d="M33.8296 66.57C33.2496 66.57 32.7096 66.26 32.4196 65.75C31.9696 64.98 32.2296 63.99 33.0096 63.54C33.7696 63.1 34.8096 63.38 35.2396 64.13C35.4596 64.5 35.5196 64.94 35.3996 65.36C35.2896 65.78 35.0196 66.14 34.6396 66.36C34.3896 66.5 34.1096 66.57 33.8296 66.57ZM33.8296 64.62C33.7696 64.62 33.7196 64.64 33.6596 64.67C33.5096 64.76 33.4496 64.95 33.5396 65.11C33.6296 65.26 33.8296 65.32 33.9796 65.24C34.0596 65.19 34.1096 65.12 34.1396 65.03C34.1496 64.98 34.1696 64.89 34.1096 64.79C34.0496 64.68 33.9396 64.62 33.8296 64.62Z" fill="black"/>
<path d="M26.63 68.5C25.73 68.5 25 67.77 25 66.87C25 65.97 25.73 65.25 26.63 65.25C27.53 65.25 28.25 65.98 28.25 66.87C28.25 67.77 27.52 68.5 26.63 68.5ZM26.63 66.55C26.46 66.55 26.3 66.7 26.3 66.87C26.3 67.05 26.45 67.2 26.63 67.2C26.81 67.2 26.95 67.06 26.95 66.87C26.95 66.7 26.8 66.55 26.63 66.55Z" fill="black"/>
<path d="M19.4301 66.57C19.1501 66.57 18.8601 66.49 18.6201 66.35C18.2401 66.13 17.9801 65.78 17.8701 65.36C17.7601 64.94 17.8201 64.5 18.0401 64.12C18.4701 63.37 19.5101 63.09 20.2501 63.53C20.6301 63.75 20.9001 64.1 21.0101 64.52C21.1201 64.94 21.0601 65.37 20.8401 65.74C20.5501 66.26 20.0101 66.57 19.4301 66.57ZM19.4301 64.62C19.3201 64.62 19.2101 64.68 19.1501 64.78C19.1101 64.86 19.0901 64.95 19.1101 65.03C19.1201 65.08 19.1601 65.17 19.2601 65.23C19.4101 65.32 19.6201 65.26 19.7101 65.11C19.7601 65.02 19.7601 64.93 19.7401 64.87C19.7201 64.79 19.6601 64.71 19.5801 64.67C19.5401 64.64 19.4901 64.62 19.4301 64.62Z" fill="black"/>
<path d="M14.1698 61.3C13.5898 61.3 13.0498 60.99 12.7598 60.48C12.5398 60.1 12.4798 59.66 12.5998 59.24C12.7098 58.82 12.9798 58.48 13.3598 58.26C14.0898 57.84 15.1498 58.11 15.5698 58.85C16.0198 59.63 15.7498 60.62 14.9698 61.07C14.7398 61.23 14.4598 61.3 14.1698 61.3ZM14.1698 59.36C14.1098 59.36 14.0598 59.37 14.0098 59.4C13.9098 59.46 13.8698 59.54 13.8598 59.59C13.8498 59.64 13.8298 59.74 13.8898 59.84C13.9798 60 14.1698 60.06 14.3298 59.97C14.4898 59.88 14.5398 59.68 14.4498 59.52C14.3898 59.41 14.2898 59.36 14.1698 59.36Z" fill="black"/>
<path d="M12.2401 54.11C11.3401 54.11 10.6201 53.38 10.6201 52.48C10.6201 51.58 11.3501 50.86 12.2401 50.86C13.1401 50.86 13.8701 51.59 13.8701 52.48C13.8601 53.38 13.1301 54.11 12.2401 54.11ZM12.2401 52.16C12.0601 52.16 11.9201 52.31 11.9201 52.48C11.9201 52.66 12.0701 52.81 12.2401 52.81C12.4201 52.81 12.5701 52.67 12.5701 52.48C12.5601 52.3 12.4201 52.16 12.2401 52.16Z" fill="black"/>
<path d="M14.1596 46.92C13.8796 46.92 13.5896 46.84 13.3496 46.7C12.9796 46.48 12.7096 46.13 12.5996 45.71C12.4896 45.29 12.5496 44.85 12.7696 44.47C13.1996 43.72 14.2296 43.45 14.9796 43.88C15.3496 44.09 15.6196 44.44 15.7396 44.86C15.8596 45.28 15.7996 45.72 15.5796 46.1C15.2896 46.6 14.7496 46.92 14.1596 46.92ZM14.1696 44.97C14.0596 44.97 13.9496 45.03 13.8896 45.13C13.8496 45.21 13.8296 45.29 13.8596 45.38C13.8696 45.43 13.9096 45.52 14.0096 45.58C14.1696 45.67 14.3696 45.61 14.4496 45.46C14.5096 45.36 14.4896 45.26 14.4796 45.21C14.4696 45.16 14.4296 45.08 14.3296 45.02C14.2796 44.98 14.2196 44.97 14.1696 44.97Z" fill="black"/>
<path d="M19.4403 41.65C18.8603 41.65 18.3203 41.34 18.0303 40.83C17.8103 40.45 17.7503 40.01 17.8703 39.59C17.9803 39.17 18.2503 38.83 18.6303 38.62C19.3503 38.2 20.4103 38.47 20.8503 39.21C21.0703 39.59 21.1303 40.02 21.0103 40.44C20.9003 40.86 20.6303 41.21 20.2503 41.43C20.0003 41.57 19.7203 41.65 19.4403 41.65ZM19.4403 39.7C19.3803 39.7 19.3203 39.71 19.2703 39.74C19.1703 39.8 19.1303 39.88 19.1203 39.93C19.1103 39.98 19.0903 40.08 19.1503 40.18C19.2403 40.34 19.4403 40.39 19.5903 40.31C19.6703 40.26 19.7203 40.19 19.7503 40.11C19.7603 40.06 19.7803 39.97 19.7203 39.87C19.6603 39.76 19.5603 39.7 19.4403 39.7Z" fill="black"/>
<path d="M56.8698 35.25H54.4298C54.1098 35.25 53.8398 35.01 53.7898 34.7L53.1598 30.47C52.5598 30.35 51.9698 30.2 51.3998 30L48.7398 33.35C48.5398 33.6 48.1798 33.67 47.9098 33.51L45.7898 32.29C45.5098 32.13 45.3898 31.79 45.5098 31.49L47.0798 27.51C46.6298 27.12 46.1998 26.69 45.7898 26.22L41.7998 27.79C41.4998 27.91 41.1598 27.79 40.9998 27.51L39.7898 25.4C39.6298 25.12 39.6998 24.77 39.9498 24.57L43.2898 21.91C43.0898 21.34 42.9398 20.75 42.8198 20.14L38.5998 19.5C38.2798 19.45 38.0498 19.18 38.0498 18.86V16.43C38.0498 16.11 38.2898 15.84 38.5998 15.79L42.8198 15.15C42.9398 14.54 43.0998 13.95 43.2898 13.38L39.9498 10.72C39.6998 10.52 39.6298 10.17 39.7898 9.89L40.9998 7.78C41.1598 7.5 41.4998 7.38 41.7998 7.5L45.7898 9.06C46.1898 8.59 46.6298 8.16 47.0798 7.76L45.4998 3.77C45.3798 3.47 45.4998 3.13 45.7798 2.97L47.8998 1.75C48.1798 1.59 48.5298 1.66 48.7298 1.91L51.3898 5.25C51.9598 5.05 52.5498 4.9 53.1498 4.78L53.7798 0.55C53.8398 0.24 54.1098 0 54.4298 0H56.8698C57.1898 0 57.4598 0.24 57.5098 0.55L58.1398 4.78C58.7398 4.9 59.3298 5.05 59.8998 5.25L62.5698 1.9C62.7698 1.65 63.1198 1.58 63.3998 1.74L65.4998 2.96C65.7798 3.12 65.8998 3.46 65.7798 3.76L64.2098 7.74C64.6598 8.14 65.0898 8.57 65.4998 9.04L69.4798 7.48C69.7798 7.36 70.1198 7.48 70.2798 7.76L71.4998 9.87C71.6598 10.15 71.5898 10.5 71.3398 10.7L67.9998 13.36C68.1998 13.93 68.3598 14.52 68.4698 15.13L72.6898 15.77C73.0098 15.82 73.2398 16.09 73.2398 16.41V18.84C73.2398 19.16 72.9998 19.43 72.6898 19.48L68.4698 20.12C68.3498 20.73 68.1898 21.32 67.9998 21.89L71.3398 24.55C71.5898 24.75 71.6598 25.11 71.4998 25.38L70.2798 27.48C70.1198 27.76 69.7798 27.88 69.4798 27.76L65.4998 26.2C65.0898 26.67 64.6598 27.1 64.2098 27.49L65.7798 31.47C65.8998 31.77 65.7798 32.11 65.4998 32.27L63.3998 33.49C63.1198 33.65 62.7698 33.58 62.5698 33.33L59.8998 29.98C59.3198 30.18 58.7298 30.33 58.1398 30.45L57.5098 34.68C57.4698 35.01 57.1998 35.25 56.8698 35.25ZM54.9898 33.95H56.3098L56.9298 29.81C56.9698 29.53 57.1898 29.31 57.4698 29.27C58.2898 29.14 59.1098 28.92 59.8898 28.62C60.1498 28.52 60.4498 28.6 60.6298 28.82L63.2398 32.09L64.3798 31.43L62.8498 27.54C62.7498 27.28 62.8198 26.98 63.0498 26.8C63.6798 26.29 64.2798 25.69 64.8198 25.02C64.9998 24.8 65.2998 24.72 65.5598 24.83L69.4498 26.35L70.1098 25.21L66.8398 22.6C66.6198 22.42 66.5398 22.12 66.6398 21.85C66.9398 21.1 67.1598 20.28 67.2898 19.43C67.3298 19.15 67.5498 18.93 67.8298 18.89L71.9598 18.27V16.96L67.8298 16.34C67.5498 16.3 67.3298 16.08 67.2898 15.8C67.1598 14.95 66.9398 14.13 66.6398 13.38C66.5298 13.11 66.6198 12.81 66.8398 12.63L70.1098 10.02L69.4598 8.9L65.5598 10.43C65.2998 10.53 64.9998 10.45 64.8198 10.23C64.2798 9.56 63.6798 8.97 63.0498 8.45C62.8298 8.27 62.7498 7.97 62.8498 7.71L64.3798 3.82L63.2398 3.16L60.6298 6.43C60.4498 6.65 60.1498 6.73 59.8898 6.63C59.1098 6.33 58.2998 6.12 57.4698 5.98C57.1898 5.94 56.9698 5.72 56.9298 5.44L56.3098 1.3H54.9898L54.3698 5.44C54.3298 5.72 54.1098 5.94 53.8298 5.98C52.9998 6.12 52.1798 6.33 51.4098 6.63C51.1398 6.73 50.8498 6.65 50.6698 6.43L48.0698 3.16L46.9198 3.82L48.4498 7.71C48.5498 7.97 48.4798 8.27 48.2498 8.45C47.6098 8.96 47.0198 9.56 46.4798 10.23C46.2998 10.45 45.9998 10.53 45.7398 10.43L41.8398 8.9L41.1898 10.04L44.4598 12.65C44.6798 12.83 44.7598 13.13 44.6598 13.4C44.3598 14.16 44.1498 14.97 44.0098 15.82C43.9698 16.1 43.7498 16.32 43.4598 16.36L39.3298 16.98V18.29L43.4598 18.91C43.7398 18.95 43.9598 19.17 44.0098 19.45C44.1398 20.3 44.3598 21.11 44.6598 21.87C44.7598 22.14 44.6798 22.44 44.4598 22.61L41.1898 25.22L41.8498 26.36L45.7498 24.83C46.0098 24.73 46.3098 24.8 46.4898 25.02C47.0298 25.69 47.6298 26.28 48.2598 26.79C48.4798 26.97 48.5598 27.27 48.4598 27.53L46.9298 31.42L48.0798 32.08L50.6798 28.81C50.8598 28.59 51.1598 28.51 51.4198 28.61C52.1998 28.91 53.0198 29.13 53.8398 29.26C54.1198 29.3 54.3398 29.52 54.3798 29.8L54.9898 33.95ZM55.6498 24.5C51.8598 24.5 48.7698 21.42 48.7698 17.62C48.7698 13.83 51.8598 10.74 55.6498 10.74C59.4398 10.74 62.5298 13.83 62.5298 17.62C62.5298 21.42 59.4498 24.5 55.6498 24.5ZM55.6498 12.05C52.5698 12.05 50.0698 14.55 50.0698 17.63C50.0698 20.7 52.5698 23.21 55.6498 23.21C58.7298 23.21 61.2298 20.71 61.2298 17.63C61.2298 14.55 58.7298 12.05 55.6498 12.05Z" fill="black"/>
</g>
<defs>
<clipPath id="clip0">
<rect width="73.27" height="79.11" fill="white"/>
</clipPath>
</defs>
</svg>
