<svg width="377" height="37" viewBox="0 0 377 37" fill="none" xmlns="http://www.w3.org/2000/svg">
<g clip-path="url(#clip0)">
<path d="M29.045 6.49627V18.9065L20.4018 30.4674H5.4364V6.49627H29.045ZM34.4814 0.896729H0V36.0669H23.0742L34.4814 20.815V0.896729Z" fill="#E83F4A"/>
<path d="M58.3295 6.56443H47.8486V0.896729H74.883V6.56443H64.4072V36.1036H58.3244V6.56443H58.3295Z" fill="#E83F4A"/>
<path d="M77.2051 18.6494C77.2051 15.8339 77.6581 13.2753 78.5591 10.9684C79.4601 8.66144 80.7072 6.70055 82.3004 5.07522C83.8937 3.45513 85.7923 2.20204 87.9964 1.32122C90.2005 0.44039 92.6235 -2.34895e-05 95.2602 -2.34895e-05C97.9326 -0.0314816 100.376 0.377474 102.6 1.2216C104.825 2.06573 106.734 3.30308 108.342 4.92317C109.951 6.54851 111.208 8.50415 112.109 10.7901C113.01 13.0761 113.463 15.6294 113.463 18.4502C113.463 21.2027 113.01 23.7037 112.109 25.9582C111.208 28.2127 109.956 30.1526 108.342 31.7727C106.734 33.398 104.82 34.6668 102.6 35.5791C100.381 36.4914 97.9326 36.9633 95.2602 37C92.6235 37 90.2005 36.5595 87.9964 35.6787C85.7923 34.8031 83.8937 33.5605 82.3004 31.9509C80.7072 30.3413 79.4601 28.4119 78.5591 26.1574C77.6581 23.9029 77.2051 21.402 77.2051 18.6494ZM83.5781 18.2509C83.5781 20.1384 83.8581 21.8791 84.4231 23.473C84.9881 25.0668 85.7822 26.4405 86.8155 27.5992C87.8437 28.7579 89.0756 29.6702 90.511 30.3361C91.9414 31.0019 93.5448 31.3323 95.3162 31.3323C97.0826 31.3323 98.6962 31.0019 100.142 30.3361C101.587 29.6702 102.829 28.7632 103.858 27.5992C104.886 26.4405 105.685 25.0616 106.25 23.473C106.81 21.8791 107.095 20.1437 107.095 18.2509C107.095 16.4945 106.81 14.8534 106.25 13.3277C105.685 11.802 104.886 10.4703 103.858 9.32206C102.829 8.17908 101.587 7.28777 100.142 6.63764C98.6962 5.9875 97.0826 5.66768 95.3162 5.66768C93.5448 5.66768 91.9414 5.9875 90.511 6.63764C89.0807 7.28253 87.8488 8.17908 86.8155 9.32206C85.7822 10.465 84.9881 11.802 84.4231 13.3277C83.8581 14.8534 83.5781 16.4945 83.5781 18.2509Z" fill="#E83F4A"/>
<path d="M117.417 18.6494C117.417 15.8339 117.87 13.2753 118.771 10.9684C119.672 8.66669 120.919 6.70055 122.512 5.07522C124.106 3.45513 126.004 2.20204 128.208 1.32122C130.412 0.44039 132.835 -2.34895e-05 135.472 -2.34895e-05C138.145 -0.0314816 140.588 0.377474 142.812 1.2216C145.037 2.06573 146.946 3.30308 148.554 4.92317C150.163 6.54851 151.42 8.50415 152.321 10.7901C153.222 13.0761 153.675 15.6294 153.675 18.4502C153.675 21.2027 153.222 23.7037 152.321 25.9582C151.42 28.2127 150.168 30.1526 148.554 31.7727C146.946 33.398 145.032 34.6668 142.812 35.5791C140.593 36.4914 138.145 36.9633 135.472 37C132.835 37 130.412 36.5595 128.208 35.6787C126.004 34.8031 124.106 33.5605 122.512 31.9509C120.919 30.3413 119.672 28.4119 118.771 26.1574C117.865 23.9029 117.417 21.402 117.417 18.6494ZM123.79 18.2509C123.79 20.1384 124.07 21.8791 124.635 23.473C125.2 25.0668 125.994 26.4405 127.027 27.5992C128.056 28.7579 129.287 29.6702 130.723 30.3361C132.153 31.0019 133.757 31.3323 135.528 31.3323C137.294 31.3323 138.908 31.0019 140.354 30.3361C141.799 29.6702 143.041 28.7632 144.07 27.5992C145.098 26.4405 145.897 25.0616 146.462 23.473C147.022 21.8791 147.307 20.1437 147.307 18.2509C147.307 16.4945 147.022 14.8534 146.462 13.3277C145.897 11.802 145.098 10.4703 144.07 9.32206C143.041 8.17908 141.799 7.28777 140.354 6.63764C138.908 5.9875 137.294 5.66768 135.528 5.66768C133.757 5.66768 132.153 5.9875 130.723 6.63764C129.293 7.28253 128.061 8.17908 127.027 9.32206C125.994 10.465 125.2 11.802 124.635 13.3277C124.07 14.8534 123.79 16.4945 123.79 18.2509Z" fill="#E83F4A"/>
<path d="M159.463 0.896729H165.546V30.4359H180.078V36.1036H159.463V0.896729Z" fill="#E83F4A"/>
<path d="M201.275 8.45712C200.628 7.49765 199.768 6.78984 198.694 6.34418C197.615 5.89853 196.48 5.67308 195.289 5.67308C194.581 5.67308 193.899 5.75172 193.237 5.9195C192.576 6.08203 191.985 6.34943 191.451 6.71644C190.921 7.07821 190.494 7.55532 190.173 8.13205C189.852 8.71403 189.689 9.40086 189.689 10.1978C189.689 11.388 190.091 12.3003 190.896 12.9347C191.7 13.5638 192.698 14.1091 193.889 14.5757C195.08 15.0424 196.383 15.488 197.798 15.9179C199.213 16.3479 200.516 16.9456 201.707 17.7058C202.899 18.4713 203.896 19.4832 204.701 20.7415C205.505 21.9998 205.907 23.6724 205.907 25.7643C205.907 27.6571 205.566 29.3034 204.889 30.7137C204.212 32.1241 203.306 33.2933 202.16 34.2213C201.02 35.1493 199.692 35.8467 198.175 36.308C196.663 36.7747 195.07 37.0054 193.395 37.0054C191.272 37.0054 189.226 36.6384 187.261 35.9096C185.296 35.1808 183.606 33.9539 182.191 32.229L186.778 27.6571C187.521 28.8158 188.493 29.7176 189.7 30.3677C190.906 31.0126 192.184 31.3377 193.538 31.3377C194.245 31.3377 194.953 31.238 195.66 31.0388C196.368 30.8396 197.014 30.5407 197.589 30.1423C198.17 29.7438 198.633 29.2405 198.989 28.627C199.34 28.0136 199.519 27.311 199.519 26.5141C199.519 25.2191 199.117 24.2281 198.312 23.5308C197.508 22.8335 196.505 22.2463 195.319 21.7639C194.128 21.2815 192.825 20.8254 191.41 20.3955C189.995 19.9656 188.687 19.3783 187.501 18.6286C186.309 17.8841 185.312 16.8879 184.507 15.6453C183.703 14.4027 183.301 12.7354 183.301 10.6487C183.301 8.82413 183.668 7.25123 184.39 5.92474C185.118 4.59826 186.065 3.49722 187.241 2.6164C188.417 1.74081 189.756 1.08543 191.272 0.650263C192.784 0.220335 194.327 0.00537109 195.905 0.00537109C197.707 0.00537109 199.452 0.288494 201.142 0.85474C202.832 1.42099 204.354 2.349 205.703 3.63878L201.275 8.45712Z" fill="#E83F4A"/>
<path d="M248.918 36.1036H229.031C226.358 36.1036 223.89 35.6789 221.619 34.8347C219.349 33.9906 217.384 32.7795 215.73 31.2013C214.07 29.6284 212.772 27.7042 211.821 25.434C210.874 23.1638 210.4 20.6052 210.4 17.753C210.4 15.1682 210.874 12.7878 211.821 10.6172C212.772 8.44662 214.065 6.57486 215.71 4.99671C217.354 3.42381 219.257 2.19694 221.431 1.31611C223.605 0.435287 225.91 -0.00512695 228.359 -0.00512695C230.807 -0.00512695 233.113 0.435287 235.287 1.31611C237.46 2.19694 239.369 3.41857 241.008 4.99671C242.647 6.56962 243.945 8.44662 244.892 10.6172C245.844 12.7878 246.317 15.1682 246.317 17.753C246.317 19.609 246.098 21.2396 245.666 22.65C245.233 24.0603 244.658 25.3029 243.95 26.383C243.243 27.4578 242.459 28.3649 241.609 29.0936C240.754 29.8224 239.929 30.4359 239.125 30.9339V31.0336H248.924V36.1036H248.918ZM228.211 5.67306C226.567 5.67306 225.05 5.97716 223.65 6.59059C222.251 7.20403 221.044 8.0534 220.031 9.14919C219.018 10.2397 218.219 11.5348 217.644 13.029C217.064 14.5233 216.773 16.1434 216.773 17.8998C216.773 19.6877 217.064 21.3549 217.644 22.8964C218.224 24.4378 219.028 25.7643 220.057 26.8758C221.085 27.9874 222.301 28.8577 223.701 29.4869C225.101 30.116 226.638 30.4306 228.313 30.4306C229.988 30.4306 231.54 30.116 232.971 29.4869C234.401 28.8577 235.633 27.9874 236.666 26.8758C237.694 25.7643 238.499 24.4378 239.079 22.8964C239.659 21.3549 239.949 19.6877 239.949 17.8998C239.949 16.1434 239.659 14.518 239.079 13.029C238.499 11.5348 237.694 10.2397 236.666 9.14919C235.633 8.0534 234.401 7.19878 232.971 6.59059C231.535 5.97716 229.947 5.67306 228.211 5.67306Z" fill="#E83F4A"/>
<path d="M280.739 23.1743C280.739 25.2925 280.387 27.2115 279.68 28.9154C278.972 30.6247 278.005 32.0717 276.784 33.2619C275.562 34.4573 274.111 35.3748 272.436 36.0197C270.762 36.6646 268.945 36.9897 266.98 36.9897C265.015 36.9897 263.198 36.6646 261.523 36.0197C259.848 35.3748 258.392 34.4573 257.155 33.2619C255.919 32.0717 254.951 30.6194 254.259 28.9154C253.567 27.2062 253.221 25.2925 253.221 23.1743V0.896729H259.304V22.9751C259.304 23.8402 259.431 24.742 259.69 25.6857C259.945 26.6347 260.373 27.4998 260.968 28.2968C261.564 29.0937 262.353 29.7491 263.335 30.2629C264.317 30.7767 265.534 31.0336 266.98 31.0336C268.425 31.0336 269.642 30.7767 270.624 30.2629C271.602 29.7491 272.391 29.0937 272.991 28.2968C273.587 27.4998 274.014 26.6347 274.269 25.6857C274.523 24.742 274.656 23.8402 274.656 22.9751V0.896729H280.739V23.1743V23.1743Z" fill="#E83F4A"/>
<path d="M299.277 0.896729H304.54L319.266 36.1036H312.313L309.126 28.0503H294.309L291.219 36.1036H284.413L299.277 0.896729ZM306.999 22.6762L301.735 8.35755L296.375 22.6762H306.999Z" fill="#E83F4A"/>
<path d="M323.073 0.896729H334.949C336.593 0.896729 338.176 1.05402 339.703 1.3686C341.23 1.68318 342.594 2.22321 343.78 2.98345C344.972 3.74893 345.923 4.77656 346.631 6.06635C347.339 7.35613 347.69 9.00244 347.69 10.9895C347.69 13.5429 347.008 15.682 345.638 17.407C344.269 19.132 342.314 20.1753 339.774 20.5371L348.85 36.0984H341.51L333.595 21.182H329.156V36.0984H323.073V0.896729V0.896729ZM333.885 15.8184C334.755 15.8184 335.621 15.7764 336.491 15.6925C337.362 15.6086 338.156 15.4094 338.884 15.0948C339.606 14.7802 340.192 14.3031 340.645 13.653C341.098 13.0081 341.322 12.1063 341.322 10.9424C341.322 9.91472 341.113 9.08633 340.696 8.45716C340.278 7.828 339.729 7.35613 339.052 7.03631C338.375 6.72173 337.626 6.51725 336.807 6.41763C335.987 6.31801 335.193 6.27083 334.419 6.27083H329.156V15.8184H333.885Z" fill="#E83F4A"/>
<path d="M353.487 0.896729H376.129V6.56443H359.57V15.2207H375.258V20.8884H359.57V30.4359H376.999V36.1036H353.487V0.896729Z" fill="#E83F4A"/>
</g>
<defs>
<clipPath id="clip0">
<rect width="377" height="37" fill="white"/>
</clipPath>
</defs>
</svg>
