<svg width="80" height="70" viewBox="0 0 80 70" fill="none" xmlns="http://www.w3.org/2000/svg">
<g clip-path="url(#clip0)">
<path d="M55.58 69.07C55.21 69.07 54.89 68.91 54.76 68.85C52.88 67.92 51.11 66.16 49.24 64.3C47.59 62.66 45.88 60.97 44.12 59.91C43.88 59.77 43.65 59.64 43.42 59.51C42.42 58.95 41.47 58.42 41.13 57.46C41.06 57.28 41.02 57.05 41.02 56.78C41.02 55.62 41.72 53.67 42.18 52.38C42.27 52.13 42.35 51.9 42.41 51.72C42.64 51.05 43.11 49.66 45.4 49.6C48.03 49.56 55.76 51.63 58.14 52.59C59.6 53.18 60.42 53.84 60.73 54.69C61.1 55.65 60.31 58.11 58.27 63.64C57.67 65.26 57.16 66.66 56.97 67.38C56.78 68.1 56.62 68.72 56.05 68.98C55.89 69.04 55.73 69.07 55.58 69.07ZM43.64 52.14C43.58 52.33 43.49 52.56 43.4 52.82C43 53.95 42.32 55.85 42.32 56.78C42.32 56.93 42.34 56.99 42.35 57.01C42.53 57.52 43.24 57.91 44.05 58.37C44.29 58.5 44.54 58.64 44.79 58.79C46.68 59.93 48.45 61.68 50.16 63.37C51.96 65.16 53.66 66.84 55.34 67.67C55.41 67.71 55.47 67.73 55.51 67.74C55.58 67.58 55.67 67.26 55.72 67.03C55.93 66.25 56.45 64.83 57.06 63.17C57.99 60.64 59.73 55.93 59.52 55.12C59.35 54.66 58.73 54.21 57.66 53.78C55.18 52.78 47.81 50.89 45.5 50.89C45.48 50.89 45.46 50.89 45.44 50.89C44.05 50.94 43.84 51.55 43.64 52.14ZM54.08 59.56C53.63 59.56 53.21 59.41 52.86 59.12C52.45 58.8 52.19 58.33 52.13 57.81C52.07 57.29 52.22 56.78 52.54 56.37C53.23 55.52 54.44 55.38 55.3 56.05C55.72 56.38 55.98 56.84 56.04 57.37C56.1 57.9 55.95 58.42 55.61 58.83C55.29 59.24 54.82 59.5 54.3 59.55C54.23 59.56 54.15 59.56 54.08 59.56ZM53.55 57.18C53.44 57.32 53.4 57.49 53.42 57.66C53.44 57.84 53.53 58 53.67 58.11C53.81 58.23 53.99 58.28 54.16 58.26C54.34 58.24 54.49 58.15 54.6 58.02C54.72 57.87 54.77 57.7 54.75 57.52C54.73 57.34 54.64 57.19 54.51 57.08C54.21 56.84 53.79 56.89 53.55 57.18Z" fill="black"/>
<path d="M23.5101 69.07C23.3601 69.07 23.2001 69.04 23.0501 68.97C22.4901 68.72 22.3301 68.12 22.1301 67.37V67.36C21.9401 66.64 21.4101 65.2 20.8001 63.54C18.7901 58.08 18.0001 55.64 18.3601 54.68C18.7001 53.83 19.5201 53.16 20.9601 52.59C23.3401 51.63 31.0301 49.57 33.6901 49.61C35.9601 49.67 36.4501 51.06 36.6801 51.72C36.7501 51.93 36.8401 52.18 36.9401 52.46C37.4201 53.81 38.0701 55.66 38.0701 56.79C38.0701 57.06 38.0401 57.27 37.9701 57.46C37.6401 58.41 36.7001 58.94 35.7001 59.49C35.4601 59.62 35.2201 59.76 34.9801 59.91C33.2201 60.97 31.5101 62.66 29.8601 64.3C27.9801 66.16 26.2101 67.92 24.3401 68.85C24.2001 68.91 23.8801 69.07 23.5101 69.07ZM23.3801 67.04C23.4501 67.3 23.5301 67.6 23.6001 67.75C23.6401 67.74 23.6901 67.72 23.7501 67.68C25.4401 66.85 27.1401 65.16 28.9401 63.38C30.6501 61.69 32.4101 59.93 34.3101 58.8C34.5601 58.65 34.8201 58.5 35.0701 58.36C35.8501 57.93 36.5801 57.52 36.7501 57.03C36.7501 57.02 36.7701 56.96 36.7701 56.79C36.7701 55.87 36.1101 54 35.7201 52.89C35.6201 52.6 35.5301 52.34 35.4601 52.13C35.2501 51.52 35.0401 50.94 33.6701 50.9C31.4901 50.86 23.9601 52.78 21.4501 53.79C20.3901 54.21 19.7601 54.67 19.5701 55.14C19.3801 55.92 21.0901 60.58 22.0101 63.08C22.6401 64.79 23.1801 66.25 23.3801 67.04ZM25.0101 59.56C24.4301 59.56 23.8601 59.31 23.4701 58.83C23.1401 58.41 22.9901 57.9 23.0501 57.37C23.1101 56.84 23.3701 56.38 23.7801 56.05C24.6301 55.38 25.8701 55.52 26.5401 56.37C26.8701 56.79 27.0201 57.31 26.9601 57.84C26.9001 58.36 26.6401 58.82 26.2301 59.14C25.8701 59.42 25.4401 59.56 25.0101 59.56ZM25.0001 56.93C24.8601 56.93 24.7101 56.98 24.5901 57.07C24.3101 57.29 24.2601 57.73 24.4801 58.01C24.7101 58.3 25.1301 58.34 25.4201 58.11C25.5601 58 25.6501 57.85 25.6701 57.68C25.6901 57.5 25.6401 57.32 25.5301 57.18C25.3901 57.01 25.2001 56.93 25.0001 56.93Z" fill="black"/>
<path d="M57.89 53.84C57.81 53.84 57.73 53.82 57.65 53.79C55.17 52.79 47.8 50.9 45.49 50.9C45.46 50.9 45.44 50.9 45.41 50.9C45.21 50.9 45.02 50.81 44.9 50.65C44.77 50.49 44.73 50.28 44.79 50.08C45.36 47.97 47.09 41.53 49.1 38.52C50.86 35.88 56.99 30.6 61.84 28.72C64.31 27.76 66.22 27.75 67.51 28.68C67.55 28.71 67.59 28.74 67.63 28.77C68.37 25.15 70.46 20.22 72.44 17.61C73.08 16.76 74.38 15.3 75.96 15.13C76.73 15.05 77.45 15.28 78.08 15.83C80.02 17.51 78.78 24.01 77.87 27.74C76.76 32.28 74.74 38.12 72.93 40.21C70.71 42.79 68.59 43.88 66.53 44.94C63.55 46.47 60.97 47.79 58.49 53.46C58.38 53.7 58.14 53.84 57.89 53.84ZM46.25 49.64C49.16 49.91 54.96 51.45 57.55 52.37C60.15 46.75 62.96 45.31 65.93 43.78C67.88 42.78 69.89 41.75 71.94 39.36C73.34 37.74 75.3 32.72 76.6 27.43C78.15 21.11 78.01 17.49 77.22 16.82C76.87 16.51 76.5 16.39 76.09 16.43C75.31 16.51 74.33 17.25 73.47 18.4C71.36 21.19 69.03 27 68.68 30.37C68.65 30.7 68.37 30.95 68.03 30.95C67.76 30.95 67.51 30.79 67.42 30.54C67.31 30.25 67.08 29.99 66.74 29.74C65.61 28.92 63.71 29.39 62.31 29.94C57.76 31.71 51.81 36.81 50.17 39.25C48.48 41.78 46.95 47.08 46.25 49.64Z" fill="black"/>
<path d="M21.2002 53.84C20.9502 53.84 20.7102 53.69 20.6002 53.45C18.1102 47.78 15.5302 46.46 12.5502 44.93C10.4902 43.87 8.37019 42.78 6.14019 40.2C3.20019 36.77 -2.26981 18.67 1.02019 15.83C1.65019 15.28 2.36019 15.04 3.14019 15.13C4.72019 15.3 6.02019 16.76 6.66019 17.61C8.63019 20.2 10.7202 25.13 11.4702 28.76C11.5102 28.73 11.5402 28.71 11.5802 28.68C13.3402 27.41 16.3202 27.92 20.2002 30.18C24.3102 32.57 28.5802 36.43 29.9802 38.53C31.7402 41.14 33.2102 46.08 34.3102 50.09C34.3602 50.29 34.3202 50.5 34.2002 50.66C34.0802 50.82 33.8802 50.92 33.6802 50.91C31.4902 50.85 23.9602 52.79 21.4602 53.8C21.3702 53.83 21.2802 53.84 21.2002 53.84ZM2.84019 16.41C2.49019 16.41 2.17019 16.54 1.87019 16.81C-0.389809 18.77 4.13019 35.87 7.14019 39.35C9.20019 41.74 11.2102 42.77 13.1602 43.77C16.1302 45.3 18.9402 46.74 21.5502 52.36C24.1302 51.44 29.9302 49.9 32.8402 49.63C32.1002 46.94 30.5802 41.73 28.9002 39.23C27.6002 37.29 23.4402 33.55 19.5502 31.29C16.1902 29.34 13.6302 28.79 12.3402 29.72C12.0002 29.97 11.7702 30.23 11.6702 30.5C11.5602 30.78 11.2702 30.95 10.9802 30.91C10.6802 30.87 10.4502 30.63 10.4202 30.34C10.0502 26.95 7.72019 21.14 5.63019 18.38C4.76019 17.24 3.78019 16.5 3.00019 16.42C2.95019 16.41 2.89019 16.41 2.84019 16.41Z" fill="black"/>
<path d="M59.3402 23.58H53.5602C53.2002 23.58 52.9102 23.29 52.9102 22.93C52.9102 19.38 55.7902 16.5 59.3402 16.5C59.7002 16.5 59.9902 16.79 59.9902 17.15V22.93C59.9902 23.29 59.7002 23.58 59.3402 23.58ZM54.2602 22.28H58.7002V17.84C56.3802 18.13 54.5502 19.97 54.2602 22.28Z" fill="black"/>
<path d="M59.3402 7.08C55.8002 7.08 52.9102 4.2 52.9102 0.65C52.9102 0.29 53.2002 0 53.5602 0H59.3402C59.7002 0 59.9902 0.29 59.9902 0.65V6.43C59.9902 6.79 59.7002 7.08 59.3402 7.08ZM54.2602 1.3C54.5502 3.61 56.3902 5.44 58.7002 5.74V1.3H54.2602Z" fill="black"/>
<path d="M41.5504 11.71C41.2604 11.37 40.7304 11.1 39.9304 10.89V8.97002C40.2504 9.11002 40.4404 9.36001 40.5204 9.75001L41.7704 9.59001C41.6804 9.09001 41.5004 8.69001 41.1904 8.41001C40.8704 8.12001 40.4504 7.93001 39.9304 7.87001V7.39001H39.2104V7.87001C38.6604 7.92001 38.2104 8.14002 37.8704 8.51002C37.5304 8.87002 37.3504 9.32001 37.3504 9.86001C37.3504 10.39 37.5104 10.84 37.8104 11.21C38.1004 11.59 38.5804 11.87 39.2104 12.05V14.11C39.0404 14.02 38.8804 13.89 38.7304 13.69C38.5904 13.51 38.4904 13.28 38.4304 13.02L37.1504 13.17C37.2504 13.81 37.4704 14.31 37.8304 14.66C38.1904 15.01 38.6504 15.22 39.2104 15.29V16.2H39.9304V15.28C40.5804 15.18 41.0704 14.92 41.4404 14.52C41.8004 14.11 41.9804 13.61 41.9804 13.02C41.9804 12.49 41.8304 12.05 41.5504 11.71ZM39.2104 10.65C39.0004 10.56 38.8404 10.44 38.7404 10.29C38.6404 10.14 38.5904 9.97002 38.5904 9.81002C38.5904 9.61002 38.6504 9.44001 38.7504 9.28001C38.8704 9.12001 39.0204 9.01001 39.2104 8.94001V10.65ZM40.5304 13.83C40.3704 14.02 40.1804 14.13 39.9304 14.19V12.26C40.2304 12.35 40.4404 12.46 40.5704 12.63C40.7004 12.78 40.7604 12.98 40.7604 13.19C40.7604 13.45 40.6904 13.65 40.5304 13.83Z" fill="black"/>
<path d="M39.5701 19.06C35.5701 19.06 32.3101 15.8 32.3101 11.79C32.3101 7.79 35.5701 4.53 39.5701 4.53C43.5801 4.53 46.8401 7.79 46.8401 11.79C46.8301 15.8 43.5701 19.06 39.5701 19.06ZM39.5701 5.83C36.2801 5.83 33.6101 8.5 33.6101 11.79C33.6101 15.08 36.2801 17.76 39.5701 17.76C42.8601 17.76 45.5401 15.08 45.5401 11.79C45.5301 8.5 42.8601 5.83 39.5701 5.83Z" fill="black"/>
<path d="M19.7901 7.08C19.4301 7.08 19.1401 6.79 19.1401 6.43V0.65C19.1401 0.29 19.4301 0 19.7901 0H25.5701C25.9301 0 26.2201 0.29 26.2201 0.65C26.2201 4.19 23.3301 7.08 19.7901 7.08ZM20.4401 1.3V5.74C22.7501 5.45 24.5901 3.61 24.8801 1.3H20.4401V1.3Z" fill="black"/>
<path d="M53.5701 23.58H25.5701C25.2101 23.58 24.9201 23.29 24.9201 22.93C24.9201 20.1 22.6201 17.8 19.7901 17.8C19.4301 17.8 19.1401 17.51 19.1401 17.15V6.43C19.1401 6.07 19.4301 5.78 19.7901 5.78C22.6201 5.78 24.9201 3.48 24.9201 0.65C24.9201 0.29 25.2101 0 25.5701 0H53.5701C53.9301 0 54.2201 0.29 54.2201 0.65C54.2201 3.48 56.5201 5.78 59.3501 5.78C59.7101 5.78 60.0001 6.07 60.0001 6.43V17.15C60.0001 17.51 59.7101 17.8 59.3501 17.8C56.5201 17.8 54.2201 20.1 54.2201 22.93C54.2201 23.29 53.9201 23.58 53.5701 23.58ZM26.1801 22.28H52.9401C53.2501 19.25 55.6601 16.84 58.6901 16.53V7.05C55.6601 6.74 53.2501 4.33 52.9401 1.3H26.1801C25.8701 4.33 23.4601 6.74 20.4301 7.05V16.53C23.4601 16.83 25.8801 19.25 26.1801 22.28ZM39.5701 19.06C35.5701 19.06 32.3101 15.8 32.3101 11.79C32.3101 7.79 35.5701 4.53 39.5701 4.53C43.5801 4.53 46.8401 7.79 46.8401 11.79C46.8301 15.8 43.5701 19.06 39.5701 19.06ZM39.5701 5.83C36.2801 5.83 33.6101 8.5 33.6101 11.79C33.6101 15.08 36.2801 17.76 39.5701 17.76C42.8601 17.76 45.5401 15.08 45.5401 11.79C45.5301 8.5 42.8601 5.83 39.5701 5.83Z" fill="black"/>
<path d="M25.5701 23.58H19.8801C19.5201 23.58 19.1401 23.29 19.1401 22.93V17.15C19.1401 16.79 19.4301 16.5 19.7901 16.5C23.3401 16.5 26.2201 19.38 26.2201 22.93C26.2201 23.29 25.9301 23.58 25.5701 23.58ZM20.4401 22.28H24.8801C24.5901 19.97 22.7501 18.13 20.4401 17.84V22.28Z" fill="black"/>
<path d="M45.4103 50.9C45.3503 50.9 45.3003 50.89 45.2403 50.88C44.8903 50.79 44.6903 50.43 44.7803 50.08C45.3503 47.97 47.0803 41.53 49.0903 38.52C50.8603 35.88 56.9803 30.6 61.8303 28.72C64.3003 27.76 66.2103 27.75 67.5003 28.68C68.0403 29.07 68.4203 29.53 68.6303 30.05C69.9103 33.19 64.3603 36.83 60.0703 39.3L59.6903 39.52C59.3803 39.7 58.9803 39.6 58.8003 39.29C58.6203 38.98 58.7203 38.58 59.0303 38.4L59.4203 38.18C67.2603 33.67 67.8003 31.46 67.4303 30.54C67.3103 30.25 67.0903 29.99 66.7403 29.74C65.6103 28.92 63.7103 29.39 62.3103 29.94C57.7603 31.71 51.8103 36.81 50.1703 39.25C48.2703 42.09 46.5903 48.37 46.0303 50.43C45.9603 50.71 45.7003 50.9 45.4103 50.9Z" fill="black"/>
<path d="M57.89 53.84C57.8 53.84 57.71 53.82 57.63 53.78C57.3 53.64 57.15 53.25 57.3 52.92C59.97 46.83 62.87 45.34 65.94 43.77C67.89 42.77 69.9 41.74 71.95 39.35C73.35 37.73 75.31 32.71 76.61 27.42C78.16 21.1 78.02 17.48 77.23 16.81C76.88 16.5 76.51 16.38 76.1 16.42C75.32 16.5 74.34 17.24 73.48 18.39C71.37 21.18 69.04 26.99 68.69 30.36C68.65 30.72 68.33 30.97 67.98 30.94C67.62 30.9 67.36 30.58 67.4 30.23C67.77 26.61 70.18 20.6 72.44 17.61C73.08 16.76 74.38 15.3 75.96 15.13C76.73 15.05 77.45 15.28 78.08 15.83C80.02 17.51 78.78 24.01 77.87 27.74C76.76 32.28 74.74 38.12 72.93 40.21C70.71 42.79 68.59 43.88 66.53 44.94C63.55 46.47 60.97 47.79 58.49 53.46C58.38 53.7 58.14 53.84 57.89 53.84Z" fill="black"/>
<path d="M55.58 69.07C55.21 69.07 54.89 68.91 54.76 68.85C52.88 67.92 51.11 66.16 49.24 64.3C47.59 62.66 45.88 60.97 44.12 59.91C43.88 59.77 43.65 59.64 43.42 59.51C42.42 58.95 41.47 58.42 41.13 57.46C41.06 57.28 41.02 57.05 41.02 56.78C41.02 55.62 41.72 53.67 42.18 52.38C42.27 52.13 42.35 51.9 42.41 51.72C42.64 51.05 43.11 49.66 45.4 49.6C48.03 49.56 55.76 51.63 58.14 52.59C59.6 53.18 60.42 53.84 60.73 54.69C61.1 55.65 60.31 58.11 58.27 63.64C57.67 65.26 57.16 66.66 56.97 67.38C56.78 68.1 56.62 68.72 56.05 68.98C55.89 69.04 55.73 69.07 55.58 69.07ZM45.49 50.9C45.47 50.9 45.45 50.9 45.43 50.9C44.05 50.94 43.84 51.55 43.64 52.14C43.58 52.33 43.49 52.56 43.4 52.82C43 53.95 42.32 55.85 42.32 56.78C42.32 56.93 42.34 56.99 42.35 57.01C42.53 57.52 43.24 57.91 44.05 58.37C44.29 58.5 44.54 58.64 44.79 58.79C46.68 59.93 48.45 61.68 50.16 63.37C51.96 65.16 53.66 66.84 55.34 67.67C55.41 67.71 55.47 67.73 55.51 67.74C55.58 67.58 55.67 67.26 55.72 67.03C55.93 66.25 56.45 64.83 57.06 63.17C57.99 60.64 59.73 55.93 59.52 55.12C59.35 54.66 58.73 54.21 57.66 53.78C55.17 52.8 47.79 50.9 45.49 50.9Z" fill="black"/>
<path d="M54.0802 59.56C53.6302 59.56 53.2102 59.41 52.8602 59.12C52.4502 58.8 52.1902 58.33 52.1302 57.81C52.0702 57.29 52.2202 56.78 52.5402 56.37C53.2302 55.52 54.4402 55.38 55.3002 56.05C55.7202 56.38 55.9802 56.84 56.0402 57.37C56.1002 57.9 55.9502 58.42 55.6102 58.83C55.2902 59.24 54.8202 59.5 54.3002 59.55C54.2302 59.56 54.1502 59.56 54.0802 59.56ZM53.5502 57.18C53.4402 57.32 53.4002 57.49 53.4202 57.66C53.4402 57.84 53.5302 58 53.6702 58.11C53.8102 58.23 53.9902 58.28 54.1602 58.26C54.3402 58.24 54.4902 58.15 54.6002 58.02C54.7202 57.87 54.7702 57.7 54.7502 57.52C54.7302 57.34 54.6402 57.19 54.5102 57.08C54.2102 56.84 53.7902 56.89 53.5502 57.18Z" fill="black"/>
<path d="M19.7202 39.61C19.6102 39.61 19.4902 39.58 19.3902 39.52L19.0102 39.3C14.7302 36.84 9.20021 33.2 10.4602 30.05C10.5902 29.72 10.9702 29.55 11.3102 29.69C11.6402 29.82 11.8102 30.2 11.6702 30.54C11.3002 31.46 11.8502 33.68 19.6602 38.18L20.0502 38.41C20.3602 38.59 20.4602 38.99 20.2802 39.3C20.1602 39.49 19.9402 39.61 19.7202 39.61Z" fill="black"/>
<path d="M33.6803 50.9C33.3903 50.9 33.1303 50.71 33.0503 50.42C32.4203 48.12 30.7603 42.01 28.9003 39.24C27.6003 37.3 23.4403 33.56 19.5503 31.3C16.1903 29.35 13.6303 28.8 12.3403 29.73C12.0003 29.98 11.7703 30.24 11.6703 30.51C11.5403 30.84 11.1603 31.01 10.8303 30.88C10.5003 30.75 10.3303 30.37 10.4603 30.04C10.6603 29.53 11.0403 29.07 11.5903 28.67C13.3503 27.4 16.3303 27.91 20.2103 30.17C24.3203 32.56 28.5903 36.42 29.9903 38.52C31.7503 41.13 33.2203 46.07 34.3203 50.08C34.4103 50.43 34.2103 50.78 33.8603 50.88C33.7903 50.9 33.7403 50.9 33.6803 50.9Z" fill="black"/>
<path d="M21.2002 53.84C20.9502 53.84 20.7102 53.69 20.6002 53.45C18.1102 47.78 15.5302 46.46 12.5502 44.93C10.4902 43.87 8.37019 42.78 6.14019 40.2C3.20019 36.77 -2.26981 18.67 1.02019 15.83C1.65019 15.28 2.36019 15.04 3.14019 15.13C4.72019 15.3 6.02019 16.76 6.66019 17.61C8.90019 20.57 11.3102 26.58 11.7102 30.21C11.7102 30.57 11.4202 30.9 11.0602 30.9C10.7002 30.9 10.4102 30.65 10.4102 30.29C10.0402 26.96 7.72019 21.15 5.62019 18.39C4.76019 17.24 3.78019 16.5 3.00019 16.42C2.60019 16.38 2.23019 16.5 1.87019 16.81C-0.389809 18.77 4.13019 35.87 7.14019 39.35C9.20019 41.74 11.2102 42.77 13.1602 43.77C16.2302 45.35 19.1302 46.84 21.8002 52.92C21.9402 53.25 21.8002 53.63 21.4702 53.78C21.3802 53.82 21.2902 53.84 21.2002 53.84Z" fill="black"/>
<path d="M23.5101 69.07C23.3601 69.07 23.2001 69.04 23.0501 68.97C22.4901 68.72 22.3301 68.12 22.1301 67.37C21.9401 66.64 21.4101 65.2 20.8001 63.54C18.7901 58.08 18.0001 55.64 18.3601 54.68C18.7001 53.83 19.5201 53.16 20.9601 52.59C23.3401 51.63 31.0301 49.57 33.6901 49.6C35.9601 49.66 36.4501 51.05 36.6801 51.71C36.7501 51.92 36.8401 52.17 36.9401 52.45C37.4201 53.8 38.0701 55.65 38.0701 56.78C38.0701 57.05 38.0401 57.26 37.9701 57.45C37.6401 58.4 36.7001 58.93 35.7001 59.48C35.4601 59.61 35.2201 59.75 34.9801 59.9C33.2201 60.96 31.5101 62.65 29.8601 64.29C27.9801 66.15 26.2101 67.91 24.3401 68.84C24.2001 68.91 23.8801 69.07 23.5101 69.07ZM23.6501 67.83H23.6601H23.6501ZM33.6001 50.9C31.3001 50.9 23.9301 52.79 21.4501 53.79C20.3901 54.21 19.7601 54.67 19.5801 55.14C19.3901 55.92 21.1001 60.58 22.0201 63.08C22.6401 64.77 23.1801 66.24 23.3901 67.02C23.4601 67.27 23.5401 67.58 23.6101 67.73C23.6501 67.72 23.7001 67.7 23.7601 67.66C25.4501 66.83 27.1501 65.14 28.9501 63.36C30.6601 61.67 32.4201 59.91 34.3201 58.78C34.5701 58.63 34.8301 58.48 35.0801 58.34C35.8601 57.91 36.5901 57.5 36.7601 57.01C36.7601 57 36.7801 56.94 36.7801 56.77C36.7801 55.85 36.1201 53.98 35.7301 52.87C35.6301 52.58 35.5401 52.32 35.4701 52.11C35.2601 51.5 35.0501 50.92 33.6801 50.88C33.6401 50.9 33.6201 50.9 33.6001 50.9Z" fill="black"/>
<path d="M25.0102 59.56C24.4302 59.56 23.8602 59.31 23.4702 58.83C22.7902 57.97 22.9302 56.73 23.7802 56.06C24.6302 55.39 25.8702 55.53 26.5402 56.38C26.8702 56.8 27.0202 57.32 26.9602 57.85C26.9002 58.37 26.6402 58.83 26.2302 59.15C25.8702 59.42 25.4402 59.56 25.0102 59.56ZM25.0002 56.93C24.8602 56.93 24.7102 56.98 24.5902 57.07C24.3102 57.29 24.2602 57.73 24.4802 58.01C24.7102 58.3 25.1302 58.34 25.4202 58.11C25.5602 58 25.6502 57.85 25.6702 57.68C25.6902 57.5 25.6402 57.32 25.5302 57.18C25.3902 57.01 25.2002 56.93 25.0002 56.93Z" fill="black"/>
<path d="M19.7901 17.8C19.4301 17.8 19.1401 17.51 19.1401 17.15V6.43C19.1401 6.07 19.4301 5.78 19.7901 5.78C20.1501 5.78 20.4401 6.07 20.4401 6.43V17.15C20.4401 17.51 20.1401 17.8 19.7901 17.8Z" fill="black"/>
<path d="M53.5704 23.58H25.5704C25.2104 23.58 24.9204 23.29 24.9204 22.93C24.9204 22.57 25.2104 22.28 25.5704 22.28H53.5704C53.9304 22.28 54.2204 22.57 54.2204 22.93C54.2204 23.29 53.9204 23.58 53.5704 23.58Z" fill="black"/>
<path d="M59.3404 17.8C58.9804 17.8 58.6904 17.51 58.6904 17.15V6.43C58.6904 6.07 58.9804 5.78 59.3404 5.78C59.7004 5.78 59.9904 6.07 59.9904 6.43V17.15C59.9904 17.51 59.7004 17.8 59.3404 17.8Z" fill="black"/>
<path d="M53.5704 1.3H25.5704C25.2104 1.3 24.9204 1.01 24.9204 0.65C24.9204 0.29 25.2104 0 25.5704 0H53.5704C53.9304 0 54.2204 0.29 54.2204 0.65C54.2204 1.01 53.9204 1.3 53.5704 1.3Z" fill="black"/>
<path d="M59.3402 7.08C55.8002 7.08 52.9102 4.2 52.9102 0.65C52.9102 0.29 53.2002 0 53.5602 0H59.3402C59.7002 0 59.9902 0.29 59.9902 0.65V6.43C59.9902 6.79 59.7002 7.08 59.3402 7.08ZM54.2602 1.3C54.5502 3.61 56.3902 5.44 58.7002 5.74V1.3H54.2602Z" fill="black"/>
<path d="M19.7901 7.08C19.4301 7.08 19.1401 6.79 19.1401 6.43V0.65C19.1401 0.29 19.4301 0 19.7901 0H25.5701C25.9301 0 26.2201 0.29 26.2201 0.65C26.2201 4.19 23.3301 7.08 19.7901 7.08ZM20.4401 1.3V5.74C22.7501 5.45 24.5901 3.61 24.8801 1.3H20.4401V1.3Z" fill="black"/>
<path d="M25.5701 23.58H19.8801C19.5201 23.58 19.1401 23.29 19.1401 22.93V17.15C19.1401 16.79 19.4301 16.5 19.7901 16.5C23.3401 16.5 26.2201 19.38 26.2201 22.93C26.2201 23.29 25.9301 23.58 25.5701 23.58ZM20.4401 22.28H24.8801C24.5901 19.97 22.7501 18.13 20.4401 17.84V22.28Z" fill="black"/>
<path d="M59.3402 23.58H53.5602C53.2002 23.58 52.9102 23.29 52.9102 22.93C52.9102 19.38 55.7902 16.5 59.3402 16.5C59.7002 16.5 59.9902 16.79 59.9902 17.15V22.93C59.9902 23.29 59.7002 23.58 59.3402 23.58ZM54.2602 22.28H58.7002V17.84C56.3802 18.13 54.5502 19.97 54.2602 22.28Z" fill="black"/>
<path d="M39.5701 19.06C35.5701 19.06 32.3101 15.8 32.3101 11.79C32.3101 7.79 35.5701 4.53 39.5701 4.53C43.5801 4.53 46.8401 7.79 46.8401 11.79C46.8301 15.8 43.5701 19.06 39.5701 19.06ZM39.5701 5.83C36.2801 5.83 33.6101 8.5 33.6101 11.79C33.6101 15.08 36.2801 17.76 39.5701 17.76C42.8601 17.76 45.5401 15.08 45.5401 11.79C45.5301 8.5 42.8601 5.83 39.5701 5.83Z" fill="black"/>
</g>
<defs>
<clipPath id="clip0">
<rect width="79.1" height="69.07" fill="white"/>
</clipPath>
</defs>
</svg>
