<svg width="71" height="80" viewBox="0 0 71 80" fill="none" xmlns="http://www.w3.org/2000/svg">
<g clip-path="url(#clip0)">
<path d="M53.59 79.11H0.65C0.29 79.11 0 78.82 0 78.46V3.91001C0 3.55001 0.29 3.26001 0.65 3.26001H53.59C53.95 3.26001 54.24 3.55001 54.24 3.91001V78.46C54.24 78.82 53.95 79.11 53.59 79.11ZM1.3 77.81H52.94V4.56001H1.3V77.81Z" fill="black"/>
<path d="M64.1696 78C63.9196 78 63.6896 77.86 63.5896 77.63L57.6696 65.44C57.6296 65.35 57.5996 65.25 57.5996 65.16V23.07C57.5996 22.71 57.8896 22.42 58.2496 22.42H70.0896C70.4496 22.42 70.7396 22.71 70.7396 23.07V65.15C70.7396 65.25 70.7196 65.35 70.6696 65.43L64.7496 77.62C64.6496 77.86 64.4196 78 64.1696 78ZM58.8996 65.01L64.1696 75.86L69.4396 65.01V23.72H58.8996V65.01Z" fill="black"/>
<path d="M64.1695 78C63.9195 78 63.6895 77.86 63.5895 77.63L61.8995 74.16C61.8095 73.98 61.8095 73.77 61.8995 73.59C61.9895 73.41 62.1495 73.28 62.3395 73.24C63.4695 72.98 64.8695 72.98 65.9995 73.24C66.1895 73.28 66.3595 73.41 66.4395 73.59C66.5295 73.77 66.5195 73.98 66.4395 74.15L64.7595 77.62C64.6495 77.86 64.4195 78 64.1695 78ZM63.4495 74.38L64.1695 75.86L64.8895 74.38C64.4195 74.34 63.9195 74.34 63.4495 74.38Z" fill="black"/>
<path d="M70.2301 65.83C70.1201 65.83 70.0001 65.8 69.9001 65.74L67.9901 64.61L66.7801 65.65C66.5501 65.85 66.2201 65.86 65.9801 65.69L64.0701 64.32L62.7601 65.63C62.6401 65.75 62.4701 65.82 62.3001 65.82C62.1301 65.82 61.9601 65.75 61.8401 65.63L60.5401 64.32L58.6301 65.69C58.3401 65.9 57.9301 65.83 57.7201 65.54C57.5101 65.25 57.5801 64.84 57.8701 64.63L60.2301 62.93C60.4901 62.74 60.8501 62.77 61.0701 63L62.3001 64.24L63.5401 63C63.7701 62.77 64.1201 62.75 64.3801 62.93L66.3201 64.33L67.5001 63.31C67.7101 63.13 68.0201 63.1 68.2601 63.24L70.5701 64.61C70.8801 64.79 70.9801 65.19 70.8001 65.5C70.6701 65.71 70.4501 65.83 70.2301 65.83Z" fill="black"/>
<path d="M60.9 64.29C60.54 64.29 60.25 64 60.25 63.64V23.07C60.25 22.71 60.54 22.42 60.9 22.42C61.26 22.42 61.55 22.71 61.55 23.07V63.64C61.55 64 61.26 64.29 60.9 64.29Z" fill="black"/>
<path d="M63.9601 64.49C63.6001 64.49 63.3101 64.2 63.3101 63.84L63.1201 23.08C63.1201 22.72 63.4101 22.43 63.7701 22.43C64.1301 22.43 64.4201 22.72 64.4201 23.08L64.6101 63.84C64.6101 64.19 64.3201 64.48 63.9601 64.49Z" fill="black"/>
<path d="M67.0504 64.96C66.6904 64.96 66.4004 64.67 66.4004 64.31V23.07C66.4004 22.71 66.6904 22.42 67.0504 22.42C67.4104 22.42 67.7004 22.71 67.7004 23.07V64.31C67.7004 64.67 67.4104 64.96 67.0504 64.96Z" fill="black"/>
<path d="M70.0896 23.72H58.2496C57.8896 23.72 57.5996 23.43 57.5996 23.07V20C57.5996 17.95 59.2696 16.28 61.3196 16.28H67.0096C69.0596 16.28 70.7296 17.95 70.7296 20V23.07C70.7396 23.43 70.4496 23.72 70.0896 23.72ZM58.8996 22.42H69.4396V20C69.4396 18.66 68.3496 17.58 67.0196 17.58H61.3296C59.9896 17.58 58.9096 18.67 58.9096 20V22.42H58.8996Z" fill="black"/>
<path d="M44.6904 24.28H9.55039C9.19039 24.28 8.90039 23.99 8.90039 23.63V15.15C8.90039 14.79 9.19039 14.5 9.55039 14.5H44.6904C45.0504 14.5 45.3404 14.79 45.3404 15.15V23.63C45.3404 23.99 45.0504 24.28 44.6904 24.28ZM10.2004 22.98H44.0404V15.8H10.2004V22.98Z" fill="black"/>
<path d="M44.0398 29.87H10.1998C9.8398 29.87 9.5498 29.58 9.5498 29.22C9.5498 28.86 9.8398 28.57 10.1998 28.57H44.0398C44.3998 28.57 44.6898 28.86 44.6898 29.22C44.6898 29.58 44.3998 29.87 44.0398 29.87Z" fill="black"/>
<path d="M44.0398 35.18H10.1998C9.8398 35.18 9.5498 34.89 9.5498 34.53C9.5498 34.17 9.8398 33.88 10.1998 33.88H44.0398C44.3998 33.88 44.6898 34.17 44.6898 34.53C44.6898 34.89 44.3998 35.18 44.0398 35.18Z" fill="black"/>
<path d="M44.0396 40.5H20.7496C20.3896 40.5 20.0996 40.21 20.0996 39.85C20.0996 39.49 20.3896 39.2 20.7496 39.2H44.0396C44.3996 39.2 44.6896 39.49 44.6896 39.85C44.6896 40.21 44.3996 40.5 44.0396 40.5Z" fill="black"/>
<path d="M35.5698 45.8H10.1998C9.8398 45.8 9.5498 45.51 9.5498 45.15C9.5498 44.79 9.8398 44.5 10.1998 44.5H35.5698C35.9298 44.5 36.2198 44.79 36.2198 45.15C36.2198 45.51 35.9298 45.8 35.5698 45.8Z" fill="black"/>
<path d="M44.0398 51.12H10.1998C9.8398 51.12 9.5498 50.83 9.5498 50.47C9.5498 50.11 9.8398 49.82 10.1998 49.82H44.0398C44.3998 49.82 44.6898 50.11 44.6898 50.47C44.6898 50.83 44.3998 51.12 44.0398 51.12Z" fill="black"/>
<path d="M44.0404 56.43H17.3004C16.9404 56.43 16.6504 56.14 16.6504 55.78C16.6504 55.42 16.9404 55.13 17.3004 55.13H44.0304C44.3904 55.13 44.6804 55.42 44.6804 55.78C44.6904 56.14 44.4004 56.43 44.0404 56.43Z" fill="black"/>
<path d="M44.0398 61.74H10.1998C9.8398 61.74 9.5498 61.45 9.5498 61.09C9.5498 60.73 9.8398 60.44 10.1998 60.44H44.0398C44.3998 60.44 44.6898 60.73 44.6898 61.09C44.6898 61.45 44.3998 61.74 44.0398 61.74Z" fill="black"/>
<path d="M48.0902 7.82C47.7302 7.82 47.4402 7.53 47.4402 7.17V0.65C47.4402 0.29 47.7302 0 48.0902 0C48.4502 0 48.7402 0.29 48.7402 0.65V7.17C48.7402 7.53 48.4502 7.82 48.0902 7.82ZM41.0902 7.82C40.7302 7.82 40.4402 7.53 40.4402 7.17V0.65C40.4402 0.29 40.7302 0 41.0902 0C41.4502 0 41.7402 0.29 41.7402 0.65V7.17C41.7502 7.53 41.4502 7.82 41.0902 7.82ZM34.1102 7.82C33.7502 7.82 33.4602 7.53 33.4602 7.17V0.65C33.4602 0.29 33.7502 0 34.1102 0C34.4702 0 34.7602 0.29 34.7602 0.65V7.17C34.7602 7.53 34.4602 7.82 34.1102 7.82ZM27.1202 7.82C26.7602 7.82 26.4702 7.53 26.4702 7.17V0.65C26.4702 0.29 26.7602 0 27.1202 0C27.4802 0 27.7702 0.29 27.7702 0.65V7.17C27.7702 7.53 27.4702 7.82 27.1202 7.82ZM20.1202 7.82C19.7602 7.82 19.4702 7.53 19.4702 7.17V0.65C19.4702 0.29 19.7602 0 20.1202 0C20.4802 0 20.7702 0.29 20.7702 0.65V7.17C20.7802 7.53 20.4802 7.82 20.1202 7.82ZM13.1302 7.82C12.7702 7.82 12.4802 7.53 12.4802 7.17V0.65C12.4802 0.29 12.7702 0 13.1302 0C13.4902 0 13.7802 0.29 13.7802 0.65V7.17C13.7902 7.53 13.4902 7.82 13.1302 7.82ZM6.14023 7.82C5.78023 7.82 5.49023 7.53 5.49023 7.17V0.65C5.49023 0.29 5.78023 0 6.14023 0C6.50023 0 6.79023 0.29 6.79023 0.65V7.17C6.79023 7.53 6.50023 7.82 6.14023 7.82Z" fill="black"/>
</g>
<defs>
<clipPath id="clip0">
<rect width="70.88" height="79.11" fill="white"/>
</clipPath>
</defs>
</svg>
